<svg width="438" height="472" viewBox="0 0 438 472" fill="none" xmlns="http://www.w3.org/2000/svg">
<path d="M2.67536 217.091L220.254 1.58215L435.763 219.16L218.184 434.669L2.67536 217.091Z" stroke="white" stroke-opacity="0.5"/>
<path d="M0.00341797 252.499L218.812 33.6904L437.621 252.499L218.812 471.308L0.00341797 252.499Z" fill="#031A44"/>
<path d="M110.553 231.655C110.92 231.655 111.232 231.589 111.49 231.456C111.756 231.315 111.955 231.12 112.088 230.87C112.229 230.612 112.295 230.304 112.287 229.944H116.002C116.01 230.897 115.775 231.733 115.299 232.452C114.83 233.163 114.189 233.718 113.377 234.116C112.572 234.507 111.662 234.702 110.646 234.702C109.654 234.702 108.787 234.542 108.045 234.222C107.303 233.894 106.682 233.44 106.182 232.862C105.689 232.276 105.318 231.593 105.068 230.812C104.826 230.03 104.705 229.183 104.705 228.269V227.999C104.705 227.085 104.826 226.237 105.068 225.456C105.318 224.667 105.689 223.983 106.182 223.405C106.682 222.819 107.299 222.366 108.033 222.046C108.775 221.718 109.639 221.554 110.623 221.554C111.678 221.554 112.607 221.753 113.412 222.151C114.225 222.55 114.861 223.128 115.322 223.886C115.783 224.644 116.01 225.562 116.002 226.64H112.287C112.295 226.257 112.236 225.913 112.111 225.608C111.986 225.304 111.791 225.062 111.525 224.882C111.268 224.694 110.936 224.601 110.529 224.601C110.123 224.601 109.795 224.69 109.545 224.87C109.295 225.05 109.104 225.3 108.971 225.62C108.846 225.933 108.76 226.292 108.713 226.698C108.674 227.104 108.654 227.538 108.654 227.999V228.269C108.654 228.737 108.674 229.179 108.713 229.593C108.76 229.999 108.85 230.358 108.982 230.671C109.115 230.976 109.307 231.218 109.557 231.397C109.807 231.569 110.139 231.655 110.553 231.655ZM123.83 234.702C122.799 234.702 121.877 234.542 121.064 234.222C120.252 233.894 119.564 233.444 119.002 232.874C118.447 232.304 118.021 231.647 117.725 230.905C117.436 230.163 117.291 229.378 117.291 228.55V228.104C117.291 227.175 117.42 226.315 117.678 225.526C117.936 224.729 118.318 224.034 118.826 223.44C119.334 222.847 119.971 222.386 120.736 222.058C121.502 221.722 122.393 221.554 123.408 221.554C124.307 221.554 125.111 221.698 125.822 221.987C126.533 222.276 127.135 222.69 127.627 223.229C128.127 223.769 128.506 224.421 128.764 225.187C129.029 225.952 129.162 226.812 129.162 227.765V229.37H118.803V226.897H125.307V226.593C125.314 226.171 125.24 225.812 125.084 225.515C124.936 225.218 124.717 224.991 124.428 224.835C124.139 224.679 123.787 224.601 123.373 224.601C122.943 224.601 122.588 224.694 122.307 224.882C122.033 225.069 121.818 225.327 121.662 225.655C121.514 225.976 121.408 226.347 121.346 226.769C121.283 227.19 121.252 227.636 121.252 228.104V228.55C121.252 229.019 121.314 229.444 121.439 229.827C121.572 230.21 121.76 230.538 122.002 230.812C122.252 231.077 122.549 231.284 122.893 231.433C123.244 231.581 123.643 231.655 124.088 231.655C124.627 231.655 125.158 231.554 125.682 231.351C126.205 231.147 126.654 230.812 127.029 230.343L128.822 232.476C128.564 232.843 128.197 233.198 127.721 233.542C127.252 233.886 126.689 234.167 126.033 234.386C125.377 234.597 124.643 234.702 123.83 234.702ZM134.939 216.468V234.468H130.979V216.468H134.939ZM141.549 216.468V234.468H137.588V216.468H141.549ZM143.494 228.257V228.011C143.494 227.081 143.627 226.226 143.893 225.444C144.158 224.655 144.549 223.972 145.064 223.394C145.58 222.815 146.217 222.366 146.975 222.046C147.732 221.718 148.607 221.554 149.6 221.554C150.6 221.554 151.479 221.718 152.236 222.046C153.002 222.366 153.643 222.815 154.158 223.394C154.674 223.972 155.064 224.655 155.33 225.444C155.596 226.226 155.729 227.081 155.729 228.011V228.257C155.729 229.179 155.596 230.034 155.33 230.823C155.064 231.604 154.674 232.288 154.158 232.874C153.643 233.452 153.006 233.901 152.248 234.222C151.49 234.542 150.615 234.702 149.623 234.702C148.631 234.702 147.752 234.542 146.986 234.222C146.221 233.901 145.58 233.452 145.064 232.874C144.549 232.288 144.158 231.604 143.893 230.823C143.627 230.034 143.494 229.179 143.494 228.257ZM147.443 228.011V228.257C147.443 228.733 147.479 229.179 147.549 229.593C147.619 230.007 147.736 230.37 147.9 230.683C148.064 230.987 148.287 231.226 148.568 231.397C148.85 231.569 149.201 231.655 149.623 231.655C150.037 231.655 150.381 231.569 150.654 231.397C150.936 231.226 151.158 230.987 151.322 230.683C151.486 230.37 151.604 230.007 151.674 229.593C151.744 229.179 151.779 228.733 151.779 228.257V228.011C151.779 227.55 151.744 227.116 151.674 226.71C151.604 226.296 151.486 225.933 151.322 225.62C151.158 225.3 150.936 225.05 150.654 224.87C150.373 224.69 150.021 224.601 149.6 224.601C149.186 224.601 148.838 224.69 148.557 224.87C148.283 225.05 148.064 225.3 147.9 225.62C147.736 225.933 147.619 226.296 147.549 226.71C147.479 227.116 147.443 227.55 147.443 228.011ZM164.131 230.905C164.131 230.687 164.057 230.499 163.908 230.343C163.768 230.179 163.518 230.03 163.158 229.897C162.799 229.757 162.295 229.616 161.646 229.476C161.029 229.343 160.447 229.167 159.9 228.948C159.361 228.729 158.889 228.464 158.482 228.151C158.076 227.839 157.756 227.468 157.521 227.038C157.295 226.608 157.182 226.116 157.182 225.562C157.182 225.022 157.295 224.515 157.521 224.038C157.756 223.554 158.096 223.128 158.541 222.761C158.994 222.386 159.545 222.093 160.193 221.882C160.842 221.663 161.58 221.554 162.408 221.554C163.549 221.554 164.533 221.729 165.361 222.081C166.189 222.425 166.826 222.909 167.271 223.534C167.725 224.151 167.951 224.866 167.951 225.679H164.002C164.002 225.358 163.947 225.085 163.838 224.858C163.736 224.632 163.568 224.46 163.334 224.343C163.1 224.218 162.787 224.155 162.396 224.155C162.123 224.155 161.873 224.206 161.646 224.308C161.428 224.409 161.252 224.55 161.119 224.729C160.986 224.909 160.92 225.12 160.92 225.362C160.92 225.534 160.959 225.69 161.037 225.831C161.123 225.964 161.252 226.089 161.424 226.206C161.596 226.315 161.814 226.417 162.08 226.511C162.346 226.597 162.666 226.675 163.041 226.745C163.893 226.901 164.689 227.124 165.432 227.413C166.174 227.702 166.775 228.112 167.236 228.644C167.705 229.175 167.939 229.89 167.939 230.788C167.939 231.351 167.811 231.87 167.553 232.347C167.295 232.815 166.924 233.229 166.439 233.589C165.955 233.94 165.373 234.214 164.693 234.409C164.014 234.604 163.248 234.702 162.396 234.702C161.186 234.702 160.162 234.487 159.326 234.058C158.49 233.62 157.857 233.073 157.428 232.417C157.006 231.753 156.795 231.081 156.795 230.401H160.475C160.49 230.792 160.584 231.112 160.756 231.362C160.936 231.612 161.174 231.796 161.471 231.913C161.768 232.03 162.111 232.089 162.502 232.089C162.861 232.089 163.158 232.038 163.393 231.937C163.635 231.835 163.818 231.698 163.943 231.526C164.068 231.347 164.131 231.14 164.131 230.905ZM175.146 231.655C175.514 231.655 175.826 231.589 176.084 231.456C176.35 231.315 176.549 231.12 176.682 230.87C176.822 230.612 176.889 230.304 176.881 229.944H180.596C180.604 230.897 180.369 231.733 179.893 232.452C179.424 233.163 178.783 233.718 177.971 234.116C177.166 234.507 176.256 234.702 175.24 234.702C174.248 234.702 173.381 234.542 172.639 234.222C171.896 233.894 171.275 233.44 170.775 232.862C170.283 232.276 169.912 231.593 169.662 230.812C169.42 230.03 169.299 229.183 169.299 228.269V227.999C169.299 227.085 169.42 226.237 169.662 225.456C169.912 224.667 170.283 223.983 170.775 223.405C171.275 222.819 171.893 222.366 172.627 222.046C173.369 221.718 174.232 221.554 175.217 221.554C176.271 221.554 177.201 221.753 178.006 222.151C178.818 222.55 179.455 223.128 179.916 223.886C180.377 224.644 180.604 225.562 180.596 226.64H176.881C176.889 226.257 176.83 225.913 176.705 225.608C176.58 225.304 176.385 225.062 176.119 224.882C175.861 224.694 175.529 224.601 175.123 224.601C174.717 224.601 174.389 224.69 174.139 224.87C173.889 225.05 173.697 225.3 173.564 225.62C173.439 225.933 173.354 226.292 173.307 226.698C173.268 227.104 173.248 227.538 173.248 227.999V228.269C173.248 228.737 173.268 229.179 173.307 229.593C173.354 229.999 173.443 230.358 173.576 230.671C173.709 230.976 173.9 231.218 174.15 231.397C174.4 231.569 174.732 231.655 175.146 231.655ZM181.791 228.257V228.011C181.791 227.081 181.924 226.226 182.189 225.444C182.455 224.655 182.846 223.972 183.361 223.394C183.877 222.815 184.514 222.366 185.271 222.046C186.029 221.718 186.904 221.554 187.896 221.554C188.896 221.554 189.775 221.718 190.533 222.046C191.299 222.366 191.939 222.815 192.455 223.394C192.971 223.972 193.361 224.655 193.627 225.444C193.893 226.226 194.025 227.081 194.025 228.011V228.257C194.025 229.179 193.893 230.034 193.627 230.823C193.361 231.604 192.971 232.288 192.455 232.874C191.939 233.452 191.303 233.901 190.545 234.222C189.787 234.542 188.912 234.702 187.92 234.702C186.928 234.702 186.049 234.542 185.283 234.222C184.518 233.901 183.877 233.452 183.361 232.874C182.846 232.288 182.455 231.604 182.189 230.823C181.924 230.034 181.791 229.179 181.791 228.257ZM185.74 228.011V228.257C185.74 228.733 185.775 229.179 185.846 229.593C185.916 230.007 186.033 230.37 186.197 230.683C186.361 230.987 186.584 231.226 186.865 231.397C187.146 231.569 187.498 231.655 187.92 231.655C188.334 231.655 188.678 231.569 188.951 231.397C189.232 231.226 189.455 230.987 189.619 230.683C189.783 230.37 189.9 230.007 189.971 229.593C190.041 229.179 190.076 228.733 190.076 228.257V228.011C190.076 227.55 190.041 227.116 189.971 226.71C189.9 226.296 189.783 225.933 189.619 225.62C189.455 225.3 189.232 225.05 188.951 224.87C188.67 224.69 188.318 224.601 187.896 224.601C187.482 224.601 187.135 224.69 186.854 224.87C186.58 225.05 186.361 225.3 186.197 225.62C186.033 225.933 185.916 226.296 185.846 226.71C185.775 227.116 185.74 227.55 185.74 228.011ZM199.768 224.226V239.343H195.818V221.788H199.498L199.768 224.226ZM207.549 227.976V228.222C207.549 229.144 207.443 229.999 207.232 230.788C207.021 231.577 206.709 232.265 206.295 232.851C205.881 233.437 205.365 233.894 204.748 234.222C204.139 234.542 203.432 234.702 202.627 234.702C201.869 234.702 201.217 234.534 200.67 234.198C200.123 233.862 199.666 233.397 199.299 232.804C198.932 232.21 198.635 231.53 198.408 230.765C198.182 229.999 198.002 229.19 197.869 228.339V228.022C198.002 227.108 198.182 226.261 198.408 225.479C198.635 224.69 198.932 224.003 199.299 223.417C199.666 222.831 200.119 222.374 200.658 222.046C201.205 221.718 201.857 221.554 202.615 221.554C203.42 221.554 204.127 221.706 204.736 222.011C205.354 222.315 205.869 222.753 206.283 223.323C206.705 223.886 207.021 224.562 207.232 225.351C207.443 226.14 207.549 227.015 207.549 227.976ZM203.6 228.222V227.976C203.6 227.483 203.564 227.034 203.494 226.628C203.424 226.214 203.311 225.854 203.154 225.55C203.006 225.245 202.807 225.011 202.557 224.847C202.307 224.683 201.998 224.601 201.631 224.601C201.209 224.601 200.854 224.667 200.564 224.8C200.283 224.925 200.057 225.12 199.885 225.386C199.721 225.644 199.604 225.968 199.533 226.358C199.471 226.741 199.443 227.19 199.451 227.706V228.667C199.436 229.261 199.494 229.784 199.627 230.237C199.76 230.683 199.99 231.03 200.318 231.28C200.646 231.53 201.092 231.655 201.654 231.655C202.029 231.655 202.342 231.569 202.592 231.397C202.842 231.218 203.041 230.972 203.189 230.659C203.338 230.339 203.443 229.972 203.506 229.558C203.568 229.144 203.6 228.698 203.6 228.222ZM215.447 234.702C214.416 234.702 213.494 234.542 212.682 234.222C211.869 233.894 211.182 233.444 210.619 232.874C210.064 232.304 209.639 231.647 209.342 230.905C209.053 230.163 208.908 229.378 208.908 228.55V228.104C208.908 227.175 209.037 226.315 209.295 225.526C209.553 224.729 209.936 224.034 210.443 223.44C210.951 222.847 211.588 222.386 212.354 222.058C213.119 221.722 214.01 221.554 215.025 221.554C215.924 221.554 216.729 221.698 217.439 221.987C218.15 222.276 218.752 222.69 219.244 223.229C219.744 223.769 220.123 224.421 220.381 225.187C220.646 225.952 220.779 226.812 220.779 227.765V229.37H210.42V226.897H216.924V226.593C216.932 226.171 216.857 225.812 216.701 225.515C216.553 225.218 216.334 224.991 216.045 224.835C215.756 224.679 215.404 224.601 214.99 224.601C214.561 224.601 214.205 224.694 213.924 224.882C213.65 225.069 213.436 225.327 213.279 225.655C213.131 225.976 213.025 226.347 212.963 226.769C212.9 227.19 212.869 227.636 212.869 228.104V228.55C212.869 229.019 212.932 229.444 213.057 229.827C213.189 230.21 213.377 230.538 213.619 230.812C213.869 231.077 214.166 231.284 214.51 231.433C214.861 231.581 215.26 231.655 215.705 231.655C216.244 231.655 216.775 231.554 217.299 231.351C217.822 231.147 218.271 230.812 218.646 230.343L220.439 232.476C220.182 232.843 219.814 233.198 219.338 233.542C218.869 233.886 218.307 234.167 217.65 234.386C216.994 234.597 216.26 234.702 215.447 234.702Z" fill="#007CC3"/>
<path d="M117.748 250.885L106.619 280.834H104.771L116.523 249.553H117.963L117.748 250.885ZM128.275 280.834L117.168 250.885L116.953 249.553H118.371L130.145 280.834H128.275ZM125.525 270.114V271.725H109.477V270.114H125.525ZM138.097 262.551V280.834H136.4V257.588H138.076L138.097 262.551ZM137.775 267.428L136.937 266.44C137.066 265.208 137.367 264.034 137.839 262.917C138.326 261.799 138.964 260.811 139.751 259.952C140.554 259.092 141.485 258.412 142.544 257.911C143.619 257.409 144.8 257.159 146.089 257.159C147.25 257.159 148.288 257.323 149.205 257.653C150.121 257.968 150.895 258.469 151.525 259.157C152.169 259.844 152.656 260.732 152.986 261.821C153.315 262.895 153.48 264.206 153.48 265.752V280.834H151.783V265.752C151.783 263.919 151.532 262.501 151.031 261.499C150.529 260.482 149.828 259.765 148.925 259.35C148.037 258.935 146.999 258.727 145.81 258.727C144.435 258.727 143.246 259.035 142.244 259.651C141.255 260.252 140.439 261.019 139.794 261.95C139.15 262.866 138.656 263.819 138.312 264.807C137.983 265.795 137.804 266.669 137.775 267.428ZM176.944 276.559V264.549C176.944 263.332 176.687 262.286 176.171 261.413C175.655 260.539 174.903 259.873 173.915 259.415C172.927 258.942 171.717 258.706 170.284 258.706C168.952 258.706 167.756 258.942 166.696 259.415C165.651 259.873 164.827 260.503 164.226 261.305C163.624 262.107 163.323 263.002 163.323 263.991L161.605 263.969C161.605 263.081 161.812 262.229 162.228 261.413C162.657 260.596 163.259 259.873 164.032 259.243C164.82 258.598 165.744 258.09 166.804 257.717C167.878 257.345 169.052 257.159 170.327 257.159C171.96 257.159 173.399 257.438 174.646 257.997C175.906 258.541 176.887 259.364 177.589 260.467C178.291 261.57 178.642 262.945 178.642 264.592V276.065C178.642 276.896 178.699 277.734 178.814 278.579C178.928 279.424 179.086 280.104 179.286 280.62V280.834H177.417C177.259 280.29 177.138 279.624 177.052 278.836C176.98 278.049 176.944 277.29 176.944 276.559ZM177.503 267.643L177.546 269.125H171.874C170.442 269.125 169.16 269.262 168.028 269.534C166.897 269.806 165.937 270.193 165.149 270.694C164.362 271.195 163.76 271.79 163.345 272.477C162.929 273.165 162.722 273.938 162.722 274.797C162.722 275.685 162.958 276.502 163.431 277.247C163.903 277.991 164.569 278.586 165.429 279.03C166.288 279.459 167.284 279.674 168.415 279.674C169.962 279.674 171.33 279.409 172.519 278.879C173.722 278.335 174.731 277.605 175.548 276.688C176.364 275.757 176.959 274.683 177.331 273.465L178.083 274.711C177.84 275.471 177.46 276.237 176.944 277.01C176.429 277.784 175.763 278.493 174.946 279.137C174.13 279.767 173.17 280.283 172.067 280.684C170.965 281.071 169.711 281.264 168.308 281.264C166.832 281.264 165.543 280.992 164.44 280.448C163.352 279.889 162.507 279.13 161.905 278.17C161.304 277.196 161.003 276.086 161.003 274.84C161.003 273.766 161.246 272.785 161.733 271.897C162.22 271.009 162.922 270.25 163.839 269.62C164.77 268.975 165.894 268.488 167.212 268.159C168.544 267.815 170.041 267.643 171.702 267.643H177.503ZM189.881 247.834V280.834H188.163V247.834H189.881ZM206.385 278.557L214.119 257.588H215.988L205.848 284.637C205.662 285.153 205.425 285.726 205.139 286.356C204.852 287 204.48 287.616 204.022 288.204C203.563 288.791 202.969 289.271 202.238 289.643C201.522 290.03 200.634 290.223 199.574 290.223C199.331 290.223 199.009 290.194 198.607 290.137C198.221 290.094 197.934 290.037 197.748 289.965L197.727 288.461C197.927 288.504 198.192 288.54 198.522 288.569C198.851 288.612 199.08 288.633 199.209 288.633C200.154 288.633 200.942 288.447 201.572 288.075C202.217 287.717 202.754 287.201 203.184 286.528C203.613 285.869 203.993 285.088 204.322 284.186L206.385 278.557ZM198.414 257.588L206.664 278.708L207.158 280.469L205.848 281.286L196.545 257.588H198.414ZM230.472 257.588V259.135H219.343V257.588H230.472ZM223.64 251.444H225.359V275.227C225.359 276.473 225.509 277.418 225.81 278.063C226.125 278.693 226.533 279.123 227.035 279.352C227.55 279.567 228.102 279.674 228.689 279.674C229.104 279.674 229.484 279.653 229.828 279.61C230.186 279.567 230.544 279.517 230.902 279.459L231.052 280.963C230.737 281.064 230.329 281.135 229.828 281.178C229.326 281.236 228.882 281.264 228.496 281.264C227.522 281.264 226.67 281.085 225.939 280.727C225.209 280.369 224.643 279.753 224.242 278.879C223.841 277.991 223.64 276.774 223.64 275.227V251.444ZM240.208 257.588V280.834H238.489V257.588H240.208ZM237.952 250.542C237.952 250.155 238.081 249.825 238.339 249.553C238.611 249.267 238.955 249.124 239.37 249.124C239.771 249.124 240.108 249.267 240.38 249.553C240.652 249.825 240.788 250.155 240.788 250.542C240.788 250.928 240.652 251.258 240.38 251.53C240.108 251.788 239.771 251.917 239.37 251.917C238.955 251.917 238.611 251.788 238.339 251.53C238.081 251.258 237.952 250.928 237.952 250.542ZM257.764 279.696C258.924 279.696 260.02 279.481 261.051 279.051C262.097 278.622 262.964 277.97 263.651 277.096C264.353 276.208 264.747 275.084 264.833 273.723H266.508C266.437 275.27 265.993 276.609 265.176 277.741C264.36 278.858 263.307 279.724 262.018 280.34C260.729 280.956 259.311 281.264 257.764 281.264C256.217 281.264 254.835 280.978 253.618 280.405C252.415 279.832 251.405 279.023 250.589 277.977C249.772 276.931 249.149 275.707 248.719 274.303C248.304 272.885 248.096 271.338 248.096 269.663V268.76C248.096 267.084 248.304 265.545 248.719 264.141C249.149 262.723 249.772 261.491 250.589 260.446C251.405 259.4 252.408 258.591 253.596 258.018C254.799 257.445 256.174 257.159 257.721 257.159C259.283 257.159 260.715 257.481 262.018 258.125C263.322 258.756 264.374 259.68 265.176 260.897C265.993 262.1 266.437 263.575 266.508 265.323H264.833C264.761 263.89 264.396 262.687 263.737 261.713C263.078 260.739 262.219 260.002 261.159 259.5C260.099 258.985 258.953 258.727 257.721 258.727C256.346 258.727 255.158 258.992 254.155 259.522C253.152 260.052 252.329 260.782 251.684 261.713C251.04 262.63 250.567 263.697 250.266 264.915C249.965 266.118 249.815 267.4 249.815 268.76V269.663C249.815 271.038 249.965 272.334 250.266 273.551C250.567 274.754 251.04 275.814 251.684 276.731C252.329 277.648 253.152 278.371 254.155 278.901C255.172 279.431 256.375 279.696 257.764 279.696ZM288.233 275.055C288.233 274.368 288.046 273.687 287.674 273.014C287.316 272.341 286.65 271.711 285.676 271.124C284.716 270.536 283.32 270.042 281.486 269.641C280.183 269.355 279.03 269.04 278.027 268.696C277.039 268.352 276.208 267.937 275.535 267.45C274.862 266.948 274.354 266.354 274.01 265.667C273.68 264.979 273.516 264.155 273.516 263.196C273.516 262.365 273.695 261.584 274.053 260.854C274.411 260.124 274.934 259.486 275.621 258.942C276.323 258.383 277.161 257.946 278.135 257.631C279.109 257.316 280.212 257.159 281.444 257.159C283.205 257.159 284.709 257.452 285.955 258.04C287.216 258.612 288.182 259.407 288.856 260.424C289.529 261.427 289.865 262.594 289.865 263.926H288.147C288.147 263.024 287.889 262.179 287.373 261.391C286.858 260.603 286.098 259.966 285.096 259.479C284.108 258.978 282.89 258.727 281.444 258.727C279.983 258.727 278.794 258.949 277.877 259.393C276.96 259.837 276.287 260.403 275.858 261.09C275.442 261.764 275.235 262.451 275.235 263.153C275.235 263.711 275.313 264.234 275.471 264.721C275.643 265.194 275.965 265.631 276.438 266.032C276.91 266.433 277.591 266.819 278.479 267.192C279.367 267.55 280.52 267.887 281.938 268.202C283.8 268.617 285.318 269.125 286.492 269.727C287.667 270.314 288.533 271.038 289.092 271.897C289.651 272.742 289.93 273.78 289.93 275.012C289.93 275.929 289.736 276.774 289.35 277.547C288.963 278.306 288.404 278.965 287.674 279.524C286.958 280.083 286.084 280.512 285.053 280.813C284.022 281.114 282.876 281.264 281.615 281.264C279.71 281.264 278.092 280.963 276.76 280.362C275.442 279.746 274.44 278.937 273.752 277.934C273.079 276.931 272.742 275.85 272.742 274.69H274.461C274.561 275.965 274.977 276.967 275.707 277.698C276.452 278.428 277.354 278.944 278.414 279.245C279.488 279.545 280.555 279.696 281.615 279.696C283.062 279.696 284.272 279.474 285.246 279.03C286.235 278.571 286.979 277.991 287.481 277.29C287.982 276.573 288.233 275.829 288.233 275.055Z" fill="white"/>
<rect x="304.533" y="263.867" width="7.97643" height="15.9529" fill="#FFA800"/>
<rect x="316.498" y="251.903" width="7.97643" height="27.9175" fill="#2CC786"/>
<rect x="328.461" y="267.855" width="7.97643" height="11.9646" fill="#EF7070"/>
</svg>
