<svg width="33" height="33" viewBox="0 0 33 33" fill="none" xmlns="http://www.w3.org/2000/svg">
<path d="M23.0035 22.002C22.9106 21.9083 22.8 21.8339 22.6781 21.7831C22.5562 21.7324 22.4255 21.7062 22.2935 21.7062C22.1615 21.7062 22.0308 21.7324 21.9089 21.7831C21.7871 21.8339 21.6765 21.9083 21.5835 22.002L16.9835 26.602V3.06201C16.9835 2.7968 16.8782 2.54244 16.6906 2.3549C16.5031 2.16737 16.2487 2.06201 15.9835 2.06201C15.7183 2.06201 15.4639 2.16737 15.2764 2.3549C15.0889 2.54244 14.9835 2.7968 14.9835 3.06201L14.9835 26.582L10.4135 22.002C10.2262 21.8158 9.9727 21.7112 9.70852 21.7112C9.44433 21.7112 9.19088 21.8158 9.00352 22.002C8.81727 22.1894 8.71273 22.4428 8.71273 22.707C8.71273 22.9712 8.81727 23.2246 9.00352 23.412L15.3635 29.772C15.4456 29.8576 15.5442 29.9257 15.6534 29.9723C15.7625 30.0188 15.8799 30.0428 15.9985 30.0428C16.1171 30.0428 16.2346 30.0188 16.3437 29.9723C16.4528 29.9257 16.5514 29.8576 16.6335 29.772L23.0035 23.422C23.0972 23.3291 23.1716 23.2184 23.2224 23.0966C23.2732 22.9747 23.2993 22.844 23.2993 22.712C23.2993 22.58 23.2732 22.4493 23.2224 22.3274C23.1716 22.2056 23.0972 22.095 23.0035 22.002Z" fill="white"/>
</svg>
