<svg width="70" height="64" viewBox="0 0 70 64" fill="none" xmlns="http://www.w3.org/2000/svg">
<path d="M17.2721 48.2013C12.8746 48.1407 8.49231 47.8829 4.24647 46.5788C3.07887 46.2149 1.94159 45.6841 0.925621 45.0018C-0.257148 44.2133 -0.181329 43.0911 0.955949 42.242C2.53297 41.0592 4.38294 40.5588 6.26324 40.1949C14.1484 38.6633 22.0183 38.6482 29.8428 40.5891C30.8891 40.8469 31.8899 41.317 32.8755 41.7719C33.6489 42.1358 34.4374 42.6666 34.4526 43.637C34.4677 44.6227 33.6944 45.1989 32.9059 45.5022C31.1317 46.1694 29.3272 46.9427 27.4773 47.246C24.1109 47.7919 20.6991 48.0497 17.3176 48.4136C17.2873 48.353 17.2721 48.2771 17.2721 48.2013Z" fill="white"/>
<path d="M52.9524 6.25852C52.0275 6.91056 51.2693 7.44129 50.5262 7.98718C43.5055 13.067 36.4695 18.1469 29.4487 23.2115C27.8868 24.3337 27.5229 24.3033 26.143 22.9234C24.1869 20.9673 22.2308 18.996 20.2443 16.9944C17.9395 19.0112 15.6801 20.9825 13.4207 22.9689C12.0863 24.1365 10.767 25.3041 9.41745 26.4566C8.58345 27.1693 7.65846 27.1693 7.06708 26.4717C6.47569 25.759 6.597 24.9099 7.46133 24.1669C11.3129 20.7853 15.1797 17.4038 19.0464 14.0223C20.032 13.158 20.7144 13.2035 21.6546 14.1436C23.7623 16.2514 25.8549 18.3592 28.0081 20.5124C35.7113 14.9473 43.369 9.42773 51.2086 3.77167C49.4041 3.49873 47.8119 3.25611 46.2198 3.02865C45.1128 2.86185 44.5063 2.22498 44.6124 1.31515C44.7185 0.390167 45.4312 -0.125398 46.5534 0.0262385C49.4193 0.420495 52.2701 0.860242 55.1208 1.29999C56.1975 1.46679 56.6524 2.14916 56.5007 3.27127C56.0913 6.13721 55.6667 8.98799 55.227 11.8388C55.0754 12.7941 54.3778 13.3855 53.5438 13.2793C52.6643 13.1732 52.1033 12.3998 52.2397 11.399C52.4217 10.0494 52.6492 8.71504 52.8463 7.38063C52.8766 7.07736 52.9069 6.75892 52.9524 6.25852Z" fill="white"/>
<path d="M54.0136 25.5165C57.9561 25.5771 62.3688 25.9107 66.5691 27.4726C67.5699 27.8365 68.5404 28.3976 69.435 29.0041C70.1781 29.5197 70.1932 30.1717 69.4199 30.657C68.3129 31.3545 67.1302 32.0065 65.8867 32.416C61.1708 33.9627 56.3033 34.2356 51.3751 34.0688C47.4174 33.9172 43.5051 33.4168 39.79 31.9156C39.138 31.6578 38.5163 31.309 37.9249 30.9148C36.8179 30.1566 36.7573 29.3984 37.94 28.7767C39.4564 27.973 41.0789 27.2755 42.7318 26.8054C46.2649 25.7894 49.889 25.5316 54.0136 25.5165Z" fill="white"/>
<path d="M0.0916952 47.8981C5.67194 50.5821 11.4645 51.2038 17.3632 51.1886C23.2315 51.1735 28.9937 50.5517 34.4678 47.8829C34.4678 49.005 34.6043 50.0665 34.4072 51.0521C34.301 51.6284 33.7551 52.2804 33.2244 52.5685C32.0265 53.2206 30.7527 53.8271 29.4335 54.2062C23.8684 55.8136 18.1668 55.9955 12.4198 55.5254C9.08377 55.2525 5.82357 54.6914 2.71502 53.357C2.60887 53.3115 2.50272 53.2661 2.39658 53.2206C0.789226 52.5534 -0.272234 51.5374 0.0613677 49.5964C0.167514 49.0809 0.0916952 48.535 0.0916952 47.8981Z" fill="white"/>
<path d="M34.4831 55.4799C34.4831 56.3442 34.4073 57.0873 34.4983 57.8151C34.6499 59.0131 34.0282 59.6954 33.1184 60.2413C31.0864 61.4696 28.8422 62.0761 26.5373 62.4704C19.8805 63.6228 13.2084 63.6986 6.59707 62.1368C4.79259 61.7122 3.06393 60.8934 1.33526 60.1503C0.425441 59.7712 -0.0294702 59.0131 0.0766758 57.9364C0.152494 57.1479 0.0918395 56.3594 0.0918395 55.4496C5.59626 58.1639 11.4191 58.7401 17.3026 58.7401C23.171 58.7553 28.9635 58.1639 34.4831 55.4799Z" fill="white"/>
<path d="M37.1063 33.9626C42.3833 36.5405 47.9332 37.1015 53.5589 37.1015C59.1543 37.1015 64.6891 36.5405 69.9205 33.9778C69.9205 35.0999 70.0267 36.1311 69.875 37.1167C69.8144 37.5413 69.314 38.072 68.8742 38.254C67.1456 38.997 65.4321 39.8613 63.6124 40.2404C56.1216 41.8478 48.6155 41.8326 41.2157 39.649C40.0784 39.3154 39.0169 38.6786 37.9555 38.1175C37.3186 37.7839 37.0153 37.2077 37.076 36.4192C37.1669 35.661 37.1063 34.8725 37.1063 33.9626Z" fill="white"/>
<path d="M37.1062 48.6865C42.3983 51.234 47.9634 51.7951 53.5891 51.7799C59.1846 51.7648 64.7041 51.2189 69.9508 48.6865C69.9508 49.748 70.0569 50.7336 69.9053 51.6738C69.8295 52.1438 69.3746 52.7352 68.9348 52.9172C67.191 53.6754 65.4472 54.5397 63.5972 54.934C56.3489 56.4958 49.0855 56.4958 41.8828 54.5549C40.5939 54.2061 39.3808 53.5541 38.1525 52.9779C37.3791 52.6139 36.9849 51.9619 37.0759 51.0369C37.1669 50.309 37.1062 49.566 37.1062 48.6865Z" fill="white"/>
<path d="M69.951 56.3443C69.951 57.1935 70.0875 58.1791 69.9055 59.1192C69.7994 59.6348 69.2686 60.2414 68.7682 60.4537C67.0851 61.1967 65.3716 62.0004 63.5822 62.3794C56.334 63.9413 49.0706 63.9413 41.8678 61.9852C40.5486 61.6213 39.3052 60.9541 38.0769 60.3475C37.3642 59.9987 37.0154 59.3922 37.0913 58.5279C37.1519 57.7697 37.1064 56.9963 37.1064 56.314C48.0698 60.3172 58.9876 60.2717 69.951 56.3443Z" fill="white"/>
<path d="M37.1062 41.4686C48.0999 45.4112 58.9571 45.396 69.9356 41.499C69.9356 42.3633 70.0418 43.3944 69.8902 44.3801C69.8143 44.835 69.2836 45.3809 68.8287 45.578C67.1 46.321 65.3714 47.155 63.5669 47.5341C56.3186 49.0808 49.0552 49.0808 41.8525 47.1247C40.5029 46.7608 39.2443 46.0481 37.9857 45.4415C37.3337 45.1231 37.0456 44.5317 37.0911 43.7583C37.1517 42.9547 37.1062 42.151 37.1062 41.4686Z" fill="white"/>
</svg>
