<svg width="723" height="486" viewBox="0 0 723 486" fill="none" xmlns="http://www.w3.org/2000/svg">
<g clip-path="url(#clip0_324_10823)">
<path d="M513.954 95.1279C536.769 108.299 548.96 153.445 558.345 166.275L558.26 189.81L558.073 241.748L373.711 135.376L373.897 83.4378L373.958 66.6025C374.582 66.1075 386.396 56.7465 406.182 68.1566C414.687 73.0705 424.562 81.9243 435.388 97.1974C441.374 105.641 446.566 110.722 451.212 113.4C474.513 126.851 484.213 80.0131 512.5 94.361C512.994 94.5923 513.476 94.8561 513.954 95.1279Z" fill="#F23F93"/>
<path opacity="0.14" d="M323.133 486.011C436.976 486.011 529.265 439.771 529.265 382.731C529.265 325.691 436.976 279.452 323.133 279.452C209.289 279.452 117 325.691 117 382.731C117 439.771 209.289 486.011 323.133 486.011Z" fill="#1483F3"/>
<path d="M471.582 356.596L395.989 399.944C388.961 403.973 377.463 403.973 370.306 399.944L293.352 356.588C289.706 354.535 287.888 351.836 287.908 349.15C287.823 360.658 287.734 355.521 287.641 367.032C287.621 369.723 289.435 372.417 293.076 374.474L370.031 417.826C377.191 421.86 388.69 421.86 395.717 417.826L471.323 374.478C474.774 372.502 476.503 369.913 476.523 367.316C476.608 355.809 476.702 360.946 476.791 349.438C476.762 352.031 475.029 354.64 471.582 356.596Z" fill="#1483F3"/>
<path d="M471.351 342.739L394.255 299.383C390.662 297.354 385.996 296.36 381.343 296.36C376.689 296.36 372.027 297.366 368.532 299.383L292.821 342.727C285.785 346.76 285.883 353.277 293.056 357.334L370.156 400.682C373.736 402.711 378.414 403.701 383.068 403.701C387.722 403.701 392.359 402.699 395.879 400.682L471.582 357.334C478.613 353.301 478.52 346.768 471.351 342.739ZM470.067 354.729L394.368 398.057C391.464 399.729 387.345 400.682 383.076 400.682C378.807 400.682 374.631 399.721 371.659 398.049L294.55 354.709C292.071 353.317 290.65 351.581 290.642 349.945C290.634 348.31 291.982 346.699 294.336 345.336L370.067 301.984C372.975 300.32 377.094 299.363 381.363 299.363C385.632 299.363 389.8 300.328 392.776 302L469.856 345.352C472.331 346.744 473.753 348.485 473.765 350.12C473.777 351.755 472.424 353.382 470.067 354.729V354.729Z" fill="#1BE7FF"/>
<path d="M368.532 296.798C375.563 292.765 387.078 292.765 394.255 296.798L471.351 340.15C478.52 344.18 478.621 350.72 471.582 354.758L395.879 398.098C388.84 402.127 377.321 402.127 370.156 398.098L293.056 354.746C285.883 350.688 285.785 344.196 292.821 340.138L368.532 296.798Z" fill="#2E2E2E"/>
<path d="M471.582 325.997L395.989 369.345C388.961 373.374 377.463 373.374 370.306 369.345L293.352 325.989C289.706 323.96 287.888 321.241 287.908 318.555C287.823 330.067 287.734 324.926 287.641 336.437C287.621 339.124 289.435 341.822 293.076 343.875L370.031 387.227C377.191 391.26 388.69 391.26 395.717 387.227L471.323 343.883C474.774 341.903 476.503 339.318 476.523 336.725C476.608 325.214 476.702 330.355 476.791 318.843C476.762 321.432 475.029 324.017 471.582 325.997Z" fill="#1483F3"/>
<path d="M471.351 312.14L394.255 268.788C390.662 266.759 385.996 265.765 381.343 265.765C376.689 265.765 372.027 266.771 368.532 268.784L292.821 312.132C285.785 316.165 285.883 322.682 293.056 326.74L370.156 370.088C373.736 372.117 378.414 373.111 383.068 373.111C387.722 373.111 392.343 372.088 395.879 370.088L471.582 326.74C478.613 322.71 478.52 316.169 471.351 312.14ZM470.067 324.135L394.368 367.483C391.464 369.146 387.345 370.104 383.076 370.104C378.807 370.104 374.631 369.138 371.659 367.467L294.55 324.114C292.071 322.723 290.65 320.986 290.642 319.347C290.634 317.707 291.982 316.101 294.336 314.741L370.067 271.389C372.975 269.721 377.094 268.772 381.363 268.772C385.632 268.772 389.8 269.729 392.776 271.401L469.856 314.757C472.331 316.153 473.753 317.886 473.765 319.525C473.777 321.164 472.424 322.788 470.067 324.135V324.135Z" fill="#1BE7FF"/>
<path d="M368.532 266.203C375.563 262.17 387.078 262.17 394.255 266.203L471.351 309.555C478.52 313.589 478.621 320.105 471.582 324.163L395.879 367.499C388.84 371.528 377.321 371.528 370.156 367.499L293.056 324.147C285.883 320.113 285.785 313.597 292.821 309.539L368.532 266.203Z" fill="#2E2E2E"/>
<path d="M471.581 295.398L395.987 338.75C388.96 342.78 377.461 342.78 370.305 338.75L293.334 295.398C289.689 293.345 287.87 290.643 287.891 287.96C287.805 299.468 287.716 294.331 287.623 305.843C287.603 308.529 289.417 311.231 293.059 313.28L370.013 356.632C377.174 360.666 388.672 360.666 395.7 356.632L471.321 313.288C474.772 311.308 476.502 308.724 476.522 306.127C476.607 294.619 476.7 299.76 476.789 288.249C476.761 290.837 475.027 293.426 471.581 295.398Z" fill="#1483F3"/>
<path d="M471.351 281.545L394.255 238.185C390.662 236.156 385.996 235.158 381.343 235.158C376.689 235.158 372.027 236.168 368.532 238.181L292.821 281.537C285.785 285.567 285.883 292.087 293.056 296.145L370.156 339.489C373.736 341.518 378.414 342.516 383.068 342.516C387.722 342.516 392.359 341.506 395.879 339.489L471.582 296.141C478.613 292.116 478.52 285.579 471.351 281.545ZM470.067 293.54L394.368 336.884C391.464 338.552 387.345 339.505 383.076 339.505C378.807 339.505 374.631 338.547 371.659 336.876L294.55 293.52C292.071 292.124 290.65 290.387 290.642 288.756C290.634 287.125 291.982 285.51 294.336 284.146L370.067 240.794C372.975 239.131 377.094 238.173 381.363 238.173C385.632 238.173 389.8 239.135 392.776 240.806L469.856 284.163C472.331 285.558 473.753 287.295 473.765 288.93C473.777 290.566 472.424 292.193 470.067 293.54V293.54Z" fill="#1BE7FF"/>
<path d="M368.532 235.608C375.563 231.579 387.078 231.571 394.255 235.608L471.351 278.961C478.52 282.994 478.621 289.511 471.582 293.568L395.879 336.904C388.84 340.937 377.321 340.937 370.156 336.904L293.056 293.552C285.883 289.519 285.785 282.982 292.821 278.944L368.532 235.608Z" fill="#2E2E2E"/>
<path d="M471.582 264.807L395.989 308.155C388.961 312.185 377.463 312.185 370.306 308.155L293.352 264.803C289.706 262.75 287.888 260.052 287.908 257.366C287.823 268.877 287.734 263.732 287.641 275.248C287.621 277.934 289.435 280.628 293.076 282.685L370.031 326.042C377.191 330.071 388.69 330.071 395.717 326.042L471.323 282.694C474.774 280.713 476.503 278.129 476.523 275.536C476.608 264.024 476.702 269.161 476.791 257.654C476.762 260.242 475.029 262.827 471.582 264.807Z" fill="#1483F3"/>
<path d="M471.351 250.951L394.255 207.594C390.662 205.566 385.996 204.571 381.343 204.571C376.689 204.571 372.027 205.582 368.532 207.594L292.821 250.942C285.785 254.972 285.883 261.492 293.056 265.55L370.156 308.894C373.736 310.923 378.414 311.917 383.068 311.917C387.722 311.917 392.359 310.907 395.879 308.894L471.582 265.546C478.613 261.517 478.52 254.98 471.351 250.951ZM470.067 262.937L394.368 306.289C391.464 307.957 387.345 308.914 383.076 308.914C378.807 308.914 374.631 307.953 371.659 306.281L294.55 262.937C292.071 261.541 290.65 259.808 290.642 258.173C290.634 256.538 291.982 254.907 294.336 253.564L370.067 210.187C372.975 208.524 377.094 207.566 381.363 207.566C385.632 207.566 389.8 208.524 392.776 210.199L469.856 253.564C472.331 254.96 473.753 256.696 473.765 258.335C473.777 259.975 472.424 261.598 470.067 262.937Z" fill="#1BE7FF"/>
<path d="M368.532 205.014C375.563 200.98 387.078 200.976 394.255 205.014L471.351 248.37C478.52 252.395 478.621 258.92 471.582 262.977L395.879 306.313C388.84 310.343 377.321 310.343 370.156 306.313L293.056 262.961C285.883 258.904 285.785 252.411 292.821 248.354L368.532 205.014Z" fill="#2E2E2E"/>
<path d="M471.582 234.213L395.989 277.565C388.961 281.59 377.463 281.59 370.306 277.565L293.352 234.208C289.706 232.159 287.888 229.461 287.908 226.771C287.823 238.282 287.734 233.145 287.641 244.657C287.621 247.343 289.435 250.042 293.076 252.095L370.031 295.451C377.191 299.48 388.69 299.48 395.717 295.451L471.323 252.099C474.774 250.119 476.503 247.534 476.523 244.937C476.608 233.425 476.702 238.566 476.791 227.055C476.762 229.664 475.029 232.236 471.582 234.213Z" fill="#1483F3"/>
<path d="M471.351 220.356L394.255 177C390.662 174.971 385.996 173.977 381.343 173.977C376.689 173.977 372.027 174.987 368.532 177L292.821 220.331C285.785 224.361 285.883 230.881 293.056 234.939L370.156 278.299C373.736 280.328 378.414 281.322 383.068 281.322C387.722 281.322 392.359 280.316 395.879 278.303L471.582 234.939C478.613 230.922 478.52 224.389 471.351 220.356ZM470.067 232.35L394.368 275.694C391.464 277.362 387.345 278.315 383.076 278.315C378.807 278.315 374.631 277.354 371.659 275.686L294.55 232.33C292.071 230.934 290.65 229.197 290.642 227.566C290.634 225.935 291.982 224.3 294.336 222.953L370.067 179.605C372.975 177.941 377.094 176.983 381.363 176.983C385.632 176.983 389.8 177.945 392.776 179.617L469.856 222.969C472.331 224.365 473.753 226.101 473.765 227.737C473.777 229.372 472.424 230.999 470.067 232.35V232.35Z" fill="#1BE7FF"/>
<path d="M368.532 174.415C375.563 170.385 387.078 170.381 394.255 174.415L471.351 217.771C478.52 221.8 478.621 228.321 471.582 232.379L395.879 275.714C388.84 279.748 377.321 279.748 370.156 275.714L293.056 232.362C285.883 228.325 285.785 221.812 292.821 217.755L368.532 174.415Z" fill="#2E2E2E"/>
<path d="M471.582 203.618L395.989 246.966C388.961 250.991 377.463 250.991 370.306 246.966L293.352 203.61C289.706 201.557 287.888 198.858 287.908 196.172C287.823 207.684 287.734 202.543 287.641 214.054C287.621 216.745 289.435 219.443 293.076 221.496L370.031 264.848C377.191 268.877 388.69 268.877 395.717 264.848L471.323 221.504C474.774 219.528 476.503 216.935 476.523 214.342C476.608 202.831 476.702 207.972 476.791 196.46C476.762 199.053 475.029 201.638 471.582 203.618Z" fill="#1483F3"/>
<path d="M471.351 189.761L394.255 146.409C390.662 144.38 385.996 143.382 381.343 143.382C376.689 143.382 372.027 144.392 368.532 146.401L292.821 189.753C285.785 193.782 285.883 200.303 293.056 204.36L370.156 247.704C373.736 249.733 378.414 250.723 383.068 250.723C387.722 250.723 392.359 249.717 395.879 247.704L471.582 204.356C478.613 200.327 478.52 193.79 471.351 189.761ZM470.067 201.751L394.368 245.083C391.464 246.751 387.345 247.704 383.076 247.704C378.807 247.704 374.631 246.743 371.659 245.071L294.55 201.731C292.071 200.339 290.65 198.603 290.642 196.967C290.634 195.332 291.982 193.721 294.336 192.358L370.067 149.01C372.975 147.342 377.094 146.388 381.363 146.388C385.632 146.388 389.8 147.35 392.776 149.022L469.856 192.374C472.331 193.77 473.753 195.507 473.765 197.142C473.777 198.777 472.424 200.408 470.067 201.751V201.751Z" fill="#1BE7FF"/>
<path d="M368.532 143.82C375.563 139.791 387.078 139.787 394.255 143.82L471.351 187.176C478.52 191.205 478.621 197.726 471.582 201.784L395.879 245.12C388.84 249.149 377.321 249.149 370.156 245.12L293.056 201.768C285.883 197.73 285.785 191.218 292.821 187.16L368.532 143.82Z" fill="#2E2E2E"/>
<g style="mix-blend-mode:screen" opacity="0.8">
<g style="mix-blend-mode:screen" opacity="0.8">
<path d="M271.831 224.369L271.814 230.078L277.136 233.129L277.153 227.416L271.831 224.369Z" fill="#1BE7FF"/>
</g>
<g style="mix-blend-mode:screen" opacity="0.8">
<path d="M271.803 234.489L271.787 240.202L277.105 243.245L277.125 237.536L271.803 234.489Z" fill="#1BE7FF"/>
</g>
<g style="mix-blend-mode:screen" opacity="0.8">
<path d="M271.774 244.613L271.754 250.318L277.076 253.365L277.096 247.656L271.774 244.613Z" fill="#1BE7FF"/>
</g>
<g style="mix-blend-mode:screen" opacity="0.8">
<path d="M271.741 254.728L271.725 260.437L277.047 263.485L277.067 257.776L271.741 254.728Z" fill="#1BE7FF"/>
</g>
<g style="mix-blend-mode:screen" opacity="0.8">
<path d="M271.718 264.852L271.697 270.557L277.019 273.6L277.04 267.895L271.718 264.852Z" fill="#1BE7FF"/>
</g>
<g style="mix-blend-mode:screen" opacity="0.8">
<path d="M263.12 188.978L263.104 194.683L268.43 197.73L268.438 192.029L263.12 188.978Z" fill="#1BE7FF"/>
</g>
<g style="mix-blend-mode:screen" opacity="0.8">
<path d="M263.087 199.098L263.07 204.807L268.392 207.85L268.413 202.145L263.087 199.098Z" fill="#1BE7FF"/>
</g>
<g style="mix-blend-mode:screen" opacity="0.8">
<path d="M263.057 209.214L263.045 214.919L268.367 217.97L268.383 212.257L263.057 209.214Z" fill="#1BE7FF"/>
</g>
<g style="mix-blend-mode:screen" opacity="0.8">
<path d="M263.03 219.329L263.018 225.042L268.34 228.09L268.356 222.381L263.03 219.329Z" fill="#1BE7FF"/>
</g>
<g style="mix-blend-mode:screen" opacity="0.8">
<path d="M263.004 229.453L262.988 235.162L268.306 238.206L268.322 232.5L263.004 229.453Z" fill="#1BE7FF"/>
</g>
<g style="mix-blend-mode:screen" opacity="0.8">
<path d="M262.973 239.569L262.957 245.282L268.279 248.325L268.295 242.616L262.973 239.569Z" fill="#1BE7FF"/>
</g>
<g style="mix-blend-mode:screen" opacity="0.8">
<path d="M262.946 249.693L262.93 255.398L268.252 258.445L268.264 252.74L262.946 249.693Z" fill="#1BE7FF"/>
</g>
<g style="mix-blend-mode:screen" opacity="0.8">
<path d="M262.917 259.809L262.9 265.518L268.222 268.569L268.239 262.856L262.917 259.809Z" fill="#1BE7FF"/>
</g>
<g style="mix-blend-mode:screen" opacity="0.8">
<path d="M254.375 163.703L254.363 169.408L259.681 172.455L259.702 166.746L254.375 163.703Z" fill="#1BE7FF"/>
</g>
<g style="mix-blend-mode:screen" opacity="0.8">
<path d="M254.346 173.822L254.33 179.527L259.656 182.571L259.668 176.866L254.346 173.822Z" fill="#1BE7FF"/>
</g>
<g style="mix-blend-mode:screen" opacity="0.8">
<path d="M254.323 183.942L254.303 189.647L259.625 192.695L259.645 186.986L254.323 183.942Z" fill="#1BE7FF"/>
</g>
<g style="mix-blend-mode:screen" opacity="0.8">
<path d="M254.289 194.058L254.277 199.763L259.595 202.81L259.612 197.105L254.289 194.058Z" fill="#1BE7FF"/>
</g>
<g style="mix-blend-mode:screen" opacity="0.8">
<path d="M254.256 204.174L254.244 209.887L259.566 212.93L259.578 207.221L254.256 204.174Z" fill="#1BE7FF"/>
</g>
<g style="mix-blend-mode:screen" opacity="0.8">
<path d="M254.233 214.298L254.217 220.003L259.539 223.054L259.551 217.341L254.233 214.298Z" fill="#1BE7FF"/>
</g>
<g style="mix-blend-mode:screen" opacity="0.8">
<path d="M254.2 224.414L254.188 230.123L259.51 233.17L259.526 227.461L254.2 224.414Z" fill="#1BE7FF"/>
</g>
<g style="mix-blend-mode:screen" opacity="0.8">
<path d="M254.176 234.533L254.16 240.239L259.482 243.29L259.494 237.577L254.176 234.533Z" fill="#1BE7FF"/>
</g>
<g style="mix-blend-mode:screen" opacity="0.8">
<path d="M254.145 244.649L254.133 250.362L259.451 253.41L259.471 247.701L254.145 244.649Z" fill="#1BE7FF"/>
</g>
<g style="mix-blend-mode:screen" opacity="0.8">
<path d="M254.12 254.769L254.1 260.482L259.426 263.525L259.438 257.816L254.12 254.769Z" fill="#1BE7FF"/>
</g>
<g style="mix-blend-mode:screen" opacity="0.8">
<path d="M245.405 219.378L245.393 225.083L250.711 228.13L250.731 222.421L245.405 219.378Z" fill="#1BE7FF"/>
</g>
<g style="mix-blend-mode:screen" opacity="0.8">
<path d="M245.376 229.494L245.359 235.203L250.685 238.25L250.702 232.541L245.376 229.494Z" fill="#1BE7FF"/>
</g>
<g style="mix-blend-mode:screen" opacity="0.8">
<path d="M245.342 239.614L245.334 245.323L250.652 248.37L250.668 242.661L245.342 239.614Z" fill="#1BE7FF"/>
</g>
<g style="mix-blend-mode:screen" opacity="0.8">
<path d="M245.317 249.733L245.305 255.443L250.623 258.49L250.639 252.777L245.317 249.733Z" fill="#1BE7FF"/>
</g>
<g style="mix-blend-mode:screen" opacity="0.8">
<path d="M236.549 234.578L236.533 240.287L241.851 243.33L241.871 237.621L236.549 234.578Z" fill="#1BE7FF"/>
</g>
<g style="mix-blend-mode:screen" opacity="0.8">
<path d="M236.522 244.698L236.51 250.407L241.828 253.45L241.844 247.741L236.522 244.698Z" fill="#1BE7FF"/>
</g>
<g style="mix-blend-mode:screen" opacity="0.8">
<path d="M227.813 209.299L227.793 215.008L233.115 218.055L233.131 212.346L227.813 209.299Z" fill="#1BE7FF"/>
</g>
<g style="mix-blend-mode:screen" opacity="0.8">
<path d="M227.78 219.419L227.764 225.132L233.086 228.175L233.106 222.466L227.78 219.419Z" fill="#1BE7FF"/>
</g>
<g style="mix-blend-mode:screen" opacity="0.8">
<path d="M227.755 229.538L227.734 235.247L233.06 238.291L233.077 232.586L227.755 229.538Z" fill="#1BE7FF"/>
</g>
<g style="mix-blend-mode:screen" opacity="0.8">
<path d="M227.723 239.658L227.703 245.371L233.025 248.415L233.049 242.706L227.723 239.658Z" fill="#1BE7FF"/>
</g>
<g style="mix-blend-mode:screen" opacity="0.8">
<path d="M219.096 173.908L219.08 179.613L224.402 182.66L224.418 176.955L219.096 173.908Z" fill="#1BE7FF"/>
</g>
<g style="mix-blend-mode:screen" opacity="0.8">
<path d="M219.071 184.019L219.055 189.733L224.377 192.78L224.393 187.071L219.071 184.019Z" fill="#1BE7FF"/>
</g>
<g style="mix-blend-mode:screen" opacity="0.8">
<path d="M219.038 194.143L219.021 199.852L224.343 202.9L224.364 197.195L219.038 194.143Z" fill="#1BE7FF"/>
</g>
<g style="mix-blend-mode:screen" opacity="0.8">
<path d="M219.012 204.263L218.996 209.972L224.318 213.02L224.334 207.31L219.012 204.263Z" fill="#1BE7FF"/>
</g>
<g style="mix-blend-mode:screen" opacity="0.8">
<path d="M218.979 214.379L218.963 220.088L224.285 223.135L224.301 217.426L218.979 214.379Z" fill="#1BE7FF"/>
</g>
<g style="mix-blend-mode:screen" opacity="0.8">
<path d="M218.952 224.503L218.939 230.212L224.261 233.255L224.278 227.546L218.952 224.503Z" fill="#1BE7FF"/>
</g>
<g style="mix-blend-mode:screen" opacity="0.8">
<path d="M218.922 234.614L218.91 240.328L224.228 243.371L224.248 237.666L218.922 234.614Z" fill="#1BE7FF"/>
</g>
<g style="mix-blend-mode:screen" opacity="0.8">
<path d="M210.417 128.393L210.396 134.102L215.723 137.149L215.739 131.44L210.417 128.393Z" fill="#1BE7FF"/>
</g>
<g style="mix-blend-mode:screen" opacity="0.8">
<path d="M210.381 138.513L210.373 144.218L215.691 147.265L215.707 141.56L210.381 138.513Z" fill="#1BE7FF"/>
</g>
<g style="mix-blend-mode:screen" opacity="0.8">
<path d="M210.362 148.628L210.342 154.338L215.664 157.385L215.68 151.68L210.362 148.628Z" fill="#1BE7FF"/>
</g>
<g style="mix-blend-mode:screen" opacity="0.8">
<path d="M210.329 158.752L210.312 164.457L215.634 167.505L215.651 161.796L210.329 158.752Z" fill="#1BE7FF"/>
</g>
<g style="mix-blend-mode:screen" opacity="0.8">
<path d="M210.301 168.868L210.285 174.573L215.603 177.62L215.623 171.915L210.301 168.868Z" fill="#1BE7FF"/>
</g>
<g style="mix-blend-mode:screen" opacity="0.8">
<path d="M210.272 178.984L210.252 184.693L215.578 187.744L215.594 182.031L210.272 178.984Z" fill="#1BE7FF"/>
</g>
<g style="mix-blend-mode:screen" opacity="0.8">
<path d="M210.239 189.108L210.227 194.813L215.545 197.86L215.561 192.151L210.239 189.108Z" fill="#1BE7FF"/>
</g>
<g style="mix-blend-mode:screen" opacity="0.8">
<path d="M210.212 199.224L210.195 204.929L215.517 207.98L215.534 202.271L210.212 199.224Z" fill="#1BE7FF"/>
</g>
<g style="mix-blend-mode:screen" opacity="0.8">
<path d="M210.182 209.343L210.166 215.053L215.488 218.096L215.504 212.391L210.182 209.343Z" fill="#1BE7FF"/>
</g>
<g style="mix-blend-mode:screen" opacity="0.8">
<path d="M210.153 219.459L210.133 225.172L215.459 228.216L215.475 222.51L210.153 219.459Z" fill="#1BE7FF"/>
</g>
<g style="mix-blend-mode:screen" opacity="0.8">
<path d="M210.126 229.579L210.109 235.292L215.427 238.34L215.448 232.63L210.126 229.579Z" fill="#1BE7FF"/>
</g>
<g style="mix-blend-mode:screen" opacity="0.8">
<path d="M271.864 214.253L271.844 219.958L277.166 223.01L277.182 217.296L271.864 214.253Z" fill="#F23F93"/>
</g>
<g style="mix-blend-mode:screen" opacity="0.8">
<path d="M263.147 178.858L263.135 184.567L268.453 187.61L268.469 181.905L263.147 178.858Z" fill="#F23F93"/>
</g>
<g style="mix-blend-mode:screen" opacity="0.8">
<path d="M254.407 153.579L254.391 159.292L259.713 162.339L259.729 156.63L254.407 153.579Z" fill="#F23F93"/>
</g>
<g style="mix-blend-mode:screen" opacity="0.8">
<path d="M245.436 209.254L245.416 214.967L250.742 218.011L250.758 212.301L245.436 209.254Z" fill="#F23F93"/>
</g>
<g style="mix-blend-mode:screen" opacity="0.8">
<path d="M227.832 199.179L227.824 204.892L233.142 207.935L233.158 202.23L227.832 199.179Z" fill="#F23F93"/>
</g>
<g style="mix-blend-mode:screen" opacity="0.8">
<path d="M219.13 163.784L219.109 169.493L224.431 172.54L224.448 166.835L219.13 163.784Z" fill="#F23F93"/>
</g>
<g style="mix-blend-mode:screen" opacity="0.8">
<path d="M210.442 118.277L210.43 123.982L215.752 127.029L215.764 121.324L210.442 118.277Z" fill="#F23F93"/>
</g>
<g style="mix-blend-mode:screen" opacity="0.8">
<path d="M201.413 194.188L201.396 199.897L206.718 202.944L206.735 197.235L201.413 194.188Z" fill="#F23F93"/>
</g>
<g style="mix-blend-mode:screen" opacity="0.8">
<path d="M201.385 204.304L201.365 210.013L206.687 213.06L206.703 207.351L201.385 204.304Z" fill="#1BE7FF"/>
</g>
<g style="mix-blend-mode:screen" opacity="0.8">
<path d="M201.354 214.424L201.338 220.133L206.66 223.18L206.68 217.471L201.354 214.424Z" fill="#1BE7FF"/>
</g>
<g style="mix-blend-mode:screen" opacity="0.8">
<path d="M201.329 224.543L201.309 230.252L206.631 233.3L206.651 227.591L201.329 224.543Z" fill="#1BE7FF"/>
</g>
</g>
<path d="M139.61 195.847C139.668 195.846 139.725 195.831 139.776 195.803L212.919 153.915C212.995 153.87 213.051 153.797 213.074 153.711C213.096 153.625 213.084 153.534 213.04 153.457C212.995 153.38 212.921 153.324 212.834 153.301C212.748 153.278 212.656 153.291 212.579 153.335L139.435 195.222C139.397 195.244 139.363 195.274 139.337 195.309C139.31 195.344 139.29 195.384 139.279 195.426C139.267 195.469 139.265 195.513 139.271 195.557C139.277 195.601 139.291 195.643 139.314 195.681C139.344 195.733 139.387 195.775 139.439 195.804C139.491 195.834 139.55 195.848 139.61 195.847V195.847Z" fill="#1BE7FF"/>
<g style="mix-blend-mode:screen">
<g style="mix-blend-mode:screen">
<path d="M183.534 206.085C185.263 206.101 186.971 205.697 188.511 204.908L187.888 203.723C184.186 205.643 179.358 204.847 174.303 201.484C162.083 193.368 153.242 175.681 153.286 159.47C153.283 157.894 153.398 156.319 153.631 154.759L152.294 154.561C152.055 156.186 151.936 157.827 151.938 159.47C151.893 176.107 160.986 194.228 173.554 202.595C177.033 204.912 180.443 206.085 183.534 206.085Z" fill="#1BE7FF"/>
</g>
<g style="mix-blend-mode:screen">
<path d="M194.187 198.371C195.402 195.49 196.05 191.98 196.058 187.935C196.098 172.658 185.997 152.512 174.442 144.822C167.779 140.387 161.481 140.156 157.123 144.181L158.042 145.159C161.89 141.592 167.593 141.876 173.693 145.934C184.729 153.278 194.754 173.295 194.709 187.931C194.709 191.798 194.106 195.133 192.947 197.852L194.187 198.371Z" fill="#1BE7FF"/>
</g>
<g style="mix-blend-mode:screen">
<path d="M154.381 147.245L149.334 152.41L156.94 158.071L154.381 147.245Z" fill="#1BE7FF"/>
</g>
<g style="mix-blend-mode:screen">
<path d="M189.812 193.595L190.894 203.926L197.107 201.35L189.812 193.595Z" fill="#1BE7FF"/>
</g>
</g>
<path d="M326.803 155.441L327.208 155.611L326.803 155.441Z" fill="url(#paint0_linear_324_10823)"/>
<path d="M326.361 155.25L326.746 155.416L326.361 155.25Z" fill="url(#paint1_linear_324_10823)"/>
<path d="M325.405 154.804L325.117 154.666L325.405 154.804Z" fill="url(#paint2_linear_324_10823)"/>
<path d="M324.041 154.119L323.922 154.057L324.041 154.119Z" fill="url(#paint3_linear_324_10823)"/>
<path d="M323.179 153.652L323.08 153.599L323.179 153.652Z" fill="url(#paint4_linear_324_10823)"/>
<path d="M355.942 134.601C355.889 153.672 343.386 162.339 327.226 155.624C331.596 157.437 335.687 158.123 339.356 157.786L333.151 141.909C339.291 141.328 343.435 136.11 343.463 127.455C343.5 114.515 334.318 98.6986 322.965 92.1536L323.009 77.9518C341.235 88.4206 356.003 113.818 355.942 134.601Z" fill="url(#paint5_linear_324_10823)"/>
<path d="M326.295 155.217C326.149 155.153 325.999 155.088 325.857 155.019C325.999 155.088 326.149 155.153 326.295 155.217Z" fill="url(#paint6_linear_324_10823)"/>
<path d="M324.91 154.565L324.748 154.484L324.91 154.565Z" fill="url(#paint7_linear_324_10823)"/>
<path d="M323.491 139.584L323.275 139.466L323.491 139.584Z" fill="url(#paint8_linear_324_10823)"/>
<path d="M322.923 77.8747L322.967 92.1456C311.493 85.5762 302.202 90.8309 302.165 103.807C302.129 116.784 311.359 132.645 322.744 139.166L322.983 139.3L323.271 139.458L323.502 139.584L323.769 139.722C324.822 140.237 324.919 140.278 325.009 140.318C327.965 141.637 330.715 142.136 333.154 141.905L339.359 157.786C335.308 158.16 330.736 157.283 325.859 155.019L325.555 154.877L325.118 154.666L324.911 154.565L324.474 154.346L324.041 154.118L323.567 153.867L323.162 153.652L322.688 153.384C304.421 142.923 289.605 117.478 289.666 96.6577C289.727 75.8378 304.652 67.4141 322.923 77.8747Z" fill="url(#paint9_linear_324_10823)"/>
<path d="M362.591 183.09C360.849 183.041 359.147 182.56 357.637 181.69L287.443 143.954C281.586 140.805 276.839 133.136 276.859 126.855L277.086 51.7473C277.086 47.1987 279.622 44.2528 283.51 44.2528C285.25 44.3025 286.95 44.7834 288.459 45.6527L358.638 83.389C364.498 86.5418 369.249 94.2068 369.229 100.488L369.002 175.595C369.002 180.16 366.479 183.09 362.591 183.09ZM283.522 45.7501C280.501 45.7501 278.617 48.0508 278.609 51.7554L278.378 126.859C278.378 132.645 282.757 139.726 288.176 142.639L358.358 180.375C359.65 181.119 361.102 181.537 362.591 181.593C365.612 181.593 367.492 179.292 367.504 175.591L367.73 100.484C367.73 94.6977 363.356 87.6171 357.933 84.7037L287.751 46.9674C286.46 46.224 285.009 45.8062 283.522 45.7501V45.7501Z" fill="#1483F3"/>
<g style="mix-blend-mode:screen" opacity="0.8">
<g style="mix-blend-mode:screen" opacity="0.8">
<g style="mix-blend-mode:screen" opacity="0.8">
<path d="M359.909 228.755L359.893 233.904L366.13 237.475L367.499 238.254L367.511 233.109L359.909 228.755Z" fill="#F23F93"/>
</g>
<g style="mix-blend-mode:screen" opacity="0.8">
<path d="M357.438 218.193L357.422 223.338L392.404 243.371L399.37 247.36L399.382 242.21L357.438 218.193Z" fill="#F23F93"/>
</g>
<g style="mix-blend-mode:screen" opacity="0.8">
<path d="M409.864 239.066L409.848 244.219L404.117 240.936L527.021 311.309L527.034 306.159L409.864 239.066Z" fill="#1BE7FF"/>
</g>
<g style="mix-blend-mode:screen" opacity="0.8">
<path d="M388.291 226.718L388.279 231.868L404.116 240.936L409.847 244.219L409.863 239.066L388.291 226.718Z" fill="#F23F93"/>
</g>
<g style="mix-blend-mode:screen" opacity="0.8">
<path d="M368.739 206.377L368.723 211.522L404.583 232.054L407.682 233.831L407.694 228.678L368.739 206.377Z" fill="#F23F93"/>
</g>
<g style="mix-blend-mode:screen" opacity="0.8">
<path d="M409.176 220.384L409.164 225.533L418.5 230.881L420.667 232.119L420.683 226.97L409.176 220.384Z" fill="#F23F93"/>
</g>
<g style="mix-blend-mode:screen" opacity="0.8">
<path d="M397.54 204.576L397.523 209.729L414.449 219.419L416.628 220.664L416.641 215.515L397.54 204.576Z" fill="#F23F93"/>
</g>
<g style="mix-blend-mode:screen" opacity="0.8">
<path d="M409.233 202.121L409.217 207.274L426.637 217.252L428.119 218.096L428.131 212.947L409.233 202.121Z" fill="#F23F93"/>
</g>
<g style="mix-blend-mode:screen" opacity="0.8">
<path d="M367.51 233.109L367.498 238.254L366.129 237.475L526.968 329.568L526.984 324.419L367.51 233.109Z" fill="#1BE7FF"/>
</g>
<g style="mix-blend-mode:screen" opacity="0.8">
<path d="M399.383 242.21L399.371 247.36L392.404 243.371L526.993 320.434L527.01 315.289L399.383 242.21Z" fill="#1BE7FF"/>
</g>
<g style="mix-blend-mode:screen" opacity="0.8">
<path d="M407.693 228.678L407.68 233.831L404.582 232.054L527.045 302.179L527.061 297.03L407.693 228.678Z" fill="#1BE7FF"/>
</g>
<g style="mix-blend-mode:screen" opacity="0.8">
<path d="M420.683 226.97L420.667 232.119L418.5 230.881L527.075 293.049L527.087 287.896L420.683 226.97Z" fill="#1BE7FF"/>
</g>
<g style="mix-blend-mode:screen" opacity="0.8">
<path d="M416.64 215.515L416.628 220.664L414.449 219.419L527.098 283.919L527.11 278.766L416.64 215.515Z" fill="#1BE7FF"/>
</g>
<g style="mix-blend-mode:screen" opacity="0.8">
<path d="M428.131 212.947L428.119 218.096L426.637 217.252L527.123 274.79L527.139 269.636L428.131 212.947Z" fill="#1BE7FF"/>
</g>
</g>
<g style="mix-blend-mode:screen" opacity="0.8">
<path d="M513.811 252.862L513.799 258.011L527.148 265.66L527.165 260.506L513.811 252.862Z" fill="#1BE7FF"/>
</g>
<g style="mix-blend-mode:screen" opacity="0.8">
<path d="M576.067 288.508L576.051 293.662L582.118 297.127L582.134 291.982L576.067 288.508Z" fill="#1BE7FF"/>
</g>
<g style="mix-blend-mode:screen" opacity="0.8">
<path d="M576.038 297.638L576.025 302.791L582.089 306.261L582.105 301.111L576.038 297.638Z" fill="#1BE7FF"/>
</g>
<g style="mix-blend-mode:screen" opacity="0.8">
<path d="M576.012 306.768L576 311.917L582.063 315.39L582.079 310.241L576.012 306.768Z" fill="#1BE7FF"/>
</g>
<g style="mix-blend-mode:screen" opacity="0.8">
<path d="M575.989 315.898L575.977 321.047L582.036 324.52L582.052 319.371L575.989 315.898Z" fill="#1BE7FF"/>
</g>
<g style="mix-blend-mode:screen" opacity="0.8">
<path d="M575.964 325.027L575.943 330.181L582.011 333.65L582.027 328.501L575.964 325.027Z" fill="#1BE7FF"/>
</g>
<g style="mix-blend-mode:screen" opacity="0.8">
<path d="M575.936 334.157L575.92 339.307L581.987 342.78L581.999 337.631L575.936 334.157Z" fill="#1BE7FF"/>
</g>
<g style="mix-blend-mode:screen" opacity="0.8">
<path d="M575.907 343.291L575.895 348.436L581.958 351.909L581.974 346.76L575.907 343.291Z" fill="#1BE7FF"/>
</g>
<g style="mix-blend-mode:screen" opacity="0.8">
<path d="M575.883 352.421L575.867 357.566L581.934 361.039L581.947 355.89L575.883 352.421Z" fill="#1BE7FF"/>
</g>
<g style="mix-blend-mode:screen" opacity="0.8">
<path d="M552.577 329.929L552.561 335.074L565.708 342.605L565.72 337.456L552.577 329.929Z" fill="#F23F93"/>
</g>
<g style="mix-blend-mode:screen" opacity="0.8">
<path d="M552.602 320.799L552.59 325.948L565.733 333.48L565.749 328.326L552.602 320.799Z" fill="#F23F93"/>
</g>
<g style="mix-blend-mode:screen" opacity="0.8">
<path d="M552.632 311.666L552.611 316.819L565.758 324.346L565.775 319.197L552.632 311.666Z" fill="#F23F93"/>
</g>
<g style="mix-blend-mode:screen" opacity="0.8">
<path d="M552.651 302.54L552.639 307.689L565.786 315.216L565.802 310.063L552.651 302.54Z" fill="#F23F93"/>
</g>
<g style="mix-blend-mode:screen" opacity="0.8">
<path d="M552.68 293.406L552.668 298.559L565.815 306.086L565.827 300.933L552.68 293.406Z" fill="#F23F93"/>
</g>
<g style="mix-blend-mode:screen" opacity="0.8">
<path d="M552.706 284.276L552.693 289.43L565.84 296.957L565.857 291.807L552.706 284.276Z" fill="#F23F93"/>
</g>
<g style="mix-blend-mode:screen" opacity="0.8">
<path d="M552.733 275.146L552.721 280.296L565.864 287.827L565.88 282.677L552.733 275.146Z" fill="#F23F93"/>
</g>
<g style="mix-blend-mode:screen" opacity="0.8">
<path d="M552.549 339.059L552.537 344.204L565.68 351.735L565.696 346.59L552.549 339.059Z" fill="#F23F93"/>
</g>
<g style="mix-blend-mode:screen" opacity="0.8">
<path d="M535.989 292.996L535.977 298.146L549.12 305.677L549.136 300.523L535.989 292.996Z" fill="#F23F93"/>
</g>
<g style="mix-blend-mode:screen" opacity="0.8">
<path d="M536.016 283.866L536 289.02L549.147 296.543L549.159 291.393L536.016 283.866Z" fill="#F23F93"/>
</g>
<g style="mix-blend-mode:screen" opacity="0.8">
<path d="M536.042 274.737L536.025 279.886L549.172 287.413L549.189 282.26L536.042 274.737Z" fill="#F23F93"/>
</g>
<g style="mix-blend-mode:screen" opacity="0.8">
<path d="M536.071 265.603L536.059 270.756L549.202 278.283L549.218 273.134L536.071 265.603Z" fill="#F23F93"/>
</g>
<g style="mix-blend-mode:screen" opacity="0.8">
<path d="M535.936 311.256L535.924 316.405L549.071 323.936L549.083 318.783L535.936 311.256Z" fill="#F23F93"/>
</g>
<g style="mix-blend-mode:screen" opacity="0.8">
<path d="M535.963 302.126L535.951 307.275L549.094 314.806L549.11 309.653L535.963 302.126Z" fill="#F23F93"/>
</g>
<g style="mix-blend-mode:screen" opacity="0.8">
<path d="M535.911 320.385L535.895 325.535L549.042 333.062L549.058 327.912L535.911 320.385Z" fill="#F23F93"/>
</g>
<g style="mix-blend-mode:screen" opacity="0.8">
<path d="M535.885 329.519L535.869 334.665L549.016 342.192L549.032 337.042L535.885 329.519Z" fill="#F23F93"/>
</g>
</g>
<g style="mix-blend-mode:screen">
<path d="M247.936 341.66L249.588 340.698L260.463 346.983L258.806 347.949L247.936 341.66Z" fill="#F23F93"/>
</g>
<path d="M228.656 352.879L245.469 343.092L256.348 349.381L239.531 359.173L228.656 352.879Z" fill="#1483F3"/>
<path d="M219.836 341.858L231.553 335.042L242.42 341.327L230.711 348.148L219.836 341.858Z" fill="#F23F93"/>
<g style="mix-blend-mode:screen">
<path d="M234.016 333.609L235.668 332.644L246.539 338.933L244.886 339.895L234.016 333.609Z" fill="#F23F93"/>
</g>
<g style="mix-blend-mode:screen">
<path d="M220.09 325.555L221.746 324.589L232.613 330.878L230.961 331.84L220.09 325.555Z" fill="#F23F93"/>
</g>
<path d="M195.275 340L217.629 326.987L228.504 333.277L206.142 346.294L195.275 340Z" fill="white"/>
<path d="M374.116 27.9695C374.995 30.7814 391.649 84.2493 419.547 100.35C447.842 116.398 450.588 78.1425 466.433 87.0045C471.929 90.1776 480.236 104.213 490.224 119.23C500.212 134.248 511.897 150.215 524.056 157.235C535.429 163.796 547.223 162.51 558.458 145.289L558.321 182.891L558.11 241.768L373.711 135.36L373.926 76.483L374.116 27.9695Z" fill="#1483F3"/>
<path d="M374.473 136.309L373.541 136.277L373.618 0L374.554 0.0324613L374.473 136.309Z" fill="#1BE7FF"/>
<path d="M420.582 162.672L419.646 162.639L419.723 26.3627L420.659 26.3951L420.582 162.672Z" fill="#1BE7FF"/>
<path d="M466.676 189.323L465.744 189.29L465.821 52.3845L466.757 52.417L466.676 189.323Z" fill="#1BE7FF"/>
<path d="M512.781 215.844L511.846 215.811L511.923 78.4022L512.862 78.4387L512.781 215.844Z" fill="#1BE7FF"/>
<path d="M558.432 242.044L557.492 242.012L557.573 105.735L558.509 105.767L558.432 242.044Z" fill="#1BE7FF"/>
<path d="M560.135 164.49C561.375 166.551 561.35 168.742 560.135 169.359C558.92 169.976 556.895 168.819 555.639 166.75C554.384 164.68 554.424 162.501 555.639 161.881C556.855 161.26 558.9 162.42 560.135 164.49Z" fill="#1483F3"/>
<path d="M517.272 91.7926C519.775 95.9679 519.755 100.375 517.243 101.637C514.732 102.898 510.67 100.545 508.171 96.3615C505.672 92.1781 505.684 87.7836 508.199 86.5176C510.714 85.2517 514.781 87.6213 517.272 91.7926Z" fill="#1BE7FF"/>
<path d="M376.322 65.3285C377.561 67.3979 377.537 69.5809 376.302 70.1977C375.066 70.8145 373.061 69.658 371.81 67.5927C370.558 65.5273 370.595 63.3443 371.81 62.7235C373.025 62.1027 375.082 63.2591 376.322 65.3285Z" fill="#1483F3"/>
<path d="M376.346 27.4501C377.586 29.5154 377.561 31.6985 376.346 32.3193C375.131 32.9401 373.086 31.7756 371.851 29.7061C370.615 27.6367 370.635 25.4578 371.851 24.8369C373.066 24.2161 375.111 25.3847 376.346 27.4501Z" fill="#F23F93"/>
<path d="M422.485 77.9071C423.724 79.9725 423.7 82.1555 422.485 82.7763C421.269 83.3971 419.244 82.2326 417.985 80.1632C416.725 78.0938 416.77 75.9148 417.985 75.294C419.2 74.6731 421.245 75.8539 422.485 77.9071Z" fill="#1BE7FF"/>
<path d="M468.631 112.974C469.871 115.039 469.846 117.218 468.631 117.843C467.416 118.468 465.391 117.299 464.14 115.238C462.888 113.176 462.904 110.985 464.14 110.369C465.375 109.752 467.396 110.9 468.631 112.974Z" fill="#1BE7FF"/>
<path d="M422.403 99.5589C423.643 101.628 423.619 103.811 422.403 104.428C421.188 105.045 419.131 103.876 417.9 101.847C416.668 99.8186 416.664 97.595 417.9 96.9782C419.135 96.3614 421.168 97.4935 422.403 99.5589Z" fill="#1BE7FF"/>
<path d="M560.623 144.12C561.838 146.19 561.838 148.365 560.623 148.989C559.408 149.614 557.383 148.442 556.123 146.38C554.864 144.319 554.908 142.132 556.123 141.511C557.338 140.89 559.384 142.051 560.623 144.12Z" fill="#F23F93"/>
<path d="M514.11 146.677C515.349 148.746 515.325 150.925 514.11 151.546C512.895 152.167 510.87 151.006 509.614 148.941C508.358 146.875 508.399 144.692 509.614 144.072C510.829 143.451 512.879 144.607 514.11 146.677Z" fill="#F23F93"/>
<path d="M487.271 400.122L481.41 396.742L496.21 370.197L502.07 373.577L487.271 400.122Z" fill="#F0832B"/>
<path d="M499.999 372.547L494.139 369.171L502.75 361.262L508.61 364.638L499.999 372.547Z" fill="#F0832B"/>
<path d="M486.935 406.315L481.078 402.939L468.826 390.522L474.687 393.902L486.935 406.315Z" fill="#F0832B"/>
<path d="M457.859 417.278L451.998 413.902L469.244 384.415L475.105 387.799L457.859 417.278Z" fill="#F0832B"/>
<path d="M457.518 423.251L451.657 419.871L438.562 407.792L444.423 411.167L457.518 423.251Z" fill="#F0832B"/>
<path d="M426.108 442.006L420.239 438.626L417.906 437.222L423.767 440.602L426.108 442.006Z" fill="#F0832B"/>
<path d="M500.001 372.547L508.612 364.638L506.587 375.813L504.517 374.786L486.935 406.314L474.687 393.902L457.518 423.251L444.424 411.167L426.109 442.006L423.768 440.602L444.784 405.223L457.858 417.278L475.104 387.799L487.271 400.122L502.071 373.577L500.001 372.547Z" fill="#F0832B"/>
<path d="M423.767 440.602L417.906 437.222L438.923 401.843L444.784 405.223L423.767 440.602Z" fill="#F0832B"/>
<g style="mix-blend-mode:screen">
<g style="mix-blend-mode:screen">
<path d="M268.18 61.4128L242.542 46.6145L242.453 79.3558L268.087 94.1379L268.18 61.4128ZM267.16 92.5514L243.381 78.8243L243.47 48.2173L267.253 61.9444L267.16 92.5514Z" fill="#1483F3"/>
</g>
<g style="mix-blend-mode:screen">
<path d="M274.289 62.7924L276.805 66.6025L257.752 82.6628L245.379 60.232L247.825 57.3876L258.319 76.3044L274.289 62.7924Z" fill="#F23F93"/>
</g>
</g>
<path d="M179.83 261.285L178.692 258.668C177.772 256.538 174.962 255.674 172.434 256.858C172.434 256.858 172.175 257.005 171.681 257.264C171.187 257.524 170.466 257.909 169.563 258.433C167.014 259.87 164.543 261.44 162.159 263.136C160.512 264.303 158.933 265.563 157.428 266.909C157.023 267.254 156.618 267.66 156.213 268.066C155.808 268.472 155.403 268.877 154.998 269.283C154.163 270.195 153.381 271.154 152.657 272.156C150.99 274.403 149.823 276.982 149.235 279.719C148.667 282.67 148.961 285.721 150.081 288.508C151.113 290.981 152.567 293.255 154.378 295.228C155.98 296.985 157.734 298.597 159.619 300.044C162.823 302.475 166.208 304.657 169.745 306.569C171.264 307.425 172.689 308.127 173.933 308.78L177.201 310.367L180.065 311.694L181.916 308.131L179.267 306.569L176.27 304.731C175.144 303.984 173.84 303.173 172.491 302.219C169.414 300.135 166.501 297.816 163.779 295.285C162.334 293.929 161.014 292.446 159.834 290.854C158.733 289.405 157.899 287.771 157.371 286.029C156.948 284.581 156.968 283.039 157.428 281.602C157.946 280.13 158.767 278.783 159.838 277.65C160.402 277.022 161.001 276.426 161.632 275.865C161.956 275.585 162.309 275.317 162.637 275.053C162.965 274.789 163.281 274.513 163.645 274.27C164.975 273.311 166.355 272.425 167.781 271.616C170.466 270.062 172.928 268.971 174.621 268.192C176.314 267.412 177.347 267.043 177.347 267.043C179.603 265.984 180.757 263.44 179.83 261.285Z" fill="#1483F3"/>
<path d="M183.135 421.328C181.871 422.026 180.834 422.338 179.817 421.734V422.099C179.708 423.04 179.485 423.316 179.109 423.552C178.527 423.863 177.878 424.026 177.219 424.026C176.56 424.026 175.911 423.863 175.33 423.552C175.018 423.382 174.77 423.114 174.625 422.789V422.679C174.178 423.355 173.924 424.14 173.892 424.95C173.86 425.76 174.05 426.564 174.443 427.273V428.526C174.443 428.526 174.661 429.675 176.618 429.703C178.323 429.727 179.506 427.958 179.506 427.958V426.534C180.652 426.072 181.875 426.416 182.248 426.287C184.216 425.589 184.896 425.138 185.419 424.343C187.047 421.9 184.382 420.634 183.135 421.328Z" fill="#1483F3"/>
<path d="M175.072 418.244C175.165 419.745 174.578 422.732 174.578 422.732C175.259 424.683 180.39 424.663 179.815 421.717C179.815 421.717 178.896 420.788 178.896 418.67C178.896 417.238 174.983 416.722 175.072 418.244Z" fill="white"/>
<path d="M188.841 318.754C190.708 344.565 192.77 359.25 178.898 418.488C178.639 419.575 174.969 420.253 175.083 418.488C177.614 377.562 176.893 350.526 175.233 311.179C175.014 305.973 187.618 301.891 188.841 318.754Z" fill="#2E2E2E"/>
<path d="M204.083 432.324C202.823 433.022 201.787 433.334 200.766 432.73V433.091C200.657 434.036 200.434 434.308 200.057 434.544C199.477 434.857 198.827 435.021 198.168 435.021C197.508 435.021 196.859 434.857 196.278 434.544C195.966 434.374 195.719 434.106 195.573 433.781V433.675C195.119 434.353 194.861 435.144 194.828 435.96C194.795 436.776 194.989 437.585 195.387 438.297V439.555C195.387 439.555 195.606 440.699 197.562 440.723C199.271 440.748 200.45 438.979 200.45 438.979V437.554C201.588 437.092 202.807 437.437 203.188 437.307C205.156 436.613 205.833 436.163 206.359 435.367C208 432.892 205.339 431.634 204.083 432.324Z" fill="#1483F3"/>
<path d="M196.162 429.65C196.255 431.156 195.668 434.142 195.668 434.142C196.348 436.09 201.48 436.069 200.905 433.128C200.905 433.128 199.986 432.194 199.986 430.072C199.986 428.644 196.073 428.149 196.162 429.65Z" fill="white"/>
<path d="M210.44 317.557C212.311 343.368 213.733 370.246 199.853 429.48C199.594 430.575 195.928 431.253 196.038 429.508C198.569 388.578 197.852 361.538 196.191 322.179C195.973 316.969 209.221 300.673 210.44 317.557Z" fill="#2E2E2E"/>
<path d="M193.434 339.03C179.056 338.138 177.97 328.261 176.707 322.228C173.062 304.727 212.879 303.83 210.729 320.734C210.51 322.378 207.011 339.878 193.434 339.03Z" fill="#2E2E2E"/>
<path d="M201.634 270.647C210.026 275.844 211.626 295.593 210.403 305.542C209.374 313.873 205.384 321.578 204.947 322.13C192.262 338.259 176.081 331.532 175.251 310.627C174.404 289.563 168.661 269.583 168.503 268.273C165.23 258.741 174.748 253.913 178.738 256.579C184.319 260.316 195.907 267.112 201.634 270.647Z" fill="#1483F3"/>
<path d="M208.174 303.436C208.603 307.454 209.713 329.032 211.414 328.075C213.115 327.117 215.096 290.432 205.509 275.272C202.386 270.366 207.182 294.234 208.174 303.436Z" fill="#1483F3"/>
<path d="M271.82 278.287C271.945 278.223 272.041 278.114 272.088 277.982C272.135 277.851 272.131 277.706 272.076 277.577L271.99 277.378C271.966 277.315 271.928 277.257 271.881 277.209C271.833 277.16 271.776 277.122 271.713 277.097C271.65 277.071 271.582 277.059 271.515 277.061C271.447 277.062 271.38 277.078 271.318 277.106L270.937 277.293L270.832 277.049L271.889 276.538C272.015 276.475 272.111 276.366 272.157 276.234C272.204 276.101 272.198 275.956 272.14 275.828L272.055 275.633C272.03 275.57 271.993 275.513 271.945 275.465C271.897 275.417 271.84 275.379 271.777 275.354C271.714 275.329 271.646 275.317 271.579 275.319C271.511 275.321 271.444 275.337 271.383 275.365L270.33 275.869L270.216 275.609L271.63 274.927C271.755 274.863 271.85 274.754 271.897 274.622C271.943 274.49 271.938 274.345 271.881 274.217L271.8 274.022C271.776 273.959 271.738 273.901 271.69 273.853C271.642 273.805 271.585 273.767 271.522 273.742C271.459 273.717 271.392 273.705 271.324 273.707C271.256 273.709 271.189 273.725 271.128 273.755L269.714 274.432L269.577 274.108L273.578 272.18C273.703 272.116 273.798 272.007 273.845 271.875C273.892 271.743 273.886 271.598 273.829 271.47L273.748 271.275C273.723 271.212 273.685 271.155 273.636 271.107C273.588 271.059 273.531 271.021 273.468 270.995C273.405 270.97 273.337 270.958 273.269 270.959C273.201 270.96 273.134 270.976 273.072 271.003L269.074 272.927L267.191 273.819C266.857 273.985 266.494 274.085 266.122 274.112L268.366 271.271C268.452 271.161 268.496 271.022 268.488 270.882C268.481 270.742 268.423 270.609 268.325 270.508V270.508C268.195 270.381 268.021 270.309 267.839 270.309C267.657 270.309 267.483 270.381 267.353 270.508L264.765 273.755C264.275 274.497 264.295 275.925 264.279 276.433C264.23 277.914 260.775 278.973 260.775 278.973L261.654 281.229C261.654 281.229 264.728 279.281 265.729 279.699C266.272 279.934 267.236 280.369 268.187 280.06L269.969 279.172H270.014L271.82 278.287Z" fill="white"/>
<path d="M203.226 272.148C202.493 271.854 201.696 271.752 200.913 271.852C200.113 271.939 199.342 272.197 198.649 272.606C197.055 273.583 195.853 275.089 195.255 276.863C194.584 278.716 194.584 280.747 195.255 282.6C195.565 283.471 196.042 284.272 196.66 284.958C197.282 285.623 198.043 286.142 198.888 286.48C198.888 286.48 199.892 286.82 201.723 287.291C202.63 287.522 203.708 287.843 204.996 288.103C206.284 288.362 207.693 288.719 209.281 288.959C212.858 289.577 216.474 289.937 220.103 290.034C224.186 290.103 228.269 289.891 232.323 289.401C240.52 288.342 248.366 286.236 254.149 284.447C255.587 283.984 256.916 283.566 258.086 283.193C259.257 282.82 260.253 282.446 261.087 282.15L263.7 281.245L262.865 277.394L260.204 277.8L257.155 278.287L253.189 278.811C247.389 279.537 239.641 280.182 232.063 279.809C228.391 279.606 224.737 279.15 221.128 278.445C218.013 277.818 214.949 276.958 211.962 275.873C210.642 275.439 209.455 274.927 208.394 274.489C207.333 274.051 206.421 273.629 205.668 273.272C204.915 272.915 204.311 272.671 203.902 272.46L203.226 272.148Z" fill="#1483F3"/>
<path d="M196.599 255.154C195.417 258.108 190.998 257.114 188.936 256.169C185.773 254.712 182.687 251.872 182.241 244.199C182.035 240.547 183.27 235.913 191.557 236.659C196.632 237.114 199.791 244.868 199.694 249.92C199.694 250.569 197.984 249.993 197.916 250.642C197.685 252.902 197.332 253.32 196.599 255.154Z" fill="#FFD6D6"/>
<path d="M190.422 265.4C190.422 267.307 188.944 268.504 187.117 268.504C185.291 268.504 183.804 267.315 183.804 265.408L183.784 245.582C183.766 244.687 184.103 243.821 184.721 243.173C185.339 242.525 186.187 242.149 187.081 242.125V242.125C187.525 242.133 187.963 242.229 188.37 242.406C188.777 242.584 189.145 242.84 189.453 243.161C189.761 243.481 190.003 243.859 190.165 244.273C190.327 244.687 190.406 245.129 190.398 245.574L190.422 265.4Z" fill="#FFD6D6"/>
<path d="M196.117 239.966C200.572 237.832 202.391 233.429 201.419 232.046C200.07 230.11 196.222 236.034 194.096 235.584C191.969 235.134 185.185 233.786 181.876 238.83C178.567 243.874 183.031 249.757 183.403 250.626C184.075 252.2 182.783 250.954 186.502 251.291C186.992 251.336 187.413 249.607 186.651 248.191C185.53 246.126 185.914 243.63 187.522 243.375C187.863 243.31 188.216 243.372 188.515 243.549C189.061 249.23 188.11 255.767 189.73 256.992C191.435 258.275 193.46 258.847 196.255 258.591C198.085 258.425 198.28 250.711 197.875 250.703C193.589 250.614 195.623 255.832 190.657 253.787C188.559 252.931 189.584 244.19 190.025 241.025C190.88 240.056 191.734 242.06 196.117 239.966Z" fill="#2E2E2E"/>
<path d="M597.694 215.381L606.661 220.571L606.475 287.543L597.504 282.353L597.694 215.381Z" fill="#1483F3"/>
<path d="M544.645 251.778L544.73 221.605L553.701 226.795L553.616 256.968L544.645 251.778Z" fill="#1483F3"/>
<path d="M531.428 244.138L531.598 184.307L540.569 189.497L540.399 249.327L531.428 244.138Z" fill="url(#paint10_linear_324_10823)"/>
<path d="M518.217 236.493L518.367 182.879L527.338 188.069L527.184 241.683L518.217 236.493Z" fill="#1483F3"/>
<path d="M584.287 274.712L584.482 206.478L593.453 211.668L593.258 279.902L584.287 274.712Z" fill="url(#paint11_linear_324_10823)"/>
<path d="M571.07 267.068L571.248 203.837L580.22 209.027L580.042 272.257L571.07 267.068Z" fill="#1483F3"/>
<path d="M557.857 259.427L558.007 207.566L566.979 212.756L566.833 264.613L557.857 259.427Z" fill="url(#paint12_linear_324_10823)"/>
</g>
<defs>
<linearGradient id="paint0_linear_324_10823" x1="327.212" y1="155.526" x2="326.803" y2="155.526" gradientUnits="userSpaceOnUse">
<stop stop-color="#F23F93"/>
<stop offset="1" stop-color="#F23F93"/>
</linearGradient>
<linearGradient id="paint1_linear_324_10823" x1="326.746" y1="155.335" x2="326.365" y2="155.335" gradientUnits="userSpaceOnUse">
<stop stop-color="#F23F93"/>
<stop offset="1" stop-color="#F23F93"/>
</linearGradient>
<linearGradient id="paint2_linear_324_10823" x1="325.405" y1="154.735" x2="325.117" y2="154.735" gradientUnits="userSpaceOnUse">
<stop stop-color="#F23F93"/>
<stop offset="1" stop-color="#F23F93"/>
</linearGradient>
<linearGradient id="paint3_linear_324_10823" x1="324.041" y1="154.086" x2="323.922" y2="154.086" gradientUnits="userSpaceOnUse">
<stop stop-color="#F23F93"/>
<stop offset="1" stop-color="#F23F93"/>
</linearGradient>
<linearGradient id="paint4_linear_324_10823" x1="323.183" y1="153.624" x2="323.084" y2="153.624" gradientUnits="userSpaceOnUse">
<stop stop-color="#F23F93"/>
<stop offset="1" stop-color="#F23F93"/>
</linearGradient>
<linearGradient id="paint5_linear_324_10823" x1="355.946" y1="117.904" x2="322.969" y2="117.904" gradientUnits="userSpaceOnUse">
<stop stop-color="#F23F93"/>
<stop offset="1" stop-color="#F23F93"/>
</linearGradient>
<linearGradient id="paint6_linear_324_10823" x1="326.295" y1="155.116" x2="325.857" y2="155.116" gradientUnits="userSpaceOnUse">
<stop stop-color="#F23F93"/>
<stop offset="1" stop-color="#F23F93"/>
</linearGradient>
<linearGradient id="paint7_linear_324_10823" x1="324.91" y1="154.524" x2="324.748" y2="154.524" gradientUnits="userSpaceOnUse">
<stop stop-color="#F23F93"/>
<stop offset="1" stop-color="#F23F93"/>
</linearGradient>
<linearGradient id="paint8_linear_324_10823" x1="323.503" y1="139.523" x2="323.292" y2="139.523" gradientUnits="userSpaceOnUse">
<stop stop-color="#F23F93"/>
<stop offset="1" stop-color="#F23F93"/>
</linearGradient>
<linearGradient id="paint9_linear_324_10823" x1="316.811" y1="97.9318" x2="313.726" y2="136.174" gradientUnits="userSpaceOnUse">
<stop stop-color="#F0832B"/>
<stop offset="0.75" stop-color="#F0832B"/>
</linearGradient>
<linearGradient id="paint10_linear_324_10823" x1="531.428" y1="216.817" x2="540.569" y2="216.817" gradientUnits="userSpaceOnUse">
<stop stop-color="#F23F93"/>
<stop offset="1" stop-color="#F23F93"/>
</linearGradient>
<linearGradient id="paint11_linear_324_10823" x1="584.287" y1="243.188" x2="593.453" y2="243.188" gradientUnits="userSpaceOnUse">
<stop stop-color="#F23F93"/>
<stop offset="1" stop-color="#F23F93"/>
</linearGradient>
<linearGradient id="paint12_linear_324_10823" x1="557.861" y1="236.091" x2="566.979" y2="236.091" gradientUnits="userSpaceOnUse">
<stop stop-color="#F23F93"/>
<stop offset="1" stop-color="#F23F93"/>
</linearGradient>
<clipPath id="clip0_324_10823">
<rect width="723" height="486" fill="white"/>
</clipPath>
</defs>
</svg>
