<svg width="45" height="45" viewBox="0 0 45 45" fill="none" xmlns="http://www.w3.org/2000/svg">
<path d="M18.6004 2.8125C9.89555 2.8125 2.8125 9.89555 2.8125 18.6004C2.8125 27.3053 9.89555 34.3884 18.6004 34.3884C27.3053 34.3884 34.3884 27.3053 34.3884 18.6004C34.3884 9.89555 27.3053 2.8125 18.6004 2.8125ZM18.6004 31.5179C11.4786 31.5179 5.68304 25.7237 5.68304 18.6004C5.68304 11.4786 11.4786 5.68304 18.6004 5.68304C25.7237 5.68304 31.5179 11.4786 31.5179 18.6004C31.5179 25.7237 25.7237 31.5179 18.6004 31.5179Z" fill="black"/>
<path d="M42.579 40.5501L33.966 31.9385C33.4048 31.3773 32.4977 31.3773 31.9365 31.9385C31.3753 32.4997 31.3753 33.4068 31.9365 33.9679L40.5496 42.5795C40.8294 42.8594 41.1969 43.0001 41.5643 43.0001C41.9317 43.0001 42.2992 42.8594 42.579 42.5795C43.1402 42.0184 43.1402 41.1113 42.579 40.5501Z" fill="black"/>
<line x1="13.2734" y1="16.3635" x2="13.2734" y2="24.5453" stroke="black" stroke-width="2"/>
<line x1="18.3867" y1="11.25" x2="18.3867" y2="24.5455" stroke="black" stroke-width="2"/>
<line x1="23.5" y1="18.4092" x2="23.5" y2="24.5455" stroke="black" stroke-width="2"/>
</svg>
