<svg width="44" height="44" viewBox="0 0 44 44" fill="none" xmlns="http://www.w3.org/2000/svg">
<path d="M28.4159 1.83325V3.66659H38.6825L21.9076 17.2333L11.9159 10.8166L2.19922 17.5999L3.29922 19.0666L11.9159 13.0166L22.0909 19.4333L40.3325 4.67492V15.5833H42.1659V1.83325H28.4159Z" fill="black"/>
<path d="M3.66732 23.8333H1.83398V42.1666H3.66732V23.8333Z" fill="black"/>
<path d="M10.0833 20.1667H8.25V42.1667H10.0833V20.1667Z" fill="black"/>
<path d="M42.1673 23.8333H40.334V42.1666H42.1673V23.8333Z" fill="black"/>
<path d="M35.7494 20.1667H33.916V42.1667H35.7494V20.1667Z" fill="black"/>
<path d="M29.3333 23.8333H27.5V42.1666H29.3333V23.8333Z" fill="black"/>
<path d="M22.9173 29.3333H21.084V42.1666H22.9173V29.3333Z" fill="black"/>
<path d="M16.4993 23.8333H14.666V42.1666H16.4993V23.8333Z" fill="black"/>
</svg>
