<svg width="51" height="51" viewBox="0 0 51 51" fill="none" xmlns="http://www.w3.org/2000/svg">
<path d="M29.5935 35.5706L37.213 23.3187C37.2379 23.279 37.2587 23.2374 37.275 23.1942C38.5907 21.0485 39.2855 18.5974 39.2855 16.095C39.2855 8.58766 33.1778 2.47998 25.6706 2.47998C18.1634 2.47998 12.0553 8.58766 12.0553 16.095C12.0553 18.5979 12.751 21.05 14.0678 23.1972C14.083 23.2348 14.1008 23.2714 14.1221 23.307L21.4683 35.6011C15.7657 36.4071 12.0156 38.752 12.0156 41.5965C12.0156 45.1209 18.0048 47.881 25.6503 47.881C33.2957 47.881 39.2849 45.1204 39.2849 41.5965C39.2855 38.7388 35.3606 36.3416 29.5935 35.5706ZM15.4364 22.5106C14.2217 20.5774 13.5799 18.359 13.5799 16.095C13.5799 9.42824 19.0035 4.00461 25.6706 4.00461C32.3373 4.00461 37.7608 9.42824 37.7608 16.095C37.7608 18.3601 37.119 20.5784 35.9049 22.5106C35.8795 22.5513 35.8586 22.5935 35.8418 22.6372L27.7919 35.5798C27.6709 35.7653 27.647 35.8075 27.4991 36.0504L25.4663 39.3192L15.5045 22.6478C15.4867 22.6006 15.4638 22.5543 15.4364 22.5106ZM25.6508 46.3564C18.5141 46.3564 13.5408 43.8474 13.5408 41.5965C13.5408 39.5535 17.2862 37.6284 22.3241 37.0322L24.799 41.1747C24.9357 41.4029 25.1807 41.5436 25.4465 41.5457C25.4485 41.5457 25.4511 41.5457 25.4531 41.5457C25.7163 41.5457 25.9613 41.4095 26.1006 41.1859L28.7026 37.0023C33.8207 37.5567 37.7603 39.5306 37.7603 41.5965C37.7608 43.8479 32.7875 46.3564 25.6508 46.3564Z" fill="black" stroke="black" stroke-width="0.5"/>
<path d="M30.602 16.095C30.602 13.3654 28.3812 11.1445 25.6516 11.1445C22.922 11.1445 20.7012 13.3654 20.7012 16.095C20.7012 18.8246 22.922 21.0455 25.6516 21.0455C28.3812 21.0455 30.602 18.8246 30.602 16.095ZM22.2258 16.095C22.2258 14.206 23.7626 12.6692 25.6516 12.6692C27.5406 12.6692 29.0774 14.206 29.0774 16.095C29.0774 17.984 27.5411 19.5209 25.6516 19.5209C23.7621 19.5209 22.2258 17.984 22.2258 16.095Z" fill="black" stroke="black" stroke-width="0.5"/>
</svg>
