<svg width="44" height="44" viewBox="0 0 44 44" fill="none" xmlns="http://www.w3.org/2000/svg">
<path d="M24.0446 14.0464C22.6027 14.0464 21.2055 14.5464 20.091 15.4611C18.9764 16.3758 18.2135 17.6487 17.9322 19.0628C17.651 20.477 17.8687 21.9449 18.5484 23.2165C19.2281 24.4881 20.3277 25.4846 21.6598 26.0364C22.9919 26.5881 24.4741 26.6609 25.8539 26.2424C27.2336 25.8238 28.4256 24.9398 29.2266 23.7409C30.0276 22.542 30.3882 21.1025 30.2468 19.6676C30.1055 18.2327 29.471 16.8912 28.4514 15.8717C27.2823 14.7035 25.6973 14.047 24.0446 14.0464V14.0464ZM24.0446 25.6247C22.9868 25.6251 21.9527 25.3117 21.0731 24.7242C20.1935 24.1367 19.5079 23.3015 19.103 22.3243C18.6982 21.3471 18.5922 20.2718 18.7986 19.2343C19.005 18.1969 19.5145 17.244 20.2626 16.4962C21.0106 15.7484 21.9637 15.2392 23.0012 15.0331C24.0387 14.8271 25.114 14.9333 26.0911 15.3385C27.0681 15.7437 27.9031 16.4296 28.4903 17.3094C29.0775 18.1892 29.3906 19.2234 29.3899 20.2811C29.3874 21.6979 28.8234 23.0558 27.8214 24.0575C26.8195 25.0591 25.4613 25.6227 24.0446 25.6247V25.6247Z" fill="black" stroke="black" stroke-width="0.5"/>
<path d="M32.5323 25.1084C32.959 24.3606 33.2842 23.5592 33.4991 22.7254L36.3969 22.4031C36.5052 22.3912 36.6053 22.3397 36.678 22.2585C36.7506 22.1773 36.7907 22.0721 36.7905 21.9631V18.4397C36.7907 18.3307 36.7506 18.2255 36.678 18.1443C36.6053 18.063 36.5052 18.0115 36.3969 17.9997L33.457 17.6748C33.2356 16.8706 32.9109 16.0985 32.491 15.3777L34.3095 13.1038C34.3775 13.0187 34.4118 12.9116 34.4058 12.8028C34.3998 12.694 34.3538 12.5913 34.2768 12.5143L31.7846 10.0221C31.7074 9.94514 31.6045 9.8993 31.4956 9.89328C31.3868 9.88726 31.2795 9.92148 31.1942 9.98942L28.9237 11.807C28.1828 11.3917 27.3934 11.0695 26.5734 10.8479L26.2485 7.92607C26.2366 7.81774 26.1851 7.71762 26.1039 7.64497C26.0227 7.57231 25.9175 7.53225 25.8085 7.53247H22.2851C22.1761 7.53241 22.0708 7.57252 21.9895 7.64512C21.9082 7.71772 21.8565 7.81774 21.8442 7.92607L21.5202 10.8479C20.6899 11.0703 19.8929 11.402 19.1501 11.8345L16.8444 9.98771C16.7591 9.91976 16.6518 9.88554 16.543 9.89156C16.4341 9.89758 16.3312 9.94342 16.254 10.0204L13.7618 12.5126C13.6848 12.5896 13.6388 12.6923 13.6328 12.8011C13.6268 12.9098 13.6611 13.017 13.7291 13.1021L15.5794 15.4155C15.1523 16.1468 14.8262 16.9325 14.61 17.7513L11.6933 18.0761C11.5849 18.088 11.4847 18.1395 11.4119 18.2207C11.3391 18.3019 11.2988 18.4071 11.2988 18.5161V22.0396C11.2988 22.1485 11.3391 22.2537 11.4119 22.3347C11.4847 22.4158 11.5849 22.4671 11.6933 22.4787L14.61 22.8036C14.8243 23.6227 15.1492 24.4089 15.5759 25.1402L13.7257 27.4545C13.6576 27.5396 13.6233 27.6467 13.6294 27.7555C13.6354 27.8643 13.6813 27.967 13.7584 28.044L16.2505 30.5362C16.3277 30.6133 16.4306 30.6593 16.5395 30.6653C16.6484 30.6713 16.7557 30.637 16.8409 30.5689L19.1458 28.7255C19.8889 29.1575 20.6863 29.4887 21.5168 29.7104L21.8408 32.6322C21.853 32.7406 21.9048 32.8406 21.9861 32.9132C22.0674 32.9858 22.1726 33.0259 22.2816 33.0258H25.8051C25.9141 33.0261 26.0193 32.986 26.1005 32.9133C26.1817 32.8407 26.2332 32.7406 26.2451 32.6322L26.5699 29.7104C27.4163 29.4851 28.2284 29.1463 28.9839 28.7032L31.2492 30.5147C31.3343 30.5828 31.4415 30.6171 31.5502 30.6111C31.659 30.6051 31.7617 30.5591 31.8388 30.4821L34.3309 27.9899C34.4078 27.9128 34.4536 27.8101 34.4596 27.7014C34.4657 27.5926 34.4315 27.4855 34.3636 27.4004L32.5323 25.1084ZM31.4933 29.5772L29.4944 27.9787L29.3938 27.8584C29.3245 27.7761 29.2274 27.7219 29.1209 27.706C29.0144 27.6902 28.9058 27.7138 28.8155 27.7725C27.9635 28.3148 27.0245 28.7064 26.0397 28.9301C25.9423 28.9524 25.8553 29.007 25.7929 29.085C25.7305 29.163 25.6963 29.2598 25.6959 29.3597V29.572L25.4123 32.1407H22.6795L22.3942 29.5772V29.3649C22.3938 29.265 22.3597 29.1681 22.2972 29.0901C22.2348 29.0121 22.1479 28.9575 22.0505 28.9352L21.9697 28.9163C21.0402 28.6942 20.1532 28.322 19.3434 27.8146C19.2648 27.7656 19.1727 27.7425 19.0802 27.7485C18.9878 27.7545 18.8995 27.7893 18.8278 27.8481L16.6003 29.6356L14.6676 27.6977L16.3004 25.6575L16.4663 25.4418C16.5209 25.3705 16.5526 25.2842 16.5572 25.1945C16.5618 25.1047 16.5391 25.0157 16.492 24.9391C15.987 24.1338 15.6204 23.2496 15.4075 22.3232C15.3886 22.2401 15.3461 22.1643 15.2851 22.1048C15.2241 22.0454 15.1473 22.0048 15.0637 21.988L14.7776 21.933L12.19 21.6443V18.9123L14.8025 18.621L15.0483 18.5797C15.1347 18.565 15.2148 18.5252 15.2785 18.4651C15.3423 18.405 15.3869 18.3274 15.4066 18.242C15.6195 17.3123 15.9867 16.4249 16.4929 15.6166C16.5404 15.5399 16.5634 15.4504 16.5586 15.3602C16.5538 15.27 16.5216 15.1835 16.4663 15.1122L14.6702 12.8589L16.602 10.927L18.6216 12.5469L18.8227 12.7188C18.8973 12.7825 18.9909 12.8196 19.089 12.8243C19.187 12.8289 19.2837 12.8009 19.3641 12.7446L19.4268 12.6999C20.238 12.2042 21.124 11.8429 22.0505 11.63C22.1479 11.6077 22.2348 11.5531 22.2972 11.475C22.3597 11.397 22.3938 11.3002 22.3942 11.2003V10.9829L22.6795 8.42192H25.4123L25.6959 10.9837V11.196C25.6963 11.2959 25.7305 11.3927 25.7929 11.4707C25.8553 11.5488 25.9423 11.6034 26.0397 11.6257C26.9926 11.8475 27.9044 12.2184 28.7416 12.7248C28.8235 12.7746 28.9193 12.7966 29.0147 12.7874C29.1101 12.7783 29.2 12.7385 29.2709 12.6741L31.4366 10.9261L33.3684 12.858L31.7442 14.893L31.7382 14.9008L31.593 15.0907C31.526 15.1919 31.5011 15.3151 31.5234 15.4344C31.5374 15.5142 31.5718 15.5891 31.623 15.6518C32.1076 16.4426 32.4643 17.3048 32.6801 18.2068C32.7021 18.3032 32.7559 18.3894 32.8326 18.4517C32.9094 18.514 33.0049 18.5488 33.1038 18.5505H33.3169L35.9053 18.8384V21.5704L33.3272 21.8574L33.1029 21.8789C33.0101 21.888 32.9225 21.9261 32.8527 21.9878C32.7828 22.0495 32.7341 22.1317 32.7136 22.2226C32.4992 23.1845 32.1251 24.1036 31.6067 24.9417C31.5537 25.0272 31.5314 25.1282 31.5436 25.2281C31.5558 25.3279 31.6017 25.4206 31.6737 25.4908L31.819 25.6326L33.4286 27.6453L31.4933 29.5772Z" fill="black" stroke="black" stroke-width="0.5"/>
<path d="M38.5385 9.80554C36.7149 6.16952 32.7592 1.85718 24.2574 1.85718H24.0426C17.7898 1.91046 13.1405 3.62319 10.2152 6.94726C6.38327 11.3017 6.61788 17.228 6.90148 19.5732C6.97978 20.2393 6.85708 20.9136 6.54913 21.5094L3.64702 27.1916C3.52247 27.4358 3.45117 27.7038 3.43784 27.9776C3.42451 28.2515 3.46944 28.5251 3.56967 28.7803C3.66991 29.0355 3.82316 29.2665 4.01929 29.4581C4.21543 29.6497 4.45 29.7975 4.70749 29.8917L7.34062 30.8517C7.65217 30.9658 7.92729 31.1617 8.13715 31.4187C8.347 31.6758 8.48388 31.9845 8.53343 32.3126L9.05937 35.7389C9.21967 36.7594 9.77386 37.6762 10.6029 38.2925C11.4319 38.9087 12.4695 39.1752 13.4929 39.0346L19.0694 38.2509V41.7004C19.0694 41.8178 19.116 41.9304 19.199 42.0134C19.282 42.0964 19.3946 42.143 19.512 42.143C19.6293 42.143 19.7419 42.0964 19.8249 42.0134C19.9079 41.9304 19.9545 41.8178 19.9545 41.7004V37.7413C19.9547 37.678 19.9412 37.6155 19.9149 37.5579C19.8887 37.5004 19.8503 37.4492 19.8024 37.4078C19.7546 37.3664 19.6986 37.3356 19.638 37.3175C19.5774 37.2994 19.5136 37.2945 19.4509 37.303L13.37 38.1563C12.5767 38.2653 11.7724 38.0589 11.1296 37.5813C10.4869 37.1038 10.0571 36.3932 9.93249 35.6023L9.4057 32.176C9.33195 31.6929 9.13012 31.2385 8.8212 30.8599C8.51228 30.4813 8.10755 30.1924 7.64913 30.0232L5.01601 29.0607C4.87614 29.0095 4.74873 28.9292 4.6422 28.8251C4.53567 28.721 4.45244 28.5955 4.39802 28.4568C4.3436 28.3181 4.31922 28.1695 4.3265 28.0208C4.33377 27.872 4.37253 27.7264 4.44022 27.5938L7.33804 21.9141C7.7252 21.1619 7.87957 20.3113 7.78148 19.4709C7.51507 17.2434 7.2839 11.6214 10.8804 7.53421C13.6304 4.4078 18.063 2.79648 24.0503 2.74577C30.5472 2.68819 35.272 5.27062 37.747 10.2052C41.5558 17.7986 39.177 29.4002 34.5674 35.4708C34.5108 35.5487 34.4807 35.6427 34.4814 35.7389V41.7021C34.4814 41.8195 34.528 41.9321 34.611 42.0151C34.694 42.0981 34.8066 42.1447 34.924 42.1447C35.0414 42.1447 35.1539 42.0981 35.2369 42.0151C35.3199 41.9321 35.3666 41.8195 35.3666 41.7021V35.885C40.057 29.5978 42.5982 17.8991 38.5385 9.80554Z" fill="black" stroke="black" stroke-width="0.7"/>
</svg>
