<svg width="43" height="43" viewBox="0 0 43 43" fill="none" xmlns="http://www.w3.org/2000/svg">
<path d="M21.2495 20.0803C26.5002 20.0803 30.7567 15.809 30.7567 10.5401C30.7567 5.27126 26.5002 1 21.2495 1C15.9987 1 11.7422 5.27126 11.7422 10.5401C11.7422 15.809 15.9987 20.0803 21.2495 20.0803Z" stroke="black" stroke-width="2" stroke-linecap="round" stroke-linejoin="round"/>
<path d="M1.06164 41.4815C1.02057 40.9666 1.00001 40.4503 1 39.9338C1 34.6683 3.13335 29.6185 6.93072 25.8953C10.7281 22.172 15.8784 20.0803 21.2487 20.0803C23.9078 20.0803 26.5409 20.5938 28.9976 21.5916C31.4543 22.5893 33.6865 24.0517 35.5668 25.8953C37.4471 27.7388 38.9386 29.9275 39.9562 32.3362C40.9738 34.7449 41.4975 37.3266 41.4975 39.9338V39.9338C41.4975 40.4504 41.4769 40.9668 41.4358 41.4819M1.06164 41.4815H41.4359H1.06164Z" stroke="black" stroke-width="2" stroke-linecap="round" stroke-linejoin="round"/>
</svg>
