<svg width="217" height="80" viewBox="0 0 217 80" fill="none" xmlns="http://www.w3.org/2000/svg">
<path d="M5.39062 15.6562C5.69661 15.6562 5.95703 15.6009 6.17188 15.4902C6.39323 15.373 6.55924 15.2103 6.66992 15.002C6.78711 14.7871 6.84245 14.5299 6.83594 14.2305H9.93164C9.93815 15.0247 9.74284 15.7214 9.3457 16.3203C8.95508 16.9128 8.42122 17.375 7.74414 17.707C7.07357 18.0326 6.3151 18.1953 5.46875 18.1953C4.64193 18.1953 3.91927 18.0618 3.30078 17.7949C2.68229 17.5215 2.16471 17.1439 1.74805 16.6621C1.33789 16.1738 1.02865 15.6042 0.820312 14.9531C0.61849 14.3021 0.517578 13.5957 0.517578 12.834V12.6094C0.517578 11.8477 0.61849 11.1413 0.820312 10.4902C1.02865 9.83268 1.33789 9.26302 1.74805 8.78125C2.16471 8.29297 2.67904 7.91536 3.29102 7.64844C3.90951 7.375 4.62891 7.23828 5.44922 7.23828C6.32812 7.23828 7.10286 7.4043 7.77344 7.73633C8.45052 8.06836 8.98112 8.55013 9.36523 9.18164C9.74935 9.81315 9.93815 10.5781 9.93164 11.4766H6.83594C6.84245 11.1576 6.79362 10.8711 6.68945 10.6172C6.58529 10.3633 6.42253 10.1615 6.20117 10.0117C5.98633 9.85547 5.70964 9.77734 5.37109 9.77734C5.03255 9.77734 4.75911 9.85221 4.55078 10.002C4.34245 10.1517 4.18294 10.36 4.07227 10.627C3.9681 10.8874 3.89648 11.1868 3.85742 11.5254C3.82487 11.8639 3.80859 12.2253 3.80859 12.6094V12.834C3.80859 13.2246 3.82487 13.5924 3.85742 13.9375C3.89648 14.276 3.97135 14.5755 4.08203 14.8359C4.19271 15.0898 4.35221 15.2917 4.56055 15.4414C4.76888 15.5846 5.04557 15.6562 5.39062 15.6562ZM16.4551 18.1953C15.5957 18.1953 14.8275 18.0618 14.1504 17.7949C13.4733 17.5215 12.9004 17.1471 12.4316 16.6719C11.9694 16.1966 11.6146 15.6497 11.3672 15.0312C11.1263 14.4128 11.0059 13.7585 11.0059 13.0684V12.6973C11.0059 11.9225 11.1133 11.2064 11.3281 10.5488C11.543 9.88477 11.862 9.30534 12.2852 8.81055C12.7083 8.31576 13.2389 7.93164 13.877 7.6582C14.515 7.37826 15.2572 7.23828 16.1035 7.23828C16.8522 7.23828 17.5228 7.35872 18.1152 7.59961C18.7077 7.84049 19.209 8.18555 19.6191 8.63477C20.0358 9.08398 20.3516 9.6276 20.5664 10.2656C20.7878 10.9036 20.8984 11.6198 20.8984 12.4141V13.752H12.2656V11.6914H17.6855V11.4375C17.6921 11.0859 17.6302 10.7865 17.5 10.5391C17.3763 10.2917 17.194 10.1029 16.9531 9.97266C16.7122 9.84245 16.4193 9.77734 16.0742 9.77734C15.7161 9.77734 15.4199 9.85547 15.1855 10.0117C14.9577 10.168 14.7786 10.3828 14.6484 10.6562C14.5247 10.9232 14.4368 11.2324 14.3848 11.584C14.3327 11.9355 14.3066 12.3066 14.3066 12.6973V13.0684C14.3066 13.459 14.3587 13.8138 14.4629 14.1328C14.5736 14.4518 14.7298 14.7253 14.9316 14.9531C15.14 15.1745 15.3874 15.347 15.6738 15.4707C15.9668 15.5944 16.2988 15.6562 16.6699 15.6562C17.1191 15.6562 17.5618 15.5716 17.998 15.4023C18.4342 15.2331 18.8086 14.9531 19.1211 14.5625L20.6152 16.3398C20.4004 16.6458 20.0944 16.9421 19.6973 17.2285C19.3066 17.515 18.8379 17.7493 18.291 17.9316C17.7441 18.1074 17.1322 18.1953 16.4551 18.1953ZM25.7129 3V18H22.4121V3H25.7129ZM31.2207 3V18H27.9199V3H31.2207ZM32.8418 12.8242V12.6191C32.8418 11.8444 32.9525 11.1315 33.1738 10.4805C33.3952 9.82292 33.7207 9.25326 34.1504 8.77148C34.5801 8.28971 35.1107 7.91536 35.7422 7.64844C36.3737 7.375 37.1029 7.23828 37.9297 7.23828C38.763 7.23828 39.4954 7.375 40.127 7.64844C40.765 7.91536 41.2988 8.28971 41.7285 8.77148C42.1582 9.25326 42.4837 9.82292 42.7051 10.4805C42.9264 11.1315 43.0371 11.8444 43.0371 12.6191V12.8242C43.0371 13.5924 42.9264 14.3053 42.7051 14.9629C42.4837 15.6139 42.1582 16.1836 41.7285 16.6719C41.2988 17.1536 40.7682 17.528 40.1367 17.7949C39.5052 18.0618 38.776 18.1953 37.9492 18.1953C37.1224 18.1953 36.39 18.0618 35.752 17.7949C35.1139 17.528 34.5801 17.1536 34.1504 16.6719C33.7207 16.1836 33.3952 15.6139 33.1738 14.9629C32.9525 14.3053 32.8418 13.5924 32.8418 12.8242ZM36.1328 12.6191V12.8242C36.1328 13.2214 36.1621 13.5924 36.2207 13.9375C36.2793 14.2826 36.377 14.5853 36.5137 14.8457C36.6504 15.0996 36.8359 15.2982 37.0703 15.4414C37.3047 15.5846 37.5977 15.6562 37.9492 15.6562C38.2943 15.6562 38.5807 15.5846 38.8086 15.4414C39.043 15.2982 39.2285 15.0996 39.3652 14.8457C39.502 14.5853 39.5996 14.2826 39.6582 13.9375C39.7168 13.5924 39.7461 13.2214 39.7461 12.8242V12.6191C39.7461 12.235 39.7168 11.8737 39.6582 11.5352C39.5996 11.1901 39.502 10.8874 39.3652 10.627C39.2285 10.36 39.043 10.1517 38.8086 10.002C38.5742 9.85221 38.2812 9.77734 37.9297 9.77734C37.5846 9.77734 37.2949 9.85221 37.0605 10.002C36.8327 10.1517 36.6504 10.36 36.5137 10.627C36.377 10.8874 36.2793 11.1901 36.2207 11.5352C36.1621 11.8737 36.1328 12.235 36.1328 12.6191ZM50.0391 15.0312C50.0391 14.849 49.9772 14.6927 49.8535 14.5625C49.7363 14.4258 49.528 14.3021 49.2285 14.1914C48.929 14.0742 48.5091 13.957 47.9688 13.8398C47.4544 13.7292 46.9694 13.5827 46.5137 13.4004C46.0645 13.2181 45.6706 12.9967 45.332 12.7363C44.9935 12.4759 44.7266 12.1667 44.5312 11.8086C44.3424 11.4505 44.248 11.0404 44.248 10.5781C44.248 10.1289 44.3424 9.70573 44.5312 9.30859C44.7266 8.90495 45.0098 8.55013 45.3809 8.24414C45.7585 7.93164 46.2174 7.6875 46.7578 7.51172C47.2982 7.32943 47.9134 7.23828 48.6035 7.23828C49.554 7.23828 50.3743 7.38477 51.0645 7.67773C51.7546 7.96419 52.2852 8.36784 52.6562 8.88867C53.0339 9.40299 53.2227 9.9987 53.2227 10.6758H49.9316C49.9316 10.4089 49.8861 10.181 49.7949 9.99219C49.7103 9.80339 49.5703 9.66016 49.375 9.5625C49.1797 9.45833 48.9193 9.40625 48.5938 9.40625C48.3659 9.40625 48.1576 9.44857 47.9688 9.5332C47.7865 9.61784 47.64 9.73503 47.5293 9.88477C47.4186 10.0345 47.3633 10.2103 47.3633 10.4121C47.3633 10.5553 47.3958 10.6855 47.4609 10.8027C47.5326 10.9134 47.64 11.0176 47.7832 11.1152C47.9264 11.2064 48.1087 11.291 48.3301 11.3691C48.5514 11.4408 48.8184 11.5059 49.1309 11.5645C49.8405 11.6947 50.5046 11.8802 51.123 12.1211C51.7415 12.362 52.2428 12.7038 52.627 13.1465C53.0176 13.5892 53.2129 14.1849 53.2129 14.9336C53.2129 15.4023 53.1055 15.8353 52.8906 16.2324C52.6758 16.623 52.3665 16.9681 51.9629 17.2676C51.5592 17.5605 51.0742 17.7884 50.5078 17.9512C49.9414 18.1139 49.3034 18.1953 48.5938 18.1953C47.5846 18.1953 46.7318 18.0163 46.0352 17.6582C45.3385 17.2936 44.8112 16.8379 44.4531 16.291C44.1016 15.7376 43.9258 15.1777 43.9258 14.6113H46.9922C47.0052 14.9368 47.0833 15.2038 47.2266 15.4121C47.3763 15.6204 47.5749 15.7734 47.8223 15.8711C48.0697 15.9688 48.3561 16.0176 48.6816 16.0176C48.9811 16.0176 49.2285 15.9753 49.4238 15.8906C49.6257 15.806 49.7786 15.6921 49.8828 15.5488C49.987 15.3991 50.0391 15.2266 50.0391 15.0312ZM59.2188 15.6562C59.5247 15.6562 59.7852 15.6009 60 15.4902C60.2214 15.373 60.3874 15.2103 60.498 15.002C60.6152 14.7871 60.6706 14.5299 60.6641 14.2305H63.7598C63.7663 15.0247 63.571 15.7214 63.1738 16.3203C62.7832 16.9128 62.2493 17.375 61.5723 17.707C60.9017 18.0326 60.1432 18.1953 59.2969 18.1953C58.4701 18.1953 57.7474 18.0618 57.1289 17.7949C56.5104 17.5215 55.9928 17.1439 55.5762 16.6621C55.166 16.1738 54.8568 15.6042 54.6484 14.9531C54.4466 14.3021 54.3457 13.5957 54.3457 12.834V12.6094C54.3457 11.8477 54.4466 11.1413 54.6484 10.4902C54.8568 9.83268 55.166 9.26302 55.5762 8.78125C55.9928 8.29297 56.5072 7.91536 57.1191 7.64844C57.7376 7.375 58.457 7.23828 59.2773 7.23828C60.1562 7.23828 60.931 7.4043 61.6016 7.73633C62.2786 8.06836 62.8092 8.55013 63.1934 9.18164C63.5775 9.81315 63.7663 10.5781 63.7598 11.4766H60.6641C60.6706 11.1576 60.6217 10.8711 60.5176 10.6172C60.4134 10.3633 60.2507 10.1615 60.0293 10.0117C59.8145 9.85547 59.5378 9.77734 59.1992 9.77734C58.8607 9.77734 58.5872 9.85221 58.3789 10.002C58.1706 10.1517 58.0111 10.36 57.9004 10.627C57.7962 10.8874 57.7246 11.1868 57.6855 11.5254C57.653 11.8639 57.6367 12.2253 57.6367 12.6094V12.834C57.6367 13.2246 57.653 13.5924 57.6855 13.9375C57.7246 14.276 57.7995 14.5755 57.9102 14.8359C58.0208 15.0898 58.1803 15.2917 58.3887 15.4414C58.597 15.5846 58.8737 15.6562 59.2188 15.6562ZM64.7559 12.8242V12.6191C64.7559 11.8444 64.8665 11.1315 65.0879 10.4805C65.3092 9.82292 65.6348 9.25326 66.0645 8.77148C66.4941 8.28971 67.0247 7.91536 67.6562 7.64844C68.2878 7.375 69.0169 7.23828 69.8438 7.23828C70.6771 7.23828 71.4095 7.375 72.041 7.64844C72.679 7.91536 73.2129 8.28971 73.6426 8.77148C74.0723 9.25326 74.3978 9.82292 74.6191 10.4805C74.8405 11.1315 74.9512 11.8444 74.9512 12.6191V12.8242C74.9512 13.5924 74.8405 14.3053 74.6191 14.9629C74.3978 15.6139 74.0723 16.1836 73.6426 16.6719C73.2129 17.1536 72.6823 17.528 72.0508 17.7949C71.4193 18.0618 70.6901 18.1953 69.8633 18.1953C69.0365 18.1953 68.304 18.0618 67.666 17.7949C67.028 17.528 66.4941 17.1536 66.0645 16.6719C65.6348 16.1836 65.3092 15.6139 65.0879 14.9629C64.8665 14.3053 64.7559 13.5924 64.7559 12.8242ZM68.0469 12.6191V12.8242C68.0469 13.2214 68.0762 13.5924 68.1348 13.9375C68.1934 14.2826 68.291 14.5853 68.4277 14.8457C68.5645 15.0996 68.75 15.2982 68.9844 15.4414C69.2188 15.5846 69.5117 15.6562 69.8633 15.6562C70.2083 15.6562 70.4948 15.5846 70.7227 15.4414C70.957 15.2982 71.1426 15.0996 71.2793 14.8457C71.416 14.5853 71.5137 14.2826 71.5723 13.9375C71.6309 13.5924 71.6602 13.2214 71.6602 12.8242V12.6191C71.6602 12.235 71.6309 11.8737 71.5723 11.5352C71.5137 11.1901 71.416 10.8874 71.2793 10.627C71.1426 10.36 70.957 10.1517 70.7227 10.002C70.4883 9.85221 70.1953 9.77734 69.8438 9.77734C69.4987 9.77734 69.209 9.85221 68.9746 10.002C68.7467 10.1517 68.5645 10.36 68.4277 10.627C68.291 10.8874 68.1934 11.1901 68.1348 11.5352C68.0762 11.8737 68.0469 12.235 68.0469 12.6191ZM79.7363 9.46484V22.0625H76.4453V7.43359H79.5117L79.7363 9.46484ZM86.2207 12.5898V12.7949C86.2207 13.5632 86.1328 14.276 85.957 14.9336C85.7812 15.5911 85.5208 16.1641 85.1758 16.6523C84.8307 17.1406 84.401 17.5215 83.8867 17.7949C83.3789 18.0618 82.7897 18.1953 82.1191 18.1953C81.4876 18.1953 80.944 18.0553 80.4883 17.7754C80.0326 17.4954 79.6517 17.1081 79.3457 16.6133C79.0397 16.1185 78.7923 15.5521 78.6035 14.9141C78.4147 14.276 78.265 13.6022 78.1543 12.8926V12.6289C78.265 11.8672 78.4147 11.1608 78.6035 10.5098C78.7923 9.85221 79.0397 9.2793 79.3457 8.79102C79.6517 8.30273 80.0293 7.92188 80.4785 7.64844C80.9342 7.375 81.4779 7.23828 82.1094 7.23828C82.7799 7.23828 83.3691 7.36523 83.877 7.61914C84.3913 7.87305 84.821 8.23763 85.166 8.71289C85.5176 9.18164 85.7812 9.74479 85.957 10.4023C86.1328 11.0599 86.2207 11.7891 86.2207 12.5898ZM82.9297 12.7949V12.5898C82.9297 12.1797 82.9004 11.8053 82.8418 11.4668C82.7832 11.1217 82.6888 10.8223 82.5586 10.5684C82.4349 10.3145 82.2689 10.1191 82.0605 9.98242C81.8522 9.8457 81.5951 9.77734 81.2891 9.77734C80.9375 9.77734 80.6413 9.83268 80.4004 9.94336C80.166 10.0475 79.9772 10.2103 79.834 10.4316C79.6973 10.6465 79.5996 10.9167 79.541 11.2422C79.4889 11.5612 79.4661 11.9355 79.4727 12.3652V13.166C79.4596 13.6608 79.5085 14.097 79.6191 14.4746C79.7298 14.8457 79.9219 15.1354 80.1953 15.3438C80.4688 15.5521 80.8398 15.6562 81.3086 15.6562C81.6211 15.6562 81.8815 15.5846 82.0898 15.4414C82.2982 15.2917 82.4642 15.0866 82.5879 14.8262C82.7116 14.5592 82.7995 14.2533 82.8516 13.9082C82.9036 13.5632 82.9297 13.1921 82.9297 12.7949ZM92.8027 18.1953C91.9434 18.1953 91.1751 18.0618 90.498 17.7949C89.821 17.5215 89.248 17.1471 88.7793 16.6719C88.3171 16.1966 87.9622 15.6497 87.7148 15.0312C87.474 14.4128 87.3535 13.7585 87.3535 13.0684V12.6973C87.3535 11.9225 87.4609 11.2064 87.6758 10.5488C87.8906 9.88477 88.2096 9.30534 88.6328 8.81055C89.056 8.31576 89.5866 7.93164 90.2246 7.6582C90.8626 7.37826 91.6048 7.23828 92.4512 7.23828C93.1999 7.23828 93.8704 7.35872 94.4629 7.59961C95.0553 7.84049 95.5566 8.18555 95.9668 8.63477C96.3835 9.08398 96.6992 9.6276 96.9141 10.2656C97.1354 10.9036 97.2461 11.6198 97.2461 12.4141V13.752H88.6133V11.6914H94.0332V11.4375C94.0397 11.0859 93.9779 10.7865 93.8477 10.5391C93.724 10.2917 93.5417 10.1029 93.3008 9.97266C93.0599 9.84245 92.7669 9.77734 92.4219 9.77734C92.0638 9.77734 91.7676 9.85547 91.5332 10.0117C91.3053 10.168 91.1263 10.3828 90.9961 10.6562C90.8724 10.9232 90.7845 11.2324 90.7324 11.584C90.6803 11.9355 90.6543 12.3066 90.6543 12.6973V13.0684C90.6543 13.459 90.7064 13.8138 90.8105 14.1328C90.9212 14.4518 91.0775 14.7253 91.2793 14.9531C91.4876 15.1745 91.735 15.347 92.0215 15.4707C92.3145 15.5944 92.6465 15.6562 93.0176 15.6562C93.4668 15.6562 93.9095 15.5716 94.3457 15.4023C94.7819 15.2331 95.1562 14.9531 95.4688 14.5625L96.9629 16.3398C96.748 16.6458 96.4421 16.9421 96.0449 17.2285C95.6543 17.515 95.1855 17.7493 94.6387 17.9316C94.0918 18.1074 93.4798 18.1953 92.8027 18.1953Z" fill="#007CC3"/>
<path d="M12.4219 34.1406L2.30469 61.3672H0.625L11.3086 32.9297H12.6172L12.4219 34.1406ZM21.9922 61.3672L11.8945 34.1406L11.6992 32.9297H12.9883L23.6914 61.3672H21.9922ZM19.4922 51.6211V53.0859H4.90234V51.6211H19.4922ZM30.9211 44.7461V61.3672H29.3781V40.2344H30.9016L30.9211 44.7461ZM30.6281 49.1797L29.8664 48.2812C29.9836 47.1615 30.257 46.0938 30.6867 45.0781C31.1294 44.0625 31.7089 43.1641 32.425 42.3828C33.1542 41.6016 34.0005 40.9831 34.9641 40.5273C35.9406 40.0716 37.0148 39.8438 38.1867 39.8438C39.2414 39.8438 40.1854 39.9935 41.0187 40.293C41.8521 40.5794 42.5552 41.0352 43.1281 41.6602C43.7141 42.2852 44.1568 43.0924 44.4562 44.082C44.7557 45.0586 44.9055 46.25 44.9055 47.6562V61.3672H43.3625V47.6562C43.3625 45.9896 43.1346 44.7005 42.6789 43.7891C42.2232 42.8646 41.5852 42.2135 40.7648 41.8359C39.9576 41.4583 39.0135 41.2695 37.9328 41.2695C36.6828 41.2695 35.6021 41.5495 34.6906 42.1094C33.7922 42.6562 33.05 43.3529 32.4641 44.1992C31.8781 45.0326 31.4289 45.8984 31.1164 46.7969C30.8169 47.6953 30.6542 48.4896 30.6281 49.1797ZM66.2367 57.4805V46.5625C66.2367 45.4557 66.0023 44.5052 65.5336 43.7109C65.0648 42.9167 64.3812 42.3112 63.4828 41.8945C62.5844 41.4648 61.4841 41.25 60.182 41.25C58.9711 41.25 57.8839 41.4648 56.9203 41.8945C55.9698 42.3112 55.2211 42.8841 54.6742 43.6133C54.1273 44.3424 53.8539 45.1562 53.8539 46.0547L52.2914 46.0352C52.2914 45.2279 52.4802 44.4531 52.8578 43.7109C53.2484 42.9688 53.7953 42.3112 54.4984 41.7383C55.2146 41.1523 56.0544 40.6901 57.018 40.3516C57.9945 40.013 59.0622 39.8438 60.2211 39.8438C61.7055 39.8438 63.0141 40.0977 64.1469 40.6055C65.2927 41.1003 66.1846 41.849 66.8227 42.8516C67.4607 43.8542 67.7797 45.1042 67.7797 46.6016V57.0312C67.7797 57.7865 67.8318 58.5482 67.9359 59.3164C68.0401 60.0846 68.1833 60.7031 68.3656 61.1719V61.3672H66.6664C66.5232 60.8724 66.4125 60.2669 66.3344 59.5508C66.2693 58.8346 66.2367 58.1445 66.2367 57.4805ZM66.7445 49.375L66.7836 50.7227H61.6273C60.3253 50.7227 59.1599 50.8464 58.1312 51.0938C57.1026 51.3411 56.2302 51.6927 55.5141 52.1484C54.7979 52.6042 54.251 53.1445 53.8734 53.7695C53.4958 54.3945 53.307 55.0977 53.307 55.8789C53.307 56.6862 53.5219 57.4284 53.9516 58.1055C54.3812 58.7826 54.9867 59.3229 55.768 59.7266C56.5492 60.1172 57.4542 60.3125 58.4828 60.3125C59.8891 60.3125 61.1326 60.0716 62.2133 59.5898C63.307 59.0951 64.225 58.431 64.9672 57.5977C65.7094 56.7513 66.2497 55.7747 66.5883 54.668L67.2719 55.8008C67.0505 56.4909 66.7055 57.1875 66.2367 57.8906C65.768 58.5938 65.1625 59.2383 64.4203 59.8242C63.6781 60.3971 62.8057 60.8659 61.8031 61.2305C60.8005 61.582 59.6612 61.7578 58.3852 61.7578C57.044 61.7578 55.8721 61.5104 54.8695 61.0156C53.8799 60.5078 53.1117 59.8177 52.5648 58.9453C52.018 58.0599 51.7445 57.0508 51.7445 55.918C51.7445 54.9414 51.9659 54.0495 52.4086 53.2422C52.8513 52.4349 53.4893 51.7448 54.3227 51.1719C55.169 50.5859 56.1911 50.1432 57.3891 49.8438C58.6 49.5312 59.9607 49.375 61.4711 49.375H66.7445ZM77.9977 31.3672V61.3672H76.4352V31.3672H77.9977ZM93.0008 59.2969L100.032 40.2344H101.731L92.5125 64.8242C92.3432 65.293 92.1284 65.8138 91.868 66.3867C91.6075 66.9727 91.269 67.5326 90.8523 68.0664C90.4357 68.6003 89.8953 69.0365 89.2312 69.375C88.5802 69.7266 87.7729 69.9023 86.8094 69.9023C86.588 69.9023 86.295 69.8763 85.9305 69.8242C85.5789 69.7852 85.3185 69.7331 85.1492 69.668L85.1297 68.3008C85.312 68.3398 85.5529 68.3724 85.8523 68.3984C86.1518 68.4375 86.3602 68.457 86.4773 68.457C87.3367 68.457 88.0529 68.2878 88.6258 67.9492C89.2117 67.6237 89.7 67.1549 90.0906 66.543C90.4812 65.944 90.8263 65.2344 91.1258 64.4141L93.0008 59.2969ZM85.7547 40.2344L93.2547 59.4336L93.7039 61.0352L92.5125 61.7773L84.0555 40.2344H85.7547ZM114.898 40.2344V41.6406H104.781V40.2344H114.898ZM108.688 34.6484H110.25V56.2695C110.25 57.4023 110.387 58.2617 110.66 58.8477C110.947 59.4206 111.318 59.8112 111.773 60.0195C112.242 60.2148 112.743 60.3125 113.277 60.3125C113.655 60.3125 114 60.293 114.312 60.2539C114.638 60.2148 114.964 60.1693 115.289 60.1172L115.426 61.4844C115.139 61.5755 114.768 61.6406 114.312 61.6797C113.857 61.7318 113.453 61.7578 113.102 61.7578C112.216 61.7578 111.441 61.5951 110.777 61.2695C110.113 60.944 109.599 60.3841 109.234 59.5898C108.87 58.7826 108.688 57.6758 108.688 56.2695V34.6484ZM123.749 40.2344V61.3672H122.187V40.2344H123.749ZM121.698 33.8281C121.698 33.4766 121.816 33.1771 122.05 32.9297C122.297 32.6693 122.61 32.5391 122.988 32.5391C123.352 32.5391 123.658 32.6693 123.905 32.9297C124.153 33.1771 124.277 33.4766 124.277 33.8281C124.277 34.1797 124.153 34.4792 123.905 34.7266C123.658 34.9609 123.352 35.0781 122.988 35.0781C122.61 35.0781 122.297 34.9609 122.05 34.7266C121.816 34.4792 121.698 34.1797 121.698 33.8281ZM139.709 60.332C140.764 60.332 141.76 60.1367 142.698 59.7461C143.648 59.3555 144.436 58.763 145.061 57.9688C145.699 57.1615 146.057 56.1393 146.135 54.9023H147.659C147.593 56.3086 147.19 57.526 146.448 58.5547C145.705 59.5703 144.748 60.3581 143.577 60.918C142.405 61.4779 141.116 61.7578 139.709 61.7578C138.303 61.7578 137.047 61.4974 135.94 60.9766C134.846 60.4557 133.928 59.7201 133.186 58.7695C132.444 57.819 131.877 56.7057 131.487 55.4297C131.109 54.1406 130.92 52.7344 130.92 51.2109V50.3906C130.92 48.8672 131.109 47.4674 131.487 46.1914C131.877 44.9023 132.444 43.7826 133.186 42.832C133.928 41.8815 134.84 41.1458 135.92 40.625C137.014 40.1042 138.264 39.8438 139.67 39.8438C141.09 39.8438 142.392 40.1367 143.577 40.7227C144.761 41.2956 145.718 42.1354 146.448 43.2422C147.19 44.3359 147.593 45.6771 147.659 47.2656H146.135C146.07 45.9635 145.738 44.8698 145.139 43.9844C144.54 43.099 143.759 42.4284 142.795 41.9727C141.832 41.5039 140.79 41.2695 139.67 41.2695C138.42 41.2695 137.34 41.5104 136.428 41.9922C135.517 42.474 134.768 43.138 134.182 43.9844C133.596 44.8177 133.166 45.7878 132.893 46.8945C132.62 47.9883 132.483 49.1536 132.483 50.3906V51.2109C132.483 52.4609 132.62 53.6393 132.893 54.7461C133.166 55.8398 133.596 56.8034 134.182 57.6367C134.768 58.4701 135.517 59.1276 136.428 59.6094C137.353 60.0911 138.446 60.332 139.709 60.332ZM167.408 56.1133C167.408 55.4883 167.239 54.8698 166.9 54.2578C166.574 53.6458 165.969 53.0729 165.084 52.5391C164.211 52.0052 162.942 51.556 161.275 51.1914C160.09 50.931 159.042 50.6445 158.13 50.332C157.232 50.0195 156.477 49.6419 155.865 49.1992C155.253 48.7435 154.791 48.2031 154.478 47.5781C154.179 46.9531 154.029 46.2044 154.029 45.332C154.029 44.5768 154.192 43.8672 154.517 43.2031C154.843 42.5391 155.318 41.9596 155.943 41.4648C156.581 40.957 157.343 40.5599 158.228 40.2734C159.114 39.987 160.116 39.8438 161.236 39.8438C162.837 39.8438 164.205 40.1107 165.337 40.6445C166.483 41.1654 167.362 41.888 167.974 42.8125C168.586 43.724 168.892 44.7852 168.892 45.9961H167.33C167.33 45.1758 167.095 44.4076 166.627 43.6914C166.158 42.9753 165.468 42.3958 164.556 41.9531C163.658 41.4974 162.551 41.2695 161.236 41.2695C159.908 41.2695 158.827 41.4714 157.994 41.875C157.16 42.2786 156.548 42.793 156.158 43.418C155.78 44.0299 155.591 44.6549 155.591 45.293C155.591 45.8008 155.663 46.276 155.806 46.7188C155.962 47.1484 156.255 47.5456 156.685 47.9102C157.115 48.2747 157.733 48.6263 158.541 48.9648C159.348 49.2904 160.396 49.5964 161.685 49.8828C163.378 50.2604 164.758 50.7227 165.826 51.2695C166.893 51.8034 167.681 52.4609 168.189 53.2422C168.697 54.0104 168.951 54.9544 168.951 56.0742C168.951 56.9076 168.775 57.6758 168.423 58.3789C168.072 59.069 167.564 59.668 166.9 60.1758C166.249 60.6836 165.455 61.0742 164.517 61.3477C163.58 61.6211 162.538 61.7578 161.392 61.7578C159.66 61.7578 158.189 61.4844 156.978 60.9375C155.78 60.3776 154.869 59.6419 154.244 58.7305C153.632 57.819 153.326 56.8359 153.326 55.7812H154.888C154.979 56.9401 155.357 57.8516 156.021 58.5156C156.698 59.1797 157.518 59.6484 158.482 59.9219C159.459 60.1953 160.429 60.332 161.392 60.332C162.707 60.332 163.808 60.1302 164.693 59.7266C165.591 59.3099 166.268 58.7826 166.724 58.1445C167.18 57.4935 167.408 56.8164 167.408 56.1133Z" fill="white"/>
<rect x="185" y="45.9648" width="7.97643" height="15.9529" fill="#FFA800"/>
<rect x="196.965" y="34" width="7.97643" height="27.9175" fill="#2CC786"/>
<rect x="208.929" y="49.9531" width="7.97643" height="11.9646" fill="#EF7070"/>
</svg>
