<svg width="63" height="64" viewBox="0 0 63 64" fill="none" xmlns="http://www.w3.org/2000/svg">
<g clip-path="url(#clip0_208_194)">
<path d="M30.2882 22.1026C30.2882 26.0328 30.3019 29.9492 30.2745 33.8794C30.2745 34.2492 30.1239 34.797 29.8774 34.9202C29.5761 35.0708 29.0421 34.975 28.6998 34.7833C24.838 32.7018 21.0037 32.7018 17.1693 34.838C16.2791 35.331 15.6356 35.0708 15.663 34.1533C15.841 27.3337 17.6349 21.0618 22.1402 15.7622C24.2629 13.2699 26.7825 11.2705 29.6035 9.6135C30.1787 9.28487 30.2882 9.35332 30.2882 10.0517C30.2882 14.0641 30.2882 18.0902 30.2882 22.1026Z" fill="white"/>
<path d="M32.0674 9.2572C32.4508 9.43525 32.6973 9.51738 32.9164 9.65436C40.4619 14.2556 44.9535 20.8972 46.2133 29.6615C46.4188 31.1541 46.5147 32.6467 46.6105 34.1531C46.6652 35.0159 46.0765 35.3582 45.3233 34.92C41.3657 32.6056 37.4218 32.633 33.4642 34.9063C32.6425 35.3719 32.0811 35.0021 32.0811 34.0024C32.0811 26.7993 32.0811 19.5825 32.0811 12.3795C32.0674 11.3935 32.0674 10.3938 32.0674 9.2572Z" fill="white"/>
<path d="M25.6584 9.57257C25.4256 9.81906 25.1928 10.0792 24.9463 10.312C21.9199 13.1056 19.2495 16.1594 17.2913 19.8021C15.114 23.8418 14.0732 28.1691 14.0184 32.7293C14.0184 33.1401 14.0321 33.5509 14.0184 33.9617C13.991 34.8108 13.4158 35.1668 12.6764 34.7423C11.4165 34.0302 10.0882 33.5098 8.65031 33.277C6.17168 32.8936 3.84369 33.2907 1.62524 34.4547C1.50199 34.5232 1.37875 34.6327 1.26919 34.6327C0.926844 34.6327 0.502325 34.6875 0.269526 34.5095C0.0641144 34.3589 -0.0317442 33.907 0.00933811 33.6194C0.789901 28.9771 2.66599 24.8141 5.55545 21.1167C10.499 14.8037 16.9764 10.9557 24.8093 9.35346C25.0421 9.3124 25.2886 9.31239 25.5214 9.29871C25.5625 9.42191 25.6173 9.49035 25.6584 9.57257Z" fill="white"/>
<path d="M48.1862 32.2772C47.9945 24.8276 45.1325 18.5283 40.093 13.1328C39.107 12.0784 38.0389 11.1197 37.0392 10.0927C36.8749 9.91468 36.7927 9.66819 36.6694 9.44908C36.9022 9.43539 37.1487 9.35326 37.3815 9.39433C42.1745 10.3118 46.5703 12.2016 50.4868 15.1322C56.4164 19.5691 60.3877 25.3205 62.0173 32.6058C62.0994 32.9893 62.2227 33.3727 62.2227 33.7424C62.2227 34.0437 62.1405 34.4819 61.9213 34.6189C61.7022 34.7695 61.2641 34.7284 60.9765 34.6325C60.0179 34.2765 59.1141 33.7424 58.1418 33.4822C55.2797 32.7291 52.4998 33.0851 49.9664 34.5915C48.775 35.3036 48.0356 34.6325 48.1999 33.4959C48.241 33.0989 48.1862 32.688 48.1862 32.2772Z" fill="white"/>
<path d="M29.7942 55.3516C29.7942 54.2972 29.7942 53.2564 29.7942 52.202C29.7942 51.3667 29.9721 51.1886 30.7801 51.1749C31.2594 51.1749 31.7387 51.1749 32.218 51.1749C32.8206 51.1612 33.0807 51.4352 33.0671 52.0514C33.0534 53.9959 33.0534 55.9268 33.0671 57.8714C33.0671 58.2138 33.0944 58.5561 33.1629 58.8847C33.382 59.8434 34.2447 60.4596 35.1759 60.3637C36.1619 60.2678 36.9561 59.501 36.9972 58.5561C37.0383 57.8303 36.9972 57.0908 37.011 56.3651C37.0383 55.2558 37.7094 54.5437 38.7227 54.5574C39.6265 54.5711 40.2839 55.3106 40.2839 56.3514C40.2701 57.3236 40.3249 58.3233 40.1606 59.2819C39.6539 62.0755 37.2575 63.8284 34.409 63.6092C31.8894 63.4038 29.8763 61.1579 29.7942 58.4328C29.7805 57.4058 29.7942 56.3787 29.7942 55.3516Z" fill="white"/>
<path d="M32.6017 49.5455C31.8759 49.5455 31.1775 49.5729 30.4791 49.5181C30.3285 49.5045 30.1094 49.1757 30.1094 48.984C30.082 47.2723 30.0957 45.5605 30.0957 43.8487C30.0957 41.6988 30.0957 39.5625 30.0957 37.3578C30.9447 37.3578 31.7527 37.3578 32.6154 37.3578C32.6017 41.3838 32.6017 45.4236 32.6017 49.5455Z" fill="white"/>
<path d="M33.1631 7.64149C31.8622 6.79245 30.6845 6.77876 29.4384 7.6141C29.4109 7.39499 29.3699 7.23067 29.3699 7.06634C29.3699 5.39565 29.3562 3.73868 29.3699 2.06799C29.3699 0.780747 30.0683 0.0275717 31.2323 0.00018354C32.4373 -0.0135106 33.1494 0.739665 33.1631 2.06799C33.1631 3.88931 33.1631 5.69692 33.1631 7.64149Z" fill="white"/>
</g>
<defs>
<clipPath id="clip0_208_194">
<rect width="62.2222" height="64" fill="white"/>
</clipPath>
</defs>
</svg>
