<svg width="63" height="64" viewBox="0 0 63 64" fill="none" xmlns="http://www.w3.org/2000/svg">
<g clip-path="url(#clip0_208_186)">
<path d="M30.2887 22.1026C30.2887 26.0328 30.3024 29.9492 30.275 33.8794C30.275 34.2492 30.1244 34.797 29.8778 34.9202C29.5766 35.0708 29.0425 34.975 28.7001 34.7833C24.8385 32.7018 21.0041 32.7018 17.1698 34.838C16.2796 35.331 15.6361 35.0708 15.6634 34.1533C15.8414 27.3337 17.6354 21.0618 22.1407 15.7622C24.2633 13.2699 26.783 11.2705 29.604 9.6135C30.1792 9.28487 30.2887 9.35332 30.2887 10.0517C30.2887 14.0641 30.2887 18.0902 30.2887 22.1026Z" fill="#007CC3"/>
<path d="M32.0669 9.25732C32.4504 9.43537 32.6969 9.5175 32.916 9.65448C40.4614 14.2557 44.953 20.8973 46.2129 29.6616C46.4183 31.1542 46.5142 32.6468 46.61 34.1532C46.6648 35.016 46.076 35.3583 45.3228 34.9201C41.3652 32.6058 37.4213 32.6331 33.4637 34.9064C32.642 35.372 32.0806 35.0022 32.0806 34.0026C32.0806 26.7995 32.0806 19.5827 32.0806 12.3796C32.0669 11.3936 32.0669 10.3939 32.0669 9.25732Z" fill="#007CC3"/>
<path d="M25.6584 9.5727C25.4256 9.81918 25.1928 10.0794 24.9463 10.3122C21.9199 13.1058 19.2495 16.1595 17.2913 19.8022C15.114 23.8419 14.0732 28.1692 14.0184 32.7294C14.0184 33.1403 14.0321 33.551 14.0184 33.9619C13.991 34.8109 13.4158 35.1669 12.6764 34.7424C11.4165 34.0303 10.0882 33.5099 8.65031 33.2771C6.17168 32.8938 3.84369 33.2908 1.62524 34.4548C1.50199 34.5234 1.37875 34.6329 1.26919 34.6329C0.926844 34.6329 0.502325 34.6876 0.269526 34.5096C0.0641144 34.359 -0.0317442 33.9071 0.00933811 33.6195C0.789901 28.9772 2.66599 24.8142 5.55545 21.1168C10.499 14.8038 16.9764 10.9558 24.8093 9.35358C25.0421 9.31252 25.2886 9.31252 25.5214 9.29883C25.5625 9.42203 25.6173 9.49047 25.6584 9.5727Z" fill="#007CC3"/>
<path d="M48.1862 32.277C47.9945 24.8274 45.1325 18.5282 40.093 13.1327C39.107 12.0783 38.0389 11.1196 37.0392 10.0926C36.8749 9.91456 36.7927 9.66807 36.6694 9.44896C36.9022 9.43527 37.1487 9.35314 37.3815 9.3942C42.1745 10.3117 46.5703 12.2015 50.4868 15.1321C56.4164 19.569 60.3877 25.3204 62.0173 32.6057C62.0994 32.9891 62.2227 33.3726 62.2227 33.7423C62.2227 34.0436 62.1405 34.4818 61.9213 34.6187C61.7022 34.7694 61.2641 34.7282 60.9765 34.6324C60.0179 34.2764 59.1141 33.7423 58.1418 33.4821C55.2797 32.729 52.4998 33.085 49.9664 34.5914C48.775 35.3034 48.0356 34.6324 48.1999 33.4958C48.241 33.0987 48.1862 32.6879 48.1862 32.277Z" fill="#007CC3"/>
<path d="M29.7942 55.3516C29.7942 54.2972 29.7942 53.2564 29.7942 52.202C29.7942 51.3667 29.9721 51.1886 30.7801 51.1749C31.2594 51.1749 31.7387 51.1749 32.218 51.1749C32.8206 51.1612 33.0807 51.4352 33.0671 52.0514C33.0534 53.9959 33.0534 55.9268 33.0671 57.8714C33.0671 58.2138 33.0944 58.5561 33.1629 58.8847C33.382 59.8434 34.2447 60.4596 35.1759 60.3637C36.1619 60.2678 36.9561 59.501 36.9972 58.5561C37.0383 57.8303 36.9972 57.0908 37.011 56.3651C37.0383 55.2558 37.7094 54.5437 38.7227 54.5574C39.6265 54.5711 40.2839 55.3106 40.2839 56.3514C40.2701 57.3236 40.3249 58.3233 40.1606 59.2819C39.6539 62.0755 37.2575 63.8284 34.409 63.6092C31.8894 63.4038 29.8763 61.1579 29.7942 58.4328C29.7805 57.4058 29.7942 56.3787 29.7942 55.3516Z" fill="#007CC3"/>
<path d="M32.6017 49.5455C31.8759 49.5455 31.1775 49.5729 30.4791 49.5181C30.3285 49.5045 30.1094 49.1757 30.1094 48.984C30.082 47.2723 30.0957 45.5605 30.0957 43.8487C30.0957 41.6988 30.0957 39.5625 30.0957 37.3578C30.9447 37.3578 31.7527 37.3578 32.6154 37.3578C32.6017 41.3838 32.6017 45.4236 32.6017 49.5455Z" fill="#007CC3"/>
<path d="M33.1631 7.64149C31.8622 6.79245 30.6845 6.77876 29.4384 7.6141C29.4109 7.39499 29.3699 7.23067 29.3699 7.06634C29.3699 5.39565 29.3562 3.73868 29.3699 2.06799C29.3699 0.780747 30.0683 0.0275717 31.2323 0.00018354C32.4373 -0.0135106 33.1494 0.739665 33.1631 2.06799C33.1631 3.88931 33.1631 5.69692 33.1631 7.64149Z" fill="#007CC3"/>
</g>
<defs>
<clipPath id="clip0_208_186">
<rect width="62.2222" height="64" fill="white"/>
</clipPath>
</defs>
</svg>
