<svg width="320" height="198" viewBox="0 0 320 198" fill="none" xmlns="http://www.w3.org/2000/svg">
<path d="M14.1797 82.3438V125H3.92578V82.3438H14.1797ZM30.6445 100.068V125H20.7715V93.3008H30.0293L30.6445 100.068ZM29.4727 108.066L27.1582 108.125C27.1582 105.703 27.4512 103.545 28.0371 101.65C28.623 99.7363 29.4531 98.1152 30.5273 96.7871C31.6016 95.459 32.8809 94.4531 34.3652 93.7695C35.8691 93.0664 37.5391 92.7148 39.375 92.7148C40.8398 92.7148 42.1777 92.9297 43.3887 93.3594C44.6191 93.7891 45.6738 94.4824 46.5527 95.4395C47.4512 96.3965 48.1348 97.666 48.6035 99.248C49.0918 100.811 49.3359 102.744 49.3359 105.049V125H39.4043V105.02C39.4043 103.75 39.2285 102.783 38.877 102.119C38.5254 101.436 38.0176 100.967 37.3535 100.713C36.6895 100.459 35.8789 100.332 34.9219 100.332C33.9062 100.332 33.0469 100.527 32.3438 100.918C31.6406 101.309 31.0742 101.855 30.6445 102.559C30.2344 103.242 29.9316 104.053 29.7363 104.99C29.5605 105.928 29.4727 106.953 29.4727 108.066ZM71.5137 93.3008V100.156H52.4121V93.3008H71.5137ZM56.4258 85.4199H66.2988V114.658C66.2988 115.498 66.3965 116.152 66.5918 116.621C66.7871 117.07 67.1191 117.393 67.5879 117.588C68.0762 117.764 68.7207 117.852 69.5215 117.852C70.0879 117.852 70.5566 117.842 70.9277 117.822C71.2988 117.783 71.6504 117.734 71.9824 117.676V124.736C71.1426 125.01 70.2637 125.215 69.3457 125.352C68.4277 125.508 67.4512 125.586 66.416 125.586C64.3066 125.586 62.5 125.254 60.9961 124.59C59.5117 123.926 58.3789 122.881 57.5977 121.455C56.8164 120.029 56.4258 118.174 56.4258 115.889V85.4199ZM90.791 125.586C88.2129 125.586 85.9082 125.186 83.877 124.385C81.8457 123.564 80.127 122.441 78.7207 121.016C77.334 119.59 76.2695 117.949 75.5273 116.094C74.8047 114.238 74.4434 112.275 74.4434 110.205V109.092C74.4434 106.768 74.7656 104.619 75.4102 102.646C76.0547 100.654 77.0117 98.916 78.2812 97.4316C79.5508 95.9473 81.1426 94.7949 83.0566 93.9746C84.9707 93.1348 87.1973 92.7148 89.7363 92.7148C91.9824 92.7148 93.9941 93.0762 95.7715 93.7988C97.5488 94.5215 99.0527 95.5566 100.283 96.9043C101.533 98.252 102.48 99.8828 103.125 101.797C103.789 103.711 104.121 105.859 104.121 108.242V112.256H78.2227V106.074H94.4824V105.312C94.502 104.258 94.3164 103.359 93.9258 102.617C93.5547 101.875 93.0078 101.309 92.2852 100.918C91.5625 100.527 90.6836 100.332 89.6484 100.332C88.5742 100.332 87.6855 100.566 86.9824 101.035C86.2988 101.504 85.7617 102.148 85.3711 102.969C85 103.77 84.7363 104.697 84.5801 105.752C84.4238 106.807 84.3457 107.92 84.3457 109.092V110.205C84.3457 111.377 84.502 112.441 84.8145 113.398C85.1465 114.355 85.6152 115.176 86.2207 115.859C86.8457 116.523 87.5879 117.041 88.4473 117.412C89.3262 117.783 90.3223 117.969 91.4355 117.969C92.7832 117.969 94.1113 117.715 95.4199 117.207C96.7285 116.699 97.8516 115.859 98.7891 114.688L103.271 120.02C102.627 120.938 101.709 121.826 100.518 122.686C99.3457 123.545 97.9395 124.248 96.2988 124.795C94.6582 125.322 92.8223 125.586 90.791 125.586ZM118.564 80V125H108.662V80H118.564ZM135.088 80V125H125.186V80H135.088ZM151.611 93.3008V125H141.709V93.3008H151.611ZM141.123 85.127C141.123 83.7207 141.631 82.5684 142.646 81.6699C143.662 80.7715 144.98 80.3223 146.602 80.3223C148.223 80.3223 149.541 80.7715 150.557 81.6699C151.572 82.5684 152.08 83.7207 152.08 85.127C152.08 86.5332 151.572 87.6855 150.557 88.584C149.541 89.4824 148.223 89.9316 146.602 89.9316C144.98 89.9316 143.662 89.4824 142.646 88.584C141.631 87.6855 141.123 86.5332 141.123 85.127ZM177.627 93.3008H186.592V123.77C186.592 126.699 185.918 129.18 184.57 131.211C183.223 133.262 181.338 134.814 178.916 135.869C176.514 136.943 173.701 137.48 170.479 137.48C169.053 137.48 167.598 137.295 166.113 136.924C164.629 136.572 163.242 136.045 161.953 135.342C160.664 134.639 159.58 133.77 158.701 132.734L162.832 126.934C163.633 127.832 164.639 128.594 165.85 129.219C167.061 129.863 168.486 130.186 170.127 130.186C171.553 130.186 172.744 129.932 173.701 129.424C174.678 128.916 175.42 128.174 175.928 127.197C176.436 126.24 176.689 125.078 176.689 123.711V100.801L177.627 93.3008ZM156.562 109.531V108.916C156.562 106.514 156.855 104.326 157.441 102.354C158.047 100.361 158.906 98.6523 160.02 97.2266C161.152 95.7812 162.52 94.668 164.121 93.8867C165.723 93.1055 167.529 92.7148 169.541 92.7148C171.709 92.7148 173.486 93.1348 174.873 93.9746C176.279 94.7949 177.402 95.9473 178.242 97.4316C179.102 98.916 179.766 100.654 180.234 102.646C180.723 104.619 181.133 106.748 181.465 109.033V109.766C181.133 111.914 180.674 113.945 180.088 115.859C179.521 117.754 178.779 119.434 177.861 120.898C176.943 122.363 175.791 123.516 174.404 124.355C173.037 125.176 171.396 125.586 169.482 125.586C167.49 125.586 165.693 125.186 164.092 124.385C162.51 123.584 161.152 122.461 160.02 121.016C158.906 119.57 158.047 117.871 157.441 115.918C156.855 113.965 156.562 111.836 156.562 109.531ZM166.436 108.916V109.531C166.436 110.723 166.543 111.826 166.758 112.842C166.992 113.857 167.344 114.756 167.812 115.537C168.281 116.299 168.857 116.895 169.541 117.324C170.244 117.754 171.064 117.969 172.002 117.969C173.428 117.969 174.58 117.666 175.459 117.061C176.338 116.455 176.973 115.596 177.363 114.482C177.754 113.369 177.92 112.061 177.861 110.557V108.242C177.9 106.953 177.812 105.82 177.598 104.844C177.383 103.848 177.041 103.018 176.572 102.354C176.123 101.689 175.518 101.191 174.756 100.859C174.014 100.508 173.115 100.332 172.061 100.332C171.143 100.332 170.332 100.547 169.629 100.977C168.926 101.406 168.34 102.012 167.871 102.793C167.402 103.555 167.041 104.463 166.787 105.518C166.553 106.553 166.436 107.686 166.436 108.916ZM207.627 125.586C205.049 125.586 202.744 125.186 200.713 124.385C198.682 123.564 196.963 122.441 195.557 121.016C194.17 119.59 193.105 117.949 192.363 116.094C191.641 114.238 191.279 112.275 191.279 110.205V109.092C191.279 106.768 191.602 104.619 192.246 102.646C192.891 100.654 193.848 98.916 195.117 97.4316C196.387 95.9473 197.979 94.7949 199.893 93.9746C201.807 93.1348 204.033 92.7148 206.572 92.7148C208.818 92.7148 210.83 93.0762 212.607 93.7988C214.385 94.5215 215.889 95.5566 217.119 96.9043C218.369 98.252 219.316 99.8828 219.961 101.797C220.625 103.711 220.957 105.859 220.957 108.242V112.256H195.059V106.074H211.318V105.312C211.338 104.258 211.152 103.359 210.762 102.617C210.391 101.875 209.844 101.309 209.121 100.918C208.398 100.527 207.52 100.332 206.484 100.332C205.41 100.332 204.521 100.566 203.818 101.035C203.135 101.504 202.598 102.148 202.207 102.969C201.836 103.77 201.572 104.697 201.416 105.752C201.26 106.807 201.182 107.92 201.182 109.092V110.205C201.182 111.377 201.338 112.441 201.65 113.398C201.982 114.355 202.451 115.176 203.057 115.859C203.682 116.523 204.424 117.041 205.283 117.412C206.162 117.783 207.158 117.969 208.271 117.969C209.619 117.969 210.947 117.715 212.256 117.207C213.564 116.699 214.688 115.859 215.625 114.688L220.107 120.02C219.463 120.938 218.545 121.826 217.354 122.686C216.182 123.545 214.775 124.248 213.135 124.795C211.494 125.322 209.658 125.586 207.627 125.586ZM234.668 100.068V125H224.795V93.3008H234.053L234.668 100.068ZM233.496 108.066L231.182 108.125C231.182 105.703 231.475 103.545 232.061 101.65C232.646 99.7363 233.477 98.1152 234.551 96.7871C235.625 95.459 236.904 94.4531 238.389 93.7695C239.893 93.0664 241.562 92.7148 243.398 92.7148C244.863 92.7148 246.201 92.9297 247.412 93.3594C248.643 93.7891 249.697 94.4824 250.576 95.4395C251.475 96.3965 252.158 97.666 252.627 99.248C253.115 100.811 253.359 102.744 253.359 105.049V125H243.428V105.02C243.428 103.75 243.252 102.783 242.9 102.119C242.549 101.436 242.041 100.967 241.377 100.713C240.713 100.459 239.902 100.332 238.945 100.332C237.93 100.332 237.07 100.527 236.367 100.918C235.664 101.309 235.098 101.855 234.668 102.559C234.258 103.242 233.955 104.053 233.76 104.99C233.584 105.928 233.496 106.953 233.496 108.066ZM272.227 117.969C273.145 117.969 273.926 117.803 274.57 117.471C275.234 117.119 275.732 116.631 276.064 116.006C276.416 115.361 276.582 114.59 276.562 113.691H285.85C285.869 116.074 285.283 118.164 284.092 119.961C282.92 121.738 281.318 123.125 279.287 124.121C277.275 125.098 275 125.586 272.461 125.586C269.98 125.586 267.812 125.186 265.957 124.385C264.102 123.564 262.549 122.432 261.299 120.986C260.068 119.521 259.141 117.812 258.516 115.859C257.91 113.906 257.607 111.787 257.607 109.502V108.828C257.607 106.543 257.91 104.424 258.516 102.471C259.141 100.498 260.068 98.7891 261.299 97.3438C262.549 95.8789 264.092 94.7461 265.928 93.9453C267.783 93.125 269.941 92.7148 272.402 92.7148C275.039 92.7148 277.363 93.2129 279.375 94.209C281.406 95.2051 282.998 96.6504 284.15 98.5449C285.303 100.439 285.869 102.734 285.85 105.43H276.562C276.582 104.473 276.436 103.613 276.123 102.852C275.811 102.09 275.322 101.484 274.658 101.035C274.014 100.566 273.184 100.332 272.168 100.332C271.152 100.332 270.332 100.557 269.707 101.006C269.082 101.455 268.604 102.08 268.271 102.881C267.959 103.662 267.744 104.561 267.627 105.576C267.529 106.592 267.48 107.676 267.48 108.828V109.502C267.48 110.674 267.529 111.777 267.627 112.812C267.744 113.828 267.969 114.727 268.301 115.508C268.633 116.27 269.111 116.875 269.736 117.324C270.361 117.754 271.191 117.969 272.227 117.969ZM305.42 125.586C302.842 125.586 300.537 125.186 298.506 124.385C296.475 123.564 294.756 122.441 293.35 121.016C291.963 119.59 290.898 117.949 290.156 116.094C289.434 114.238 289.072 112.275 289.072 110.205V109.092C289.072 106.768 289.395 104.619 290.039 102.646C290.684 100.654 291.641 98.916 292.91 97.4316C294.18 95.9473 295.771 94.7949 297.686 93.9746C299.6 93.1348 301.826 92.7148 304.365 92.7148C306.611 92.7148 308.623 93.0762 310.4 93.7988C312.178 94.5215 313.682 95.5566 314.912 96.9043C316.162 98.252 317.109 99.8828 317.754 101.797C318.418 103.711 318.75 105.859 318.75 108.242V112.256H292.852V106.074H309.111V105.312C309.131 104.258 308.945 103.359 308.555 102.617C308.184 101.875 307.637 101.309 306.914 100.918C306.191 100.527 305.312 100.332 304.277 100.332C303.203 100.332 302.314 100.566 301.611 101.035C300.928 101.504 300.391 102.148 300 102.969C299.629 103.77 299.365 104.697 299.209 105.752C299.053 106.807 298.975 107.92 298.975 109.092V110.205C298.975 111.377 299.131 112.441 299.443 113.398C299.775 114.355 300.244 115.176 300.85 115.859C301.475 116.523 302.217 117.041 303.076 117.412C303.955 117.783 304.951 117.969 306.064 117.969C307.412 117.969 308.74 117.715 310.049 117.207C311.357 116.699 312.48 115.859 313.418 114.688L317.9 120.02C317.256 120.938 316.338 121.826 315.146 122.686C313.975 123.545 312.568 124.248 310.928 124.795C309.287 125.322 307.451 125.586 305.42 125.586ZM25.2246 173.662C25.2246 172.998 25.127 172.402 24.9316 171.875C24.7363 171.328 24.375 170.82 23.8477 170.352C23.3203 169.883 22.5586 169.414 21.5625 168.945C20.5859 168.457 19.2969 167.949 17.6953 167.422C15.8203 166.797 14.0137 166.094 12.2754 165.312C10.5371 164.512 8.98438 163.584 7.61719 162.529C6.25 161.455 5.16602 160.205 4.36523 158.779C3.56445 157.334 3.16406 155.654 3.16406 153.74C3.16406 151.904 3.57422 150.254 4.39453 148.789C5.21484 147.305 6.35742 146.045 7.82227 145.01C9.30664 143.955 11.0449 143.154 13.0371 142.607C15.0293 142.041 17.207 141.758 19.5703 141.758C22.6953 141.758 25.4492 142.305 27.832 143.398C30.2344 144.473 32.1094 146.006 33.457 147.998C34.8242 149.971 35.5078 152.305 35.5078 155H25.2832C25.2832 153.926 25.0586 152.979 24.6094 152.158C24.1797 151.338 23.5254 150.693 22.6465 150.225C21.7676 149.756 20.6641 149.521 19.3359 149.521C18.0469 149.521 16.9629 149.717 16.084 150.107C15.2051 150.498 14.541 151.025 14.0918 151.689C13.6426 152.334 13.418 153.047 13.418 153.828C13.418 154.473 13.5938 155.059 13.9453 155.586C14.3164 156.094 14.834 156.572 15.498 157.021C16.1816 157.471 17.002 157.9 17.959 158.311C18.9355 158.721 20.0293 159.121 21.2402 159.512C23.5059 160.234 25.5176 161.045 27.2754 161.943C29.0527 162.822 30.5469 163.828 31.7578 164.961C32.9883 166.074 33.916 167.344 34.541 168.77C35.1855 170.195 35.5078 171.807 35.5078 173.604C35.5078 175.518 35.1367 177.217 34.3945 178.701C33.6523 180.186 32.5879 181.445 31.2012 182.48C29.8145 183.496 28.1543 184.268 26.2207 184.795C24.2871 185.322 22.1289 185.586 19.7461 185.586C17.5586 185.586 15.4004 185.312 13.2715 184.766C11.1621 184.199 9.24805 183.34 7.5293 182.188C5.81055 181.016 4.43359 179.521 3.39844 177.705C2.38281 175.869 1.875 173.691 1.875 171.172H12.1875C12.1875 172.422 12.3535 173.477 12.6855 174.336C13.0176 175.195 13.5059 175.889 14.1504 176.416C14.7949 176.924 15.5859 177.295 16.5234 177.529C17.4609 177.744 18.5352 177.852 19.7461 177.852C21.0547 177.852 22.1094 177.666 22.9102 177.295C23.7109 176.904 24.2969 176.396 24.668 175.771C25.0391 175.127 25.2246 174.424 25.2246 173.662ZM50.0684 181.279L58.2715 153.301H68.877L56.1328 189.717C55.8594 190.518 55.498 191.377 55.0488 192.295C54.5996 193.232 53.9844 194.121 53.2031 194.961C52.4219 195.801 51.416 196.484 50.1855 197.012C48.9746 197.539 47.4707 197.803 45.6738 197.803C44.7168 197.803 44.0137 197.754 43.5645 197.656C43.1348 197.578 42.4707 197.432 41.5723 197.217V190.156C41.8262 190.156 42.041 190.156 42.2168 190.156C42.4121 190.156 42.627 190.156 42.8613 190.156C43.916 190.156 44.7559 190.049 45.3809 189.834C46.0254 189.619 46.5137 189.307 46.8457 188.896C47.1973 188.486 47.4707 187.988 47.666 187.402L50.0684 181.279ZM47.9883 153.301L54.2285 175.479L55.3125 185.938H48.6914L37.4121 153.301H47.9883ZM88.0664 176.094C88.0664 175.547 87.8809 175.078 87.5098 174.688C87.1582 174.277 86.5332 173.906 85.6348 173.574C84.7363 173.223 83.4766 172.871 81.8555 172.52C80.3125 172.188 78.8574 171.748 77.4902 171.201C76.1426 170.654 74.9609 169.99 73.9453 169.209C72.9297 168.428 72.1289 167.5 71.543 166.426C70.9766 165.352 70.6934 164.121 70.6934 162.734C70.6934 161.387 70.9766 160.117 71.543 158.926C72.1289 157.715 72.9785 156.65 74.0918 155.732C75.2246 154.795 76.6016 154.062 78.2227 153.535C79.8438 152.988 81.6895 152.715 83.7598 152.715C86.6113 152.715 89.0723 153.154 91.1426 154.033C93.2129 154.893 94.8047 156.104 95.918 157.666C97.0508 159.209 97.6172 160.996 97.6172 163.027H87.7441C87.7441 162.227 87.6074 161.543 87.334 160.977C87.0801 160.41 86.6602 159.98 86.0742 159.688C85.4883 159.375 84.707 159.219 83.7305 159.219C83.0469 159.219 82.4219 159.346 81.8555 159.6C81.3086 159.854 80.8691 160.205 80.5371 160.654C80.2051 161.104 80.0391 161.631 80.0391 162.236C80.0391 162.666 80.1367 163.057 80.332 163.408C80.5469 163.74 80.8691 164.053 81.2988 164.346C81.7285 164.619 82.2754 164.873 82.9395 165.107C83.6035 165.322 84.4043 165.518 85.3418 165.693C87.4707 166.084 89.4629 166.641 91.3184 167.363C93.1738 168.086 94.6777 169.111 95.8301 170.439C97.002 171.768 97.5879 173.555 97.5879 175.801C97.5879 177.207 97.2656 178.506 96.6211 179.697C95.9766 180.869 95.0488 181.904 93.8379 182.803C92.627 183.682 91.1719 184.365 89.4727 184.854C87.7734 185.342 85.8594 185.586 83.7305 185.586C80.7031 185.586 78.1445 185.049 76.0547 183.975C73.9648 182.881 72.3828 181.514 71.3086 179.873C70.2539 178.213 69.7266 176.533 69.7266 174.834H78.9258C78.9648 175.811 79.1992 176.611 79.6289 177.236C80.0781 177.861 80.6738 178.32 81.416 178.613C82.1582 178.906 83.0176 179.053 83.9941 179.053C84.8926 179.053 85.6348 178.926 86.2207 178.672C86.8262 178.418 87.2852 178.076 87.5977 177.646C87.9102 177.197 88.0664 176.68 88.0664 176.094ZM118.916 153.301V160.156H99.8145V153.301H118.916ZM103.828 145.42H113.701V174.658C113.701 175.498 113.799 176.152 113.994 176.621C114.189 177.07 114.521 177.393 114.99 177.588C115.479 177.764 116.123 177.852 116.924 177.852C117.49 177.852 117.959 177.842 118.33 177.822C118.701 177.783 119.053 177.734 119.385 177.676V184.736C118.545 185.01 117.666 185.215 116.748 185.352C115.83 185.508 114.854 185.586 113.818 185.586C111.709 185.586 109.902 185.254 108.398 184.59C106.914 183.926 105.781 182.881 105 181.455C104.219 180.029 103.828 178.174 103.828 175.889V145.42ZM138.193 185.586C135.615 185.586 133.311 185.186 131.279 184.385C129.248 183.564 127.529 182.441 126.123 181.016C124.736 179.59 123.672 177.949 122.93 176.094C122.207 174.238 121.846 172.275 121.846 170.205V169.092C121.846 166.768 122.168 164.619 122.812 162.646C123.457 160.654 124.414 158.916 125.684 157.432C126.953 155.947 128.545 154.795 130.459 153.975C132.373 153.135 134.6 152.715 137.139 152.715C139.385 152.715 141.396 153.076 143.174 153.799C144.951 154.521 146.455 155.557 147.686 156.904C148.936 158.252 149.883 159.883 150.527 161.797C151.191 163.711 151.523 165.859 151.523 168.242V172.256H125.625V166.074H141.885V165.312C141.904 164.258 141.719 163.359 141.328 162.617C140.957 161.875 140.41 161.309 139.688 160.918C138.965 160.527 138.086 160.332 137.051 160.332C135.977 160.332 135.088 160.566 134.385 161.035C133.701 161.504 133.164 162.148 132.773 162.969C132.402 163.77 132.139 164.697 131.982 165.752C131.826 166.807 131.748 167.92 131.748 169.092V170.205C131.748 171.377 131.904 172.441 132.217 173.398C132.549 174.355 133.018 175.176 133.623 175.859C134.248 176.523 134.99 177.041 135.85 177.412C136.729 177.783 137.725 177.969 138.838 177.969C140.186 177.969 141.514 177.715 142.822 177.207C144.131 176.699 145.254 175.859 146.191 174.688L150.674 180.02C150.029 180.938 149.111 181.826 147.92 182.686C146.748 183.545 145.342 184.248 143.701 184.795C142.061 185.322 140.225 185.586 138.193 185.586ZM165.498 160.01V185H155.625V153.301H164.883L165.498 160.01ZM164.297 168.066L162.041 168.125C162.041 165.898 162.305 163.848 162.832 161.973C163.359 160.098 164.141 158.467 165.176 157.08C166.211 155.693 167.48 154.619 168.984 153.857C170.508 153.096 172.266 152.715 174.258 152.715C175.645 152.715 176.904 152.93 178.037 153.359C179.17 153.77 180.146 154.424 180.967 155.322C181.787 156.201 182.412 157.354 182.842 158.779C183.291 160.186 183.516 161.875 183.516 163.848V185H173.643V165.107C173.643 163.76 173.486 162.744 173.174 162.061C172.881 161.377 172.451 160.918 171.885 160.684C171.318 160.449 170.625 160.332 169.805 160.332C168.945 160.332 168.174 160.527 167.49 160.918C166.807 161.309 166.221 161.855 165.732 162.559C165.264 163.242 164.902 164.053 164.648 164.99C164.414 165.928 164.297 166.953 164.297 168.066ZM182.402 168.066L179.648 168.125C179.648 165.898 179.893 163.848 180.381 161.973C180.889 160.098 181.641 158.467 182.637 157.08C183.652 155.693 184.912 154.619 186.416 153.857C187.92 153.096 189.668 152.715 191.66 152.715C193.105 152.715 194.434 152.93 195.645 153.359C196.855 153.789 197.9 154.482 198.779 155.439C199.658 156.396 200.342 157.666 200.83 159.248C201.318 160.811 201.562 162.744 201.562 165.049V185H191.66V165.049C191.66 163.74 191.504 162.754 191.191 162.09C190.898 161.406 190.469 160.947 189.902 160.713C189.336 160.459 188.662 160.332 187.881 160.332C186.943 160.332 186.133 160.527 185.449 160.918C184.766 161.309 184.189 161.855 183.721 162.559C183.271 163.242 182.939 164.053 182.725 164.99C182.51 165.928 182.402 166.953 182.402 168.066Z" fill="white"/>
<path d="M20.6543 37.8652H9.66797L9.60938 31.127H18.5156C20.1172 31.127 21.3965 30.9512 22.3535 30.5996C23.3105 30.2285 24.0039 29.6914 24.4336 28.9883C24.8828 28.2852 25.1074 27.4062 25.1074 26.3516C25.1074 25.1406 24.8828 24.1641 24.4336 23.4219C23.9844 22.6797 23.2715 22.1426 22.2949 21.8105C21.3379 21.459 20.0977 21.2832 18.5742 21.2832H13.5352V56H3.25195V13.3438H18.5742C21.2109 13.3438 23.5645 13.5879 25.6348 14.0762C27.7051 14.5449 29.4629 15.2676 30.9082 16.2441C32.373 17.2207 33.4863 18.4512 34.248 19.9355C35.0098 21.4004 35.3906 23.1289 35.3906 25.1211C35.3906 26.8594 35.0195 28.4902 34.2773 30.0137C33.5352 31.5371 32.2949 32.7773 30.5566 33.7344C28.8379 34.6719 26.4844 35.1602 23.4961 35.1992L20.6543 37.8652ZM20.2441 56H7.17773L10.6934 48.0898H20.2441C21.6504 48.0898 22.7734 47.875 23.6133 47.4453C24.4727 46.9961 25.0879 46.4102 25.459 45.6875C25.8496 44.9453 26.0449 44.125 26.0449 43.2266C26.0449 42.1328 25.8594 41.1855 25.4883 40.3848C25.1367 39.584 24.5703 38.9688 23.7891 38.5391C23.0078 38.0898 21.9629 37.8652 20.6543 37.8652H12.0117L12.0703 31.127H22.4121L24.8145 33.8223C27.666 33.7051 29.9219 34.1055 31.582 35.0234C33.2617 35.9414 34.4629 37.1523 35.1855 38.6562C35.9082 40.1602 36.2695 41.7324 36.2695 43.373C36.2695 46.166 35.6641 48.5 34.4531 50.375C33.2617 52.25 31.4746 53.6562 29.0918 54.5938C26.709 55.5312 23.7598 56 20.2441 56ZM60.3293 48.2949V24.3008H70.2316V56H60.9738L60.3293 48.2949ZM61.2668 41.8496L63.8449 41.791C63.8449 43.9199 63.591 45.8926 63.0832 47.709C62.5754 49.5059 61.8234 51.0684 60.8273 52.3965C59.8508 53.7246 58.6398 54.7598 57.1945 55.502C55.7687 56.2246 54.1184 56.5859 52.2434 56.5859C50.6809 56.5859 49.2453 56.3711 47.9367 55.9414C46.6477 55.4922 45.5344 54.7988 44.5969 53.8613C43.6594 52.9043 42.927 51.6836 42.3996 50.1992C41.8918 48.6953 41.6379 46.8984 41.6379 44.8086V24.3008H51.5109V44.8672C51.5109 45.5703 51.5988 46.1758 51.7746 46.6836C51.9504 47.1914 52.2043 47.6211 52.5363 47.9727C52.8684 48.3047 53.2785 48.5586 53.7668 48.7344C54.2746 48.8906 54.8508 48.9688 55.4953 48.9688C56.9797 48.9688 58.1418 48.6562 58.9816 48.0312C59.8215 47.4062 60.4074 46.5566 60.7395 45.4824C61.091 44.4082 61.2668 43.1973 61.2668 41.8496ZM92.5922 47.0938C92.5922 46.5469 92.4066 46.0781 92.0355 45.6875C91.684 45.2773 91.059 44.9062 90.1605 44.5742C89.2621 44.2227 88.0023 43.8711 86.3812 43.5195C84.8383 43.1875 83.3832 42.748 82.016 42.2012C80.6684 41.6543 79.4867 40.9902 78.4711 40.209C77.4555 39.4277 76.6547 38.5 76.0687 37.4258C75.5023 36.3516 75.2191 35.1211 75.2191 33.7344C75.2191 32.3867 75.5023 31.1172 76.0687 29.9258C76.6547 28.7148 77.5043 27.6504 78.6176 26.7324C79.7504 25.7949 81.1273 25.0625 82.7484 24.5352C84.3695 23.9883 86.2152 23.7148 88.2855 23.7148C91.1371 23.7148 93.598 24.1543 95.6684 25.0332C97.7387 25.8926 99.3305 27.1035 100.444 28.666C101.577 30.209 102.143 31.9961 102.143 34.0273H92.2699C92.2699 33.2266 92.1332 32.543 91.8598 31.9766C91.6059 31.4102 91.1859 30.9805 90.6 30.6875C90.0141 30.375 89.2328 30.2188 88.2562 30.2188C87.5727 30.2188 86.9477 30.3457 86.3812 30.5996C85.8344 30.8535 85.3949 31.2051 85.0629 31.6543C84.7309 32.1035 84.5648 32.6309 84.5648 33.2363C84.5648 33.666 84.6625 34.0566 84.8578 34.4082C85.0727 34.7402 85.3949 35.0527 85.8246 35.3457C86.2543 35.6191 86.8012 35.873 87.4652 36.1074C88.1293 36.3223 88.9301 36.5176 89.8676 36.6934C91.9965 37.084 93.9887 37.6406 95.8441 38.3633C97.6996 39.0859 99.2035 40.1113 100.356 41.4395C101.528 42.7676 102.114 44.5547 102.114 46.8008C102.114 48.207 101.791 49.5059 101.147 50.6973C100.502 51.8691 99.5746 52.9043 98.3637 53.8027C97.1527 54.6816 95.6977 55.3652 93.9984 55.8535C92.2992 56.3418 90.3852 56.5859 88.2562 56.5859C85.2289 56.5859 82.6703 56.0488 80.5805 54.9746C78.4906 53.8809 76.9086 52.5137 75.8344 50.873C74.7797 49.2129 74.2523 47.5332 74.2523 45.834H83.4516C83.4906 46.8105 83.725 47.6113 84.1547 48.2363C84.6039 48.8613 85.1996 49.3203 85.9418 49.6133C86.684 49.9062 87.5434 50.0527 88.5199 50.0527C89.4184 50.0527 90.1605 49.9258 90.7465 49.6719C91.352 49.418 91.8109 49.0762 92.1234 48.6465C92.4359 48.1973 92.5922 47.6797 92.5922 47.0938ZM117.472 24.3008V56H107.57V24.3008H117.472ZM106.984 16.127C106.984 14.7207 107.492 13.5684 108.507 12.6699C109.523 11.7715 110.841 11.3223 112.463 11.3223C114.084 11.3223 115.402 11.7715 116.418 12.6699C117.433 13.5684 117.941 14.7207 117.941 16.127C117.941 17.5332 117.433 18.6855 116.418 19.584C115.402 20.4824 114.084 20.9316 112.463 20.9316C110.841 20.9316 109.523 20.4824 108.507 19.584C107.492 18.6855 106.984 17.5332 106.984 16.127ZM133.563 31.0684V56H123.69V24.3008H132.948L133.563 31.0684ZM132.391 39.0664L130.077 39.125C130.077 36.7031 130.37 34.5449 130.956 32.6504C131.542 30.7363 132.372 29.1152 133.446 27.7871C134.52 26.459 135.8 25.4531 137.284 24.7695C138.788 24.0664 140.458 23.7148 142.294 23.7148C143.759 23.7148 145.096 23.9297 146.307 24.3594C147.538 24.7891 148.593 25.4824 149.471 26.4395C150.37 27.3965 151.054 28.666 151.522 30.248C152.011 31.8105 152.255 33.7441 152.255 36.0488V56H142.323V36.0195C142.323 34.75 142.147 33.7832 141.796 33.1191C141.444 32.4355 140.936 31.9668 140.272 31.7129C139.608 31.459 138.798 31.332 137.841 31.332C136.825 31.332 135.966 31.5273 135.262 31.918C134.559 32.3086 133.993 32.8555 133.563 33.5586C133.153 34.2422 132.85 35.0527 132.655 35.9902C132.479 36.9277 132.391 37.9531 132.391 39.0664ZM173.385 56.5859C170.807 56.5859 168.502 56.1855 166.471 55.3848C164.439 54.5645 162.721 53.4414 161.314 52.0156C159.928 50.5898 158.863 48.9492 158.121 47.0938C157.398 45.2383 157.037 43.2754 157.037 41.2051V40.0918C157.037 37.7676 157.359 35.6191 158.004 33.6465C158.648 31.6543 159.605 29.916 160.875 28.4316C162.145 26.9473 163.736 25.7949 165.65 24.9746C167.564 24.1348 169.791 23.7148 172.33 23.7148C174.576 23.7148 176.588 24.0762 178.365 24.7988C180.143 25.5215 181.646 26.5566 182.877 27.9043C184.127 29.252 185.074 30.8828 185.719 32.7969C186.383 34.7109 186.715 36.8594 186.715 39.2422V43.2559H160.816V37.0742H177.076V36.3125C177.096 35.2578 176.91 34.3594 176.52 33.6172C176.148 32.875 175.602 32.3086 174.879 31.918C174.156 31.5273 173.277 31.332 172.242 31.332C171.168 31.332 170.279 31.5664 169.576 32.0352C168.893 32.5039 168.355 33.1484 167.965 33.9688C167.594 34.7695 167.33 35.6973 167.174 36.752C167.018 37.8066 166.939 38.9199 166.939 40.0918V41.2051C166.939 42.377 167.096 43.4414 167.408 44.3984C167.74 45.3555 168.209 46.1758 168.814 46.8594C169.439 47.5234 170.182 48.041 171.041 48.4121C171.92 48.7832 172.916 48.9688 174.029 48.9688C175.377 48.9688 176.705 48.7148 178.014 48.207C179.322 47.6992 180.445 46.8594 181.383 45.6875L185.865 51.0195C185.221 51.9375 184.303 52.8262 183.111 53.6855C181.939 54.5449 180.533 55.248 178.893 55.7949C177.252 56.3223 175.416 56.5859 173.385 56.5859ZM207.64 47.0938C207.64 46.5469 207.454 46.0781 207.083 45.6875C206.732 45.2773 206.107 44.9062 205.208 44.5742C204.31 44.2227 203.05 43.8711 201.429 43.5195C199.886 43.1875 198.431 42.748 197.064 42.2012C195.716 41.6543 194.534 40.9902 193.519 40.209C192.503 39.4277 191.702 38.5 191.116 37.4258C190.55 36.3516 190.267 35.1211 190.267 33.7344C190.267 32.3867 190.55 31.1172 191.116 29.9258C191.702 28.7148 192.552 27.6504 193.665 26.7324C194.798 25.7949 196.175 25.0625 197.796 24.5352C199.417 23.9883 201.263 23.7148 203.333 23.7148C206.185 23.7148 208.646 24.1543 210.716 25.0332C212.786 25.8926 214.378 27.1035 215.491 28.666C216.624 30.209 217.191 31.9961 217.191 34.0273H207.318C207.318 33.2266 207.181 32.543 206.907 31.9766C206.654 31.4102 206.234 30.9805 205.648 30.6875C205.062 30.375 204.28 30.2188 203.304 30.2188C202.62 30.2188 201.995 30.3457 201.429 30.5996C200.882 30.8535 200.443 31.2051 200.111 31.6543C199.779 32.1035 199.613 32.6309 199.613 33.2363C199.613 33.666 199.71 34.0566 199.905 34.4082C200.12 34.7402 200.443 35.0527 200.872 35.3457C201.302 35.6191 201.849 35.873 202.513 36.1074C203.177 36.3223 203.978 36.5176 204.915 36.6934C207.044 37.084 209.036 37.6406 210.892 38.3633C212.747 39.0859 214.251 40.1113 215.404 41.4395C216.575 42.7676 217.161 44.5547 217.161 46.8008C217.161 48.207 216.839 49.5059 216.195 50.6973C215.55 51.8691 214.622 52.9043 213.411 53.8027C212.2 54.6816 210.745 55.3652 209.046 55.8535C207.347 56.3418 205.433 56.5859 203.304 56.5859C200.277 56.5859 197.718 56.0488 195.628 54.9746C193.538 53.8809 191.956 52.5137 190.882 50.873C189.827 49.2129 189.3 47.5332 189.3 45.834H198.499C198.538 46.8105 198.773 47.6113 199.202 48.2363C199.652 48.8613 200.247 49.3203 200.989 49.6133C201.732 49.9062 202.591 50.0527 203.568 50.0527C204.466 50.0527 205.208 49.9258 205.794 49.6719C206.4 49.418 206.859 49.0762 207.171 48.6465C207.484 48.1973 207.64 47.6797 207.64 47.0938ZM238.702 47.0938C238.702 46.5469 238.516 46.0781 238.145 45.6875C237.793 45.2773 237.168 44.9062 236.27 44.5742C235.371 44.2227 234.112 43.8711 232.491 43.5195C230.948 43.1875 229.493 42.748 228.125 42.2012C226.778 41.6543 225.596 40.9902 224.58 40.209C223.565 39.4277 222.764 38.5 222.178 37.4258C221.612 36.3516 221.329 35.1211 221.329 33.7344C221.329 32.3867 221.612 31.1172 222.178 29.9258C222.764 28.7148 223.614 27.6504 224.727 26.7324C225.86 25.7949 227.237 25.0625 228.858 24.5352C230.479 23.9883 232.325 23.7148 234.395 23.7148C237.246 23.7148 239.707 24.1543 241.778 25.0332C243.848 25.8926 245.44 27.1035 246.553 28.666C247.686 30.209 248.252 31.9961 248.252 34.0273H238.379C238.379 33.2266 238.243 32.543 237.969 31.9766C237.715 31.4102 237.295 30.9805 236.709 30.6875C236.123 30.375 235.342 30.2188 234.366 30.2188C233.682 30.2188 233.057 30.3457 232.491 30.5996C231.944 30.8535 231.504 31.2051 231.172 31.6543C230.84 32.1035 230.674 32.6309 230.674 33.2363C230.674 33.666 230.772 34.0566 230.967 34.4082C231.182 34.7402 231.504 35.0527 231.934 35.3457C232.364 35.6191 232.911 35.873 233.575 36.1074C234.239 36.3223 235.039 36.5176 235.977 36.6934C238.106 37.084 240.098 37.6406 241.954 38.3633C243.809 39.0859 245.313 40.1113 246.465 41.4395C247.637 42.7676 248.223 44.5547 248.223 46.8008C248.223 48.207 247.901 49.5059 247.256 50.6973C246.612 51.8691 245.684 52.9043 244.473 53.8027C243.262 54.6816 241.807 55.3652 240.108 55.8535C238.409 56.3418 236.495 56.5859 234.366 56.5859C231.338 56.5859 228.78 56.0488 226.69 54.9746C224.6 53.8809 223.018 52.5137 221.944 50.873C220.889 49.2129 220.362 47.5332 220.362 45.834H229.561C229.6 46.8105 229.834 47.6113 230.264 48.2363C230.713 48.8613 231.309 49.3203 232.051 49.6133C232.793 49.9062 233.653 50.0527 234.629 50.0527C235.528 50.0527 236.27 49.9258 236.856 49.6719C237.461 49.418 237.92 49.0762 238.233 48.6465C238.545 48.1973 238.702 47.6797 238.702 47.0938Z" fill="#031A44"/>
</svg>
