<svg width="55" height="42" viewBox="0 0 55 42" fill="none" xmlns="http://www.w3.org/2000/svg">
<g clip-path="url(#clip0_31_180)">
<path d="M40.9926 41.9999C40.6247 41.8151 40.2181 41.8958 39.8339 41.8507C34.6266 41.2427 30.597 37.7856 29.1452 32.6137C28.5676 30.5573 28.4 28.4506 28.4988 26.3179C28.7661 20.5276 31.1996 15.6602 34.7934 11.2933C37.1942 8.37645 39.9972 5.89158 42.9996 3.62787C44.6397 2.39107 46.3279 1.22539 48.0599 0.123023C48.3401 -0.0556446 48.488 -0.0582466 48.6616 0.247918C48.9246 0.711067 49.2152 1.16034 49.5237 1.59313C49.7275 1.87935 49.7042 2.03373 49.3974 2.23322C47.8192 3.25752 46.3115 4.38244 44.8572 5.57761C42.1908 7.76933 39.7617 10.1848 37.9463 13.1641C36.8022 15.0401 36.0226 17.0575 35.7759 19.2579C35.7209 19.7488 35.7681 20.2509 35.7681 20.7991C36.5246 20.1928 37.2767 19.6516 38.1027 19.2171C44.9354 15.6229 53.3858 19.7973 54.7507 27.4471C54.8427 27.9623 54.9175 28.4801 55 28.9961C55 29.487 55 29.9788 55 30.4697C54.8522 30.86 54.884 31.2789 54.8049 31.6805C54.1456 35.0084 52.3336 37.5965 49.6862 39.5974C47.8613 40.9764 45.7339 41.6026 43.4793 41.8455C43.0246 41.8949 42.551 41.8143 42.1109 42.0008C41.7378 41.9999 41.3656 41.9999 40.9926 41.9999Z" fill="#007CC3"/>
<path d="M7.32356 20.1964C7.6055 20.0195 7.84274 19.8703 8.07998 19.7202C10.0707 18.4557 12.2489 17.8217 14.5937 17.9075C19.3987 18.0845 23.5899 21.1782 25.1732 25.7915C25.7681 27.5253 25.8695 29.2989 25.7302 31.122C25.6391 32.3207 25.5618 33.5063 25.1328 34.6373C24.0799 37.4101 22.1209 39.3286 19.5173 40.6123C17.0555 41.8257 14.4098 42.1171 11.7366 41.889C6.00328 41.4007 1.75102 37.4309 0.527003 31.9607C-0.524242 27.2607 0.0224398 22.7082 1.94184 18.3152C3.81741 14.0228 6.70898 10.4876 10.0948 7.33838C13.0285 4.61065 16.2407 2.24807 19.6196 0.111861C19.9127 -0.0737455 20.0477 -0.0329814 20.2136 0.26104C20.468 0.71118 20.7551 1.14571 21.0559 1.56636C21.2648 1.85778 21.2717 2.02517 20.9365 2.24374C19.2027 3.37039 17.5343 4.59244 15.963 5.93939C13.2339 8.27942 10.73 10.8215 9.01003 14.0471C8.10663 15.7418 7.52986 17.5381 7.31755 19.4514C7.30207 19.5945 7.30895 19.7402 7.30981 19.8842C7.30981 19.9683 7.31669 20.0498 7.32356 20.1964Z" fill="#007CC3"/>
</g>
<defs>
<clipPath id="clip0_31_180">
<rect width="55" height="42" fill="white"/>
</clipPath>
</defs>
</svg>
