<svg width="808" height="889" viewBox="0 0 808 889" fill="none" xmlns="http://www.w3.org/2000/svg">
<g filter="url(#filter0_d_123_127)">
<rect x="6" y="2" width="796" height="877" rx="30.9" fill="white"/>
</g>
<path d="M166 787H754" stroke="#A9A5A5"/>
<path d="M166 679H754" stroke="#A9A5A5"/>
<path d="M166 575H754" stroke="#A9A5A5"/>
<path d="M166 467H754" stroke="#A9A5A5"/>
<path d="M147.912 785.37V787.762C147.912 788.804 147.814 789.712 147.619 790.487C147.424 791.255 147.137 791.893 146.76 792.401C146.389 792.902 145.933 793.277 145.393 793.524C144.859 793.771 144.247 793.895 143.557 793.895C143.01 793.895 142.508 793.817 142.053 793.661C141.597 793.504 141.19 793.267 140.832 792.948C140.48 792.622 140.181 792.215 139.934 791.727C139.686 791.239 139.497 790.666 139.367 790.008C139.237 789.344 139.172 788.596 139.172 787.762V785.37C139.172 784.321 139.27 783.417 139.465 782.655C139.667 781.893 139.953 781.262 140.324 780.76C140.702 780.259 141.161 779.888 141.701 779.647C142.242 779.4 142.854 779.276 143.537 779.276C144.084 779.276 144.585 779.357 145.041 779.52C145.503 779.676 145.91 779.911 146.262 780.223C146.62 780.536 146.919 780.936 147.16 781.424C147.408 781.906 147.593 782.476 147.717 783.133C147.847 783.791 147.912 784.536 147.912 785.37ZM146.75 787.899V785.223C146.75 784.579 146.704 783.993 146.613 783.465C146.529 782.938 146.402 782.476 146.232 782.079C146.063 781.681 145.848 781.349 145.588 781.083C145.334 780.816 145.035 780.617 144.689 780.487C144.351 780.35 143.967 780.282 143.537 780.282C143.01 780.282 142.544 780.389 142.141 780.604C141.743 780.812 141.411 781.125 141.145 781.542C140.878 781.952 140.676 782.466 140.539 783.084C140.409 783.703 140.344 784.416 140.344 785.223V787.899C140.344 788.537 140.386 789.12 140.471 789.647C140.555 790.168 140.686 790.63 140.861 791.034C141.037 791.437 141.252 791.779 141.506 792.059C141.766 792.333 142.066 792.541 142.404 792.684C142.749 792.821 143.133 792.889 143.557 792.889C144.097 792.889 144.566 792.782 144.963 792.567C145.36 792.346 145.692 792.023 145.959 791.6C146.226 791.17 146.424 790.646 146.555 790.028C146.685 789.403 146.75 788.693 146.75 787.899Z" fill="#3C3636"/>
<path d="M126.244 685.694V686.7H117.348V685.792L122.006 680.508C122.585 679.851 123.048 679.275 123.393 678.78C123.738 678.278 123.985 677.823 124.135 677.413C124.291 676.996 124.369 676.592 124.369 676.202C124.369 675.629 124.255 675.124 124.027 674.688C123.806 674.252 123.474 673.91 123.031 673.663C122.589 673.415 122.042 673.292 121.391 673.292C120.74 673.292 120.173 673.431 119.691 673.711C119.21 673.991 118.839 674.382 118.578 674.883C118.324 675.378 118.197 675.941 118.197 676.573H117.035C117.035 675.792 117.208 675.075 117.553 674.424C117.904 673.773 118.406 673.256 119.057 672.872C119.708 672.481 120.486 672.286 121.391 672.286C122.25 672.286 122.989 672.439 123.607 672.745C124.226 673.044 124.701 673.477 125.033 674.043C125.372 674.61 125.541 675.293 125.541 676.094C125.541 676.524 125.463 676.957 125.307 677.393C125.157 677.829 124.949 678.265 124.682 678.702C124.421 679.131 124.122 679.558 123.783 679.981C123.451 680.404 123.103 680.821 122.738 681.231L118.773 685.694H126.244ZM130.15 679.668L129.232 679.405L129.926 672.481H137.035V673.575H130.922L130.424 678.36C130.671 678.184 131.029 678.012 131.498 677.842C131.973 677.667 132.507 677.579 133.1 677.579C133.731 677.579 134.304 677.686 134.818 677.901C135.339 678.109 135.785 678.415 136.156 678.819C136.527 679.216 136.814 679.698 137.016 680.264C137.217 680.824 137.318 681.459 137.318 682.168C137.318 682.852 137.234 683.48 137.064 684.053C136.895 684.626 136.638 685.127 136.293 685.557C135.948 685.98 135.508 686.309 134.975 686.543C134.441 686.778 133.806 686.895 133.07 686.895C132.504 686.895 131.97 686.817 131.469 686.661C130.974 686.498 130.531 686.254 130.141 685.928C129.75 685.603 129.431 685.193 129.184 684.698C128.943 684.203 128.793 683.624 128.734 682.959H129.857C129.936 683.597 130.108 684.135 130.375 684.571C130.642 685.007 131 685.336 131.449 685.557C131.905 685.778 132.445 685.889 133.07 685.889C133.578 685.889 134.021 685.808 134.398 685.645C134.783 685.482 135.102 685.245 135.355 684.932C135.616 684.613 135.811 684.226 135.941 683.77C136.078 683.308 136.146 682.78 136.146 682.188C136.146 681.68 136.075 681.215 135.932 680.792C135.788 680.362 135.577 679.987 135.297 679.668C135.023 679.343 134.685 679.092 134.281 678.917C133.878 678.741 133.415 678.653 132.895 678.653C132.217 678.653 131.677 678.744 131.273 678.926C130.876 679.109 130.502 679.356 130.15 679.668ZM148.1 678.37V680.762C148.1 681.804 148.002 682.712 147.807 683.487C147.611 684.255 147.325 684.893 146.947 685.401C146.576 685.902 146.12 686.277 145.58 686.524C145.046 686.771 144.434 686.895 143.744 686.895C143.197 686.895 142.696 686.817 142.24 686.661C141.785 686.504 141.378 686.267 141.02 685.948C140.668 685.622 140.368 685.215 140.121 684.727C139.874 684.239 139.685 683.666 139.555 683.008C139.424 682.344 139.359 681.596 139.359 680.762V678.37C139.359 677.321 139.457 676.417 139.652 675.655C139.854 674.893 140.141 674.262 140.512 673.76C140.889 673.259 141.348 672.888 141.889 672.647C142.429 672.4 143.041 672.276 143.725 672.276C144.271 672.276 144.773 672.357 145.229 672.52C145.691 672.676 146.098 672.911 146.449 673.223C146.807 673.536 147.107 673.936 147.348 674.424C147.595 674.906 147.781 675.476 147.904 676.133C148.035 676.791 148.1 677.536 148.1 678.37ZM146.938 680.899V678.223C146.938 677.579 146.892 676.993 146.801 676.465C146.716 675.938 146.589 675.476 146.42 675.079C146.251 674.681 146.036 674.349 145.775 674.083C145.521 673.816 145.222 673.617 144.877 673.487C144.538 673.35 144.154 673.282 143.725 673.282C143.197 673.282 142.732 673.389 142.328 673.604C141.931 673.812 141.599 674.125 141.332 674.542C141.065 674.952 140.863 675.466 140.727 676.084C140.596 676.703 140.531 677.416 140.531 678.223V680.899C140.531 681.537 140.574 682.12 140.658 682.647C140.743 683.168 140.873 683.63 141.049 684.034C141.225 684.437 141.439 684.779 141.693 685.059C141.954 685.333 142.253 685.541 142.592 685.684C142.937 685.821 143.321 685.889 143.744 685.889C144.285 685.889 144.753 685.782 145.15 685.567C145.548 685.346 145.88 685.023 146.146 684.6C146.413 684.17 146.612 683.646 146.742 683.028C146.872 682.403 146.938 681.693 146.938 680.899Z" fill="#3C3636"/>
<path d="M126.098 567.481V568.155L120.023 581.7H118.812L124.848 568.487H116.752V567.481H126.098ZM130.15 574.668L129.232 574.405L129.926 567.481H137.035V568.575H130.922L130.424 573.36C130.671 573.184 131.029 573.012 131.498 572.842C131.973 572.667 132.507 572.579 133.1 572.579C133.731 572.579 134.304 572.686 134.818 572.901C135.339 573.109 135.785 573.415 136.156 573.819C136.527 574.216 136.814 574.698 137.016 575.264C137.217 575.824 137.318 576.459 137.318 577.168C137.318 577.852 137.234 578.48 137.064 579.053C136.895 579.626 136.638 580.127 136.293 580.557C135.948 580.98 135.508 581.309 134.975 581.543C134.441 581.778 133.806 581.895 133.07 581.895C132.504 581.895 131.97 581.817 131.469 581.661C130.974 581.498 130.531 581.254 130.141 580.928C129.75 580.603 129.431 580.193 129.184 579.698C128.943 579.203 128.793 578.624 128.734 577.959H129.857C129.936 578.597 130.108 579.135 130.375 579.571C130.642 580.007 131 580.336 131.449 580.557C131.905 580.778 132.445 580.889 133.07 580.889C133.578 580.889 134.021 580.808 134.398 580.645C134.783 580.482 135.102 580.245 135.355 579.932C135.616 579.613 135.811 579.226 135.941 578.77C136.078 578.308 136.146 577.78 136.146 577.188C136.146 576.68 136.075 576.215 135.932 575.792C135.788 575.362 135.577 574.987 135.297 574.668C135.023 574.343 134.685 574.092 134.281 573.917C133.878 573.741 133.415 573.653 132.895 573.653C132.217 573.653 131.677 573.744 131.273 573.926C130.876 574.109 130.502 574.356 130.15 574.668ZM148.1 573.37V575.762C148.1 576.804 148.002 577.712 147.807 578.487C147.611 579.255 147.325 579.893 146.947 580.401C146.576 580.902 146.12 581.277 145.58 581.524C145.046 581.771 144.434 581.895 143.744 581.895C143.197 581.895 142.696 581.817 142.24 581.661C141.785 581.504 141.378 581.267 141.02 580.948C140.668 580.622 140.368 580.215 140.121 579.727C139.874 579.239 139.685 578.666 139.555 578.008C139.424 577.344 139.359 576.596 139.359 575.762V573.37C139.359 572.321 139.457 571.417 139.652 570.655C139.854 569.893 140.141 569.262 140.512 568.76C140.889 568.259 141.348 567.888 141.889 567.647C142.429 567.4 143.041 567.276 143.725 567.276C144.271 567.276 144.773 567.357 145.229 567.52C145.691 567.676 146.098 567.911 146.449 568.223C146.807 568.536 147.107 568.936 147.348 569.424C147.595 569.906 147.781 570.476 147.904 571.133C148.035 571.791 148.1 572.536 148.1 573.37ZM146.938 575.899V573.223C146.938 572.579 146.892 571.993 146.801 571.465C146.716 570.938 146.589 570.476 146.42 570.079C146.251 569.681 146.036 569.349 145.775 569.083C145.521 568.816 145.222 568.617 144.877 568.487C144.538 568.35 144.154 568.282 143.725 568.282C143.197 568.282 142.732 568.389 142.328 568.604C141.931 568.812 141.599 569.125 141.332 569.542C141.065 569.952 140.863 570.466 140.727 571.084C140.596 571.703 140.531 572.416 140.531 573.223V575.899C140.531 576.537 140.574 577.12 140.658 577.647C140.743 578.168 140.873 578.63 141.049 579.034C141.225 579.437 141.439 579.779 141.693 580.059C141.954 580.333 142.253 580.541 142.592 580.684C142.937 580.821 143.321 580.889 143.744 580.889C144.285 580.889 144.753 580.782 145.15 580.567C145.548 580.346 145.88 580.023 146.146 579.6C146.413 579.17 146.612 578.646 146.742 578.028C146.872 577.403 146.938 576.693 146.938 575.899Z" fill="#3C3636"/>
<path d="M111.777 459.422V473.7H110.615V460.897L106.748 462.333V461.229L111.582 459.422H111.777ZM126.006 465.37V467.762C126.006 468.804 125.908 469.712 125.713 470.487C125.518 471.255 125.231 471.893 124.854 472.401C124.482 472.902 124.027 473.277 123.486 473.524C122.952 473.771 122.34 473.895 121.65 473.895C121.104 473.895 120.602 473.817 120.146 473.661C119.691 473.504 119.284 473.267 118.926 472.948C118.574 472.622 118.275 472.215 118.027 471.727C117.78 471.239 117.591 470.666 117.461 470.008C117.331 469.344 117.266 468.596 117.266 467.762V465.37C117.266 464.321 117.363 463.417 117.559 462.655C117.76 461.893 118.047 461.262 118.418 460.76C118.796 460.259 119.255 459.888 119.795 459.647C120.335 459.4 120.947 459.276 121.631 459.276C122.178 459.276 122.679 459.357 123.135 459.52C123.597 459.676 124.004 459.911 124.355 460.223C124.714 460.536 125.013 460.936 125.254 461.424C125.501 461.906 125.687 462.476 125.811 463.133C125.941 463.791 126.006 464.536 126.006 465.37ZM124.844 467.899V465.223C124.844 464.579 124.798 463.993 124.707 463.465C124.622 462.938 124.495 462.476 124.326 462.079C124.157 461.681 123.942 461.349 123.682 461.083C123.428 460.816 123.128 460.617 122.783 460.487C122.445 460.35 122.061 460.282 121.631 460.282C121.104 460.282 120.638 460.389 120.234 460.604C119.837 460.812 119.505 461.125 119.238 461.542C118.971 461.952 118.77 462.466 118.633 463.084C118.503 463.703 118.438 464.416 118.438 465.223V467.899C118.438 468.537 118.48 469.12 118.564 469.647C118.649 470.168 118.779 470.63 118.955 471.034C119.131 471.437 119.346 471.779 119.6 472.059C119.86 472.333 120.16 472.541 120.498 472.684C120.843 472.821 121.227 472.889 121.65 472.889C122.191 472.889 122.66 472.782 123.057 472.567C123.454 472.346 123.786 472.023 124.053 471.6C124.32 471.17 124.518 470.646 124.648 470.028C124.779 469.403 124.844 468.693 124.844 467.899ZM137.1 465.37V467.762C137.1 468.804 137.002 469.712 136.807 470.487C136.611 471.255 136.325 471.893 135.947 472.401C135.576 472.902 135.12 473.277 134.58 473.524C134.046 473.771 133.434 473.895 132.744 473.895C132.197 473.895 131.696 473.817 131.24 473.661C130.785 473.504 130.378 473.267 130.02 472.948C129.668 472.622 129.368 472.215 129.121 471.727C128.874 471.239 128.685 470.666 128.555 470.008C128.424 469.344 128.359 468.596 128.359 467.762V465.37C128.359 464.321 128.457 463.417 128.652 462.655C128.854 461.893 129.141 461.262 129.512 460.76C129.889 460.259 130.348 459.888 130.889 459.647C131.429 459.4 132.041 459.276 132.725 459.276C133.271 459.276 133.773 459.357 134.229 459.52C134.691 459.676 135.098 459.911 135.449 460.223C135.807 460.536 136.107 460.936 136.348 461.424C136.595 461.906 136.781 462.476 136.904 463.133C137.035 463.791 137.1 464.536 137.1 465.37ZM135.938 467.899V465.223C135.938 464.579 135.892 463.993 135.801 463.465C135.716 462.938 135.589 462.476 135.42 462.079C135.251 461.681 135.036 461.349 134.775 461.083C134.521 460.816 134.222 460.617 133.877 460.487C133.538 460.35 133.154 460.282 132.725 460.282C132.197 460.282 131.732 460.389 131.328 460.604C130.931 460.812 130.599 461.125 130.332 461.542C130.065 461.952 129.863 462.466 129.727 463.084C129.596 463.703 129.531 464.416 129.531 465.223V467.899C129.531 468.537 129.574 469.12 129.658 469.647C129.743 470.168 129.873 470.63 130.049 471.034C130.225 471.437 130.439 471.779 130.693 472.059C130.954 472.333 131.253 472.541 131.592 472.684C131.937 472.821 132.321 472.889 132.744 472.889C133.285 472.889 133.753 472.782 134.15 472.567C134.548 472.346 134.88 472.023 135.146 471.6C135.413 471.17 135.612 470.646 135.742 470.028C135.872 469.403 135.938 468.693 135.938 467.899ZM148.193 465.37V467.762C148.193 468.804 148.096 469.712 147.9 470.487C147.705 471.255 147.419 471.893 147.041 472.401C146.67 472.902 146.214 473.277 145.674 473.524C145.14 473.771 144.528 473.895 143.838 473.895C143.291 473.895 142.79 473.817 142.334 473.661C141.878 473.504 141.471 473.267 141.113 472.948C140.762 472.622 140.462 472.215 140.215 471.727C139.967 471.239 139.779 470.666 139.648 470.008C139.518 469.344 139.453 468.596 139.453 467.762V465.37C139.453 464.321 139.551 463.417 139.746 462.655C139.948 461.893 140.234 461.262 140.605 460.76C140.983 460.259 141.442 459.888 141.982 459.647C142.523 459.4 143.135 459.276 143.818 459.276C144.365 459.276 144.867 459.357 145.322 459.52C145.785 459.676 146.191 459.911 146.543 460.223C146.901 460.536 147.201 460.936 147.441 461.424C147.689 461.906 147.874 462.476 147.998 463.133C148.128 463.791 148.193 464.536 148.193 465.37ZM147.031 467.899V465.223C147.031 464.579 146.986 463.993 146.895 463.465C146.81 462.938 146.683 462.476 146.514 462.079C146.344 461.681 146.13 461.349 145.869 461.083C145.615 460.816 145.316 460.617 144.971 460.487C144.632 460.35 144.248 460.282 143.818 460.282C143.291 460.282 142.826 460.389 142.422 460.604C142.025 460.812 141.693 461.125 141.426 461.542C141.159 461.952 140.957 462.466 140.82 463.084C140.69 463.703 140.625 464.416 140.625 465.223V467.899C140.625 468.537 140.667 469.12 140.752 469.647C140.837 470.168 140.967 470.63 141.143 471.034C141.318 471.437 141.533 471.779 141.787 472.059C142.048 472.333 142.347 472.541 142.686 472.684C143.031 472.821 143.415 472.889 143.838 472.889C144.378 472.889 144.847 472.782 145.244 472.567C145.641 472.346 145.973 472.023 146.24 471.6C146.507 471.17 146.706 470.646 146.836 470.028C146.966 469.403 147.031 468.693 147.031 467.899Z" fill="#3C3636"/>
<path d="M62.6309 676.525L76 681.447L76 682.697L61.7812 677.326L61.7812 676.457L62.6309 676.525ZM76 672.053L62.6309 676.984L61.7812 677.053L61.7812 676.184L76 670.803L76 672.053ZM70.9805 672.932L72.0156 672.932L72.0156 680.48L70.9805 680.48L70.9805 672.932ZM75.1895 665.07C75.1895 664.576 75.0983 664.113 74.916 663.684C74.7272 663.247 74.4505 662.889 74.0859 662.609C73.7148 662.323 73.2624 662.16 72.7285 662.121L72.7285 661.008C73.3991 661.04 73.998 661.245 74.5254 661.623C75.0462 661.994 75.4564 662.482 75.7559 663.088C76.0488 663.687 76.1953 664.348 76.1953 665.07C76.1953 665.806 76.0618 666.457 75.7949 667.023C75.528 667.583 75.1569 668.052 74.6816 668.43C74.1999 668.807 73.64 669.094 73.002 669.289C72.3574 669.478 71.6641 669.572 70.9219 669.572L70.5117 669.572C69.7695 669.572 69.0794 669.478 68.4414 669.289C67.7969 669.094 67.237 668.807 66.7617 668.43C66.2799 668.052 65.9056 667.583 65.6387 667.023C65.3717 666.464 65.2383 665.816 65.2383 665.08C65.2383 664.325 65.3913 663.648 65.6973 663.049C66.0033 662.443 66.4362 661.962 66.9961 661.604C67.556 661.239 68.2201 661.04 68.9883 661.008L68.9883 662.121C68.4219 662.154 67.9336 662.303 67.5234 662.57C67.1133 662.837 66.7975 663.189 66.5762 663.625C66.3548 664.061 66.2441 664.546 66.2441 665.08C66.2441 665.679 66.3613 666.19 66.5957 666.613C66.8236 667.036 67.1393 667.382 67.543 667.648C67.9401 667.909 68.3958 668.101 68.9102 668.225C69.418 668.348 69.9518 668.41 70.5117 668.41L70.9219 668.41C71.4883 668.41 72.0286 668.352 72.543 668.234C73.0508 668.111 73.5033 667.919 73.9004 667.658C74.2975 667.391 74.6133 667.046 74.8477 666.623C75.0755 666.193 75.1895 665.676 75.1895 665.07ZM75.1895 654.758C75.1895 654.263 75.0983 653.801 74.916 653.371C74.7272 652.935 74.4505 652.577 74.0859 652.297C73.7148 652.01 73.2624 651.848 72.7285 651.809L72.7285 650.695C73.3991 650.728 73.998 650.933 74.5254 651.311C75.0462 651.682 75.4564 652.17 75.7559 652.775C76.0488 653.374 76.1953 654.035 76.1953 654.758C76.1953 655.493 76.0618 656.145 75.7949 656.711C75.528 657.271 75.1569 657.74 74.6816 658.117C74.1999 658.495 73.64 658.781 73.002 658.977C72.3574 659.165 71.6641 659.26 70.9219 659.26L70.5117 659.26C69.7695 659.26 69.0794 659.165 68.4414 658.977C67.7969 658.781 67.237 658.495 66.7617 658.117C66.2799 657.74 65.9056 657.271 65.6387 656.711C65.3717 656.151 65.2383 655.503 65.2383 654.768C65.2383 654.012 65.3913 653.335 65.6973 652.736C66.0033 652.131 66.4362 651.649 66.9961 651.291C67.556 650.926 68.2201 650.728 68.9883 650.695L68.9883 651.809C68.4219 651.841 67.9336 651.991 67.5234 652.258C67.1133 652.525 66.7975 652.876 66.5762 653.312C66.3548 653.749 66.2441 654.234 66.2441 654.768C66.2441 655.367 66.3613 655.878 66.5957 656.301C66.8236 656.724 67.1393 657.069 67.543 657.336C67.9401 657.596 68.3958 657.788 68.9102 657.912C69.418 658.036 69.9518 658.098 70.5117 658.098L70.9219 658.098C71.4883 658.098 72.0286 658.039 72.543 657.922C73.0508 657.798 73.5033 657.606 73.9004 657.346C74.2975 657.079 74.6133 656.734 74.8477 656.311C75.0755 655.881 75.1895 655.363 75.1895 654.758ZM70.8828 648.986L70.5605 648.986C69.7923 648.986 69.0827 648.876 68.4316 648.654C67.7806 648.433 67.2174 648.117 66.7422 647.707C66.2669 647.29 65.8991 646.792 65.6387 646.213C65.3717 645.633 65.2383 644.989 65.2383 644.279C65.2383 643.563 65.3717 642.915 65.6387 642.336C65.8991 641.757 66.2669 641.258 66.7422 640.842C67.2174 640.425 67.7806 640.106 68.4316 639.885C69.0827 639.663 69.7923 639.553 70.5605 639.553L70.8828 639.553C71.651 639.553 72.3607 639.663 73.0117 639.885C73.6562 640.106 74.2161 640.425 74.6914 640.842C75.1667 641.252 75.5378 641.747 75.8047 642.326C76.0651 642.906 76.1953 643.55 76.1953 644.26C76.1953 644.976 76.0651 645.624 75.8047 646.203C75.5378 646.783 75.1667 647.281 74.6914 647.697C74.2161 648.114 73.6562 648.433 73.0117 648.654C72.3607 648.876 71.651 648.986 70.8828 648.986ZM70.5605 647.824L70.8828 647.824C71.4622 647.824 72.0124 647.746 72.5332 647.59C73.0475 647.434 73.5065 647.206 73.9102 646.906C74.3073 646.607 74.6198 646.236 74.8477 645.793C75.0755 645.35 75.1895 644.839 75.1895 644.26C75.1895 643.687 75.0755 643.182 74.8477 642.746C74.6198 642.303 74.3073 641.932 73.9102 641.633C73.5065 641.333 73.0475 641.109 72.5332 640.959C72.0124 640.803 71.4622 640.725 70.8828 640.725L70.5605 640.725C69.9876 640.725 69.444 640.803 68.9297 640.959C68.4154 641.109 67.9564 641.337 67.5527 641.643C67.1491 641.942 66.8301 642.313 66.5957 642.756C66.3613 643.199 66.2441 643.706 66.2441 644.279C66.2441 644.852 66.3613 645.36 66.5957 645.803C66.8301 646.239 67.1491 646.61 67.5527 646.916C67.9564 647.215 68.4154 647.443 68.9297 647.6C69.444 647.749 69.9876 647.824 70.5605 647.824ZM73.5586 630.363L65.4336 630.363L65.4336 629.191L76 629.191L76 630.314L73.5586 630.363ZM71.6055 630.148L71.5859 629.543C72.25 629.543 72.862 629.621 73.4219 629.777C73.9818 629.934 74.47 630.178 74.8867 630.51C75.3034 630.842 75.6256 631.271 75.8535 631.799C76.0814 632.326 76.1953 632.961 76.1953 633.703C76.1953 634.217 76.1237 634.689 75.9805 635.119C75.8307 635.542 75.5964 635.907 75.2773 636.213C74.9583 636.519 74.5449 636.757 74.0371 636.926C73.5293 637.089 72.9141 637.17 72.1914 637.17L65.4336 637.17L65.4336 636.008L72.2109 636.008C72.7773 636.008 73.2493 635.946 73.627 635.822C74.0046 635.692 74.3073 635.516 74.5352 635.295C74.763 635.067 74.9258 634.807 75.0234 634.514C75.1211 634.221 75.1699 633.905 75.1699 633.566C75.1699 632.707 75.0039 632.03 74.6719 631.535C74.3398 631.034 73.9036 630.679 73.3633 630.471C72.8164 630.256 72.2305 630.148 71.6055 630.148ZM67.6895 624.973L76 624.973L76 626.135L65.4336 626.135L65.4336 625.021L67.6895 624.973ZM70.0625 625.236L69.7695 625.754C69.1445 625.715 68.5586 625.588 68.0117 625.373C67.4648 625.158 66.9831 624.868 66.5664 624.504C66.1497 624.133 65.8242 623.7 65.5898 623.205C65.3555 622.704 65.2383 622.15 65.2383 621.545C65.2383 621.018 65.3099 620.546 65.4531 620.129C65.5964 619.712 65.8242 619.357 66.1367 619.064C66.4492 618.771 66.8496 618.55 67.3379 618.4C67.8262 618.244 68.4219 618.166 69.125 618.166L76 618.166L76 619.338L69.1152 619.338C68.3861 619.338 67.8164 619.439 67.4062 619.641C66.9896 619.842 66.6934 620.129 66.5176 620.5C66.3418 620.871 66.2539 621.311 66.2539 621.818C66.2539 622.378 66.3776 622.87 66.625 623.293C66.8659 623.71 67.1816 624.061 67.5723 624.348C67.9564 624.628 68.3698 624.842 68.8125 624.992C69.2487 625.142 69.6654 625.223 70.0625 625.236ZM65.4336 611.145L66.3906 611.145L66.3906 616.437L65.4336 616.437L65.4336 611.145ZM62.7187 614.494L62.7187 613.332L73.4316 613.332C73.9199 613.332 74.2878 613.267 74.5352 613.137C74.7825 613.007 74.9486 612.837 75.0332 612.629C75.1178 612.421 75.1602 612.196 75.1602 611.955C75.1602 611.779 75.1504 611.61 75.1309 611.447C75.1048 611.285 75.0788 611.138 75.0527 611.008L76.0391 610.959C76.0846 611.102 76.1204 611.288 76.1465 611.516C76.179 611.743 76.1953 611.971 76.1953 612.199C76.1953 612.648 76.1139 613.046 75.9512 613.391C75.7819 613.736 75.4954 614.006 75.0918 614.201C74.6816 614.396 74.125 614.494 73.4219 614.494L62.7187 614.494Z" fill="#3C3636"/>
<path d="M69.0625 59.2656L61.5312 80H58.4531L67.125 57.25H69.1094L69.0625 59.2656ZM75.375 80L67.8281 59.2656L67.7812 57.25H69.7656L78.4688 80H75.375ZM74.9844 71.5781V74.0469H62.2031V71.5781H74.9844ZM83.9688 66.7031V80H81.0781V63.0938H83.8125L83.9688 66.7031ZM83.2812 70.9062L82.0781 70.8594C82.0885 69.7031 82.2604 68.6354 82.5938 67.6562C82.9271 66.6667 83.3958 65.8073 84 65.0781C84.6042 64.349 85.3229 63.7865 86.1562 63.3906C87 62.9844 87.9323 62.7812 88.9531 62.7812C89.7865 62.7812 90.5365 62.8958 91.2031 63.125C91.8698 63.3438 92.4375 63.6979 92.9062 64.1875C93.3854 64.6771 93.75 65.3125 94 66.0938C94.25 66.8646 94.375 67.8073 94.375 68.9219V80H91.4688V68.8906C91.4688 68.0052 91.3385 67.2969 91.0781 66.7656C90.8177 66.224 90.4375 65.8333 89.9375 65.5938C89.4375 65.3438 88.8229 65.2188 88.0938 65.2188C87.375 65.2188 86.7188 65.3698 86.125 65.6719C85.5417 65.974 85.0365 66.3906 84.6094 66.9219C84.1927 67.4531 83.8646 68.0625 83.625 68.75C83.3958 69.4271 83.2812 70.1458 83.2812 70.9062ZM108.734 77.1094V68.4062C108.734 67.7396 108.599 67.1615 108.328 66.6719C108.068 66.1719 107.672 65.7865 107.141 65.5156C106.609 65.2448 105.953 65.1094 105.172 65.1094C104.443 65.1094 103.802 65.2344 103.25 65.4844C102.708 65.7344 102.281 66.0625 101.969 66.4688C101.667 66.875 101.516 67.3125 101.516 67.7812H98.625C98.625 67.1771 98.7812 66.5781 99.0938 65.9844C99.4062 65.3906 99.8542 64.8542 100.438 64.375C101.031 63.8854 101.74 63.5 102.562 63.2188C103.396 62.9271 104.323 62.7812 105.344 62.7812C106.573 62.7812 107.656 62.9896 108.594 63.4062C109.542 63.8229 110.281 64.4531 110.812 65.2969C111.354 66.1302 111.625 67.1771 111.625 68.4375V76.3125C111.625 76.875 111.672 77.474 111.766 78.1094C111.87 78.7448 112.021 79.2917 112.219 79.75V80H109.203C109.057 79.6667 108.943 79.224 108.859 78.6719C108.776 78.1094 108.734 77.5885 108.734 77.1094ZM109.234 69.75L109.266 71.7812H106.344C105.521 71.7812 104.786 71.849 104.141 71.9844C103.495 72.1094 102.953 72.3021 102.516 72.5625C102.078 72.8229 101.745 73.151 101.516 73.5469C101.286 73.9323 101.172 74.3854 101.172 74.9062C101.172 75.4375 101.292 75.9219 101.531 76.3594C101.771 76.7969 102.13 77.1458 102.609 77.4062C103.099 77.6562 103.698 77.7812 104.406 77.7812C105.292 77.7812 106.073 77.5938 106.75 77.2188C107.427 76.8438 107.964 76.3854 108.359 75.8438C108.766 75.3021 108.984 74.776 109.016 74.2656L110.25 75.6562C110.177 76.0938 109.979 76.5781 109.656 77.1094C109.333 77.6406 108.901 78.151 108.359 78.6406C107.828 79.1198 107.193 79.5208 106.453 79.8438C105.724 80.1562 104.901 80.3125 103.984 80.3125C102.839 80.3125 101.833 80.0885 100.969 79.6406C100.115 79.1927 99.4479 78.5938 98.9688 77.8438C98.5 77.0833 98.2656 76.2344 98.2656 75.2969C98.2656 74.3906 98.4427 73.5938 98.7969 72.9062C99.151 72.2083 99.6615 71.6302 100.328 71.1719C100.995 70.7031 101.797 70.349 102.734 70.1094C103.672 69.8698 104.719 69.75 105.875 69.75H109.234ZM119.312 56V80H116.406V56H119.312ZM128.703 78.25L133.406 63.0938H136.5L129.719 82.6094C129.562 83.026 129.354 83.474 129.094 83.9531C128.844 84.4427 128.521 84.9062 128.125 85.3438C127.729 85.7812 127.25 86.1354 126.688 86.4062C126.135 86.6875 125.474 86.8281 124.703 86.8281C124.474 86.8281 124.182 86.7969 123.828 86.7344C123.474 86.6719 123.224 86.6198 123.078 86.5781L123.062 84.2344C123.146 84.2448 123.276 84.2552 123.453 84.2656C123.641 84.2865 123.771 84.2969 123.844 84.2969C124.5 84.2969 125.057 84.2083 125.516 84.0312C125.974 83.8646 126.359 83.5781 126.672 83.1719C126.995 82.776 127.271 82.2292 127.5 81.5312L128.703 78.25ZM125.25 63.0938L129.641 76.2188L130.391 79.2656L128.312 80.3281L122.094 63.0938H125.25ZM146.188 63.0938V65.3125H137.047V63.0938H146.188ZM140.141 58.9844H143.031V75.8125C143.031 76.3854 143.12 76.8177 143.297 77.1094C143.474 77.401 143.703 77.5938 143.984 77.6875C144.266 77.7812 144.568 77.8281 144.891 77.8281C145.13 77.8281 145.38 77.8073 145.641 77.7656C145.911 77.7135 146.115 77.6719 146.25 77.6406L146.266 80C146.036 80.0729 145.734 80.1406 145.359 80.2031C144.995 80.276 144.552 80.3125 144.031 80.3125C143.323 80.3125 142.672 80.1719 142.078 79.8906C141.484 79.6094 141.01 79.1406 140.656 78.4844C140.312 77.8177 140.141 76.9219 140.141 75.7969V58.9844ZM152.719 63.0938V80H149.812V63.0938H152.719ZM149.594 58.6094C149.594 58.1406 149.734 57.7448 150.016 57.4219C150.307 57.099 150.734 56.9375 151.297 56.9375C151.849 56.9375 152.271 57.099 152.562 57.4219C152.865 57.7448 153.016 58.1406 153.016 58.6094C153.016 59.0573 152.865 59.4427 152.562 59.7656C152.271 60.0781 151.849 60.2344 151.297 60.2344C150.734 60.2344 150.307 60.0781 150.016 59.7656C149.734 59.4427 149.594 59.0573 149.594 58.6094ZM164.125 77.9375C164.812 77.9375 165.448 77.7969 166.031 77.5156C166.615 77.2344 167.094 76.849 167.469 76.3594C167.844 75.8594 168.057 75.2917 168.109 74.6562H170.859C170.807 75.6562 170.469 76.5885 169.844 77.4531C169.229 78.3073 168.422 79 167.422 79.5312C166.422 80.0521 165.323 80.3125 164.125 80.3125C162.854 80.3125 161.745 80.0885 160.797 79.6406C159.859 79.1927 159.078 78.5781 158.453 77.7969C157.839 77.0156 157.375 76.1198 157.062 75.1094C156.76 74.0885 156.609 73.0104 156.609 71.875V71.2188C156.609 70.0833 156.76 69.0104 157.062 68C157.375 66.9792 157.839 66.0781 158.453 65.2969C159.078 64.5156 159.859 63.901 160.797 63.4531C161.745 63.0052 162.854 62.7812 164.125 62.7812C165.448 62.7812 166.604 63.0521 167.594 63.5938C168.583 64.125 169.359 64.8542 169.922 65.7812C170.495 66.6979 170.807 67.7396 170.859 68.9062H168.109C168.057 68.2083 167.859 67.5781 167.516 67.0156C167.182 66.4531 166.724 66.0052 166.141 65.6719C165.568 65.3281 164.896 65.1562 164.125 65.1562C163.24 65.1562 162.495 65.3333 161.891 65.6875C161.297 66.0312 160.823 66.5 160.469 67.0938C160.125 67.6771 159.875 68.3281 159.719 69.0469C159.573 69.7552 159.5 70.4792 159.5 71.2188V71.875C159.5 72.6146 159.573 73.3438 159.719 74.0625C159.865 74.7812 160.109 75.4323 160.453 76.0156C160.807 76.599 161.281 77.0677 161.875 77.4219C162.479 77.7656 163.229 77.9375 164.125 77.9375ZM183.953 75.5156C183.953 75.099 183.859 74.7135 183.672 74.3594C183.495 73.9948 183.125 73.6667 182.562 73.375C182.01 73.0729 181.177 72.8125 180.062 72.5938C179.125 72.3958 178.276 72.1615 177.516 71.8906C176.766 71.6198 176.125 71.2917 175.594 70.9062C175.073 70.5208 174.672 70.0677 174.391 69.5469C174.109 69.026 173.969 68.4167 173.969 67.7188C173.969 67.0521 174.115 66.4219 174.406 65.8281C174.708 65.2344 175.13 64.7083 175.672 64.25C176.224 63.7917 176.885 63.4323 177.656 63.1719C178.427 62.9115 179.286 62.7812 180.234 62.7812C181.589 62.7812 182.745 63.0208 183.703 63.5C184.661 63.9792 185.396 64.6198 185.906 65.4219C186.417 66.2135 186.672 67.0938 186.672 68.0625H183.781C183.781 67.5938 183.641 67.1406 183.359 66.7031C183.089 66.2552 182.688 65.8854 182.156 65.5938C181.635 65.3021 180.995 65.1562 180.234 65.1562C179.432 65.1562 178.781 65.2812 178.281 65.5312C177.792 65.7708 177.432 66.0781 177.203 66.4531C176.984 66.8281 176.875 67.224 176.875 67.6406C176.875 67.9531 176.927 68.2344 177.031 68.4844C177.146 68.724 177.344 68.9479 177.625 69.1562C177.906 69.3542 178.302 69.5417 178.812 69.7188C179.323 69.8958 179.974 70.0729 180.766 70.25C182.151 70.5625 183.292 70.9375 184.188 71.375C185.083 71.8125 185.75 72.349 186.188 72.9844C186.625 73.6198 186.844 74.3906 186.844 75.2969C186.844 76.0365 186.688 76.7135 186.375 77.3281C186.073 77.9427 185.63 78.474 185.047 78.9219C184.474 79.3594 183.786 79.7031 182.984 79.9531C182.193 80.1927 181.302 80.3125 180.312 80.3125C178.823 80.3125 177.562 80.0469 176.531 79.5156C175.5 78.9844 174.719 78.2969 174.188 77.4531C173.656 76.6094 173.391 75.7188 173.391 74.7812H176.297C176.339 75.5729 176.568 76.2031 176.984 76.6719C177.401 77.1302 177.911 77.4583 178.516 77.6562C179.12 77.8438 179.719 77.9375 180.312 77.9375C181.104 77.9375 181.766 77.8333 182.297 77.625C182.839 77.4167 183.25 77.1302 183.531 76.7656C183.812 76.401 183.953 75.9844 183.953 75.5156Z" fill="#8C8585"/>
<path d="M62.4922 111.562H66.1445L75.4609 134.746L84.7578 111.562H88.4297L76.8672 140H74.0156L62.4922 111.562ZM61.3008 111.562H64.5234L65.0508 128.906V140H61.3008V111.562ZM86.3789 111.562H89.6016V140H85.8516V128.906L86.3789 111.562ZM94.7188 129.668V129.219C94.7188 127.695 94.9401 126.283 95.3828 124.98C95.8255 123.665 96.4635 122.526 97.2969 121.562C98.1302 120.586 99.1393 119.831 100.324 119.297C101.509 118.75 102.837 118.477 104.309 118.477C105.793 118.477 107.128 118.75 108.312 119.297C109.51 119.831 110.526 120.586 111.359 121.562C112.206 122.526 112.85 123.665 113.293 124.98C113.736 126.283 113.957 127.695 113.957 129.219V129.668C113.957 131.191 113.736 132.604 113.293 133.906C112.85 135.208 112.206 136.348 111.359 137.324C110.526 138.288 109.517 139.043 108.332 139.59C107.16 140.124 105.832 140.391 104.348 140.391C102.863 140.391 101.529 140.124 100.344 139.59C99.1589 139.043 98.1432 138.288 97.2969 137.324C96.4635 136.348 95.8255 135.208 95.3828 133.906C94.9401 132.604 94.7188 131.191 94.7188 129.668ZM98.332 129.219V129.668C98.332 130.723 98.4557 131.719 98.7031 132.656C98.9505 133.581 99.3216 134.401 99.8164 135.117C100.324 135.833 100.956 136.4 101.711 136.816C102.466 137.22 103.345 137.422 104.348 137.422C105.337 137.422 106.203 137.22 106.945 136.816C107.701 136.4 108.326 135.833 108.82 135.117C109.315 134.401 109.686 133.581 109.934 132.656C110.194 131.719 110.324 130.723 110.324 129.668V129.219C110.324 128.177 110.194 127.194 109.934 126.27C109.686 125.332 109.309 124.505 108.801 123.789C108.306 123.06 107.681 122.487 106.926 122.07C106.184 121.654 105.311 121.445 104.309 121.445C103.319 121.445 102.447 121.654 101.691 122.07C100.949 122.487 100.324 123.06 99.8164 123.789C99.3216 124.505 98.9505 125.332 98.7031 126.27C98.4557 127.194 98.332 128.177 98.332 129.219ZM122.102 123.379V140H118.488V118.867H121.906L122.102 123.379ZM121.242 128.633L119.738 128.574C119.751 127.129 119.966 125.794 120.383 124.57C120.799 123.333 121.385 122.259 122.141 121.348C122.896 120.436 123.794 119.733 124.836 119.238C125.891 118.73 127.056 118.477 128.332 118.477C129.374 118.477 130.311 118.62 131.145 118.906C131.978 119.18 132.688 119.622 133.273 120.234C133.872 120.846 134.328 121.641 134.641 122.617C134.953 123.581 135.109 124.759 135.109 126.152V140H131.477V126.113C131.477 125.007 131.314 124.121 130.988 123.457C130.663 122.78 130.188 122.292 129.562 121.992C128.938 121.68 128.169 121.523 127.258 121.523C126.359 121.523 125.539 121.712 124.797 122.09C124.068 122.467 123.436 122.988 122.902 123.652C122.382 124.316 121.971 125.078 121.672 125.938C121.385 126.784 121.242 127.682 121.242 128.633ZM149.445 118.867V121.641H138.02V118.867H149.445ZM141.887 113.73H145.5V134.766C145.5 135.482 145.611 136.022 145.832 136.387C146.053 136.751 146.34 136.992 146.691 137.109C147.043 137.227 147.421 137.285 147.824 137.285C148.124 137.285 148.436 137.259 148.762 137.207C149.1 137.142 149.354 137.09 149.523 137.051L149.543 140C149.257 140.091 148.879 140.176 148.41 140.254C147.954 140.345 147.401 140.391 146.75 140.391C145.865 140.391 145.051 140.215 144.309 139.863C143.566 139.512 142.974 138.926 142.531 138.105C142.102 137.272 141.887 136.152 141.887 134.746V113.73ZM157.297 110V140H153.684V110H157.297ZM156.438 128.633L154.934 128.574C154.947 127.129 155.161 125.794 155.578 124.57C155.995 123.333 156.581 122.259 157.336 121.348C158.091 120.436 158.99 119.733 160.031 119.238C161.086 118.73 162.251 118.477 163.527 118.477C164.569 118.477 165.507 118.62 166.34 118.906C167.173 119.18 167.883 119.622 168.469 120.234C169.068 120.846 169.523 121.641 169.836 122.617C170.148 123.581 170.305 124.759 170.305 126.152V140H166.672V126.113C166.672 125.007 166.509 124.121 166.184 123.457C165.858 122.78 165.383 122.292 164.758 121.992C164.133 121.68 163.365 121.523 162.453 121.523C161.555 121.523 160.734 121.712 159.992 122.09C159.263 122.467 158.632 122.988 158.098 123.652C157.577 124.316 157.167 125.078 156.867 125.938C156.581 126.784 156.438 127.682 156.438 128.633ZM179.641 110V140H176.008V110H179.641ZM191.379 137.812L197.258 118.867H201.125L192.648 143.262C192.453 143.783 192.193 144.342 191.867 144.941C191.555 145.553 191.151 146.133 190.656 146.68C190.161 147.227 189.562 147.669 188.859 148.008C188.169 148.359 187.342 148.535 186.379 148.535C186.092 148.535 185.728 148.496 185.285 148.418C184.842 148.34 184.53 148.275 184.348 148.223L184.328 145.293C184.432 145.306 184.595 145.319 184.816 145.332C185.051 145.358 185.214 145.371 185.305 145.371C186.125 145.371 186.822 145.26 187.395 145.039C187.967 144.831 188.449 144.473 188.84 143.965C189.243 143.47 189.589 142.786 189.875 141.914L191.379 137.812ZM187.062 118.867L192.551 135.273L193.488 139.082L190.891 140.41L183.117 118.867H187.062ZM225.344 128.848H217.746V125.781H225.344C226.815 125.781 228.007 125.547 228.918 125.078C229.829 124.609 230.493 123.958 230.91 123.125C231.34 122.292 231.555 121.341 231.555 120.273C231.555 119.297 231.34 118.379 230.91 117.52C230.493 116.66 229.829 115.97 228.918 115.449C228.007 114.915 226.815 114.648 225.344 114.648H218.625V140H214.855V111.562H225.344C227.492 111.562 229.309 111.934 230.793 112.676C232.277 113.418 233.404 114.447 234.172 115.762C234.94 117.064 235.324 118.555 235.324 120.234C235.324 122.057 234.94 123.613 234.172 124.902C233.404 126.191 232.277 127.174 230.793 127.852C229.309 128.516 227.492 128.848 225.344 128.848ZM248.039 140.391C246.568 140.391 245.233 140.143 244.035 139.648C242.85 139.141 241.828 138.431 240.969 137.52C240.122 136.608 239.471 135.527 239.016 134.277C238.56 133.027 238.332 131.66 238.332 130.176V129.355C238.332 127.637 238.586 126.107 239.094 124.766C239.602 123.411 240.292 122.266 241.164 121.328C242.036 120.391 243.026 119.681 244.133 119.199C245.24 118.717 246.385 118.477 247.57 118.477C249.081 118.477 250.383 118.737 251.477 119.258C252.583 119.779 253.488 120.508 254.191 121.445C254.895 122.37 255.415 123.464 255.754 124.727C256.092 125.977 256.262 127.344 256.262 128.828V130.449H240.48V127.5H252.648V127.227C252.596 126.289 252.401 125.378 252.062 124.492C251.737 123.607 251.216 122.878 250.5 122.305C249.784 121.732 248.807 121.445 247.57 121.445C246.75 121.445 245.995 121.621 245.305 121.973C244.615 122.311 244.022 122.819 243.527 123.496C243.033 124.173 242.648 125 242.375 125.977C242.102 126.953 241.965 128.079 241.965 129.355V130.176C241.965 131.178 242.102 132.122 242.375 133.008C242.661 133.88 243.072 134.648 243.605 135.312C244.152 135.977 244.81 136.497 245.578 136.875C246.359 137.253 247.245 137.441 248.234 137.441C249.51 137.441 250.591 137.181 251.477 136.66C252.362 136.139 253.137 135.443 253.801 134.57L255.988 136.309C255.533 136.999 254.953 137.656 254.25 138.281C253.547 138.906 252.681 139.414 251.652 139.805C250.637 140.195 249.432 140.391 248.039 140.391ZM264.094 122.188V140H260.48V118.867H263.996L264.094 122.188ZM270.695 118.75L270.676 122.109C270.376 122.044 270.09 122.005 269.816 121.992C269.556 121.966 269.257 121.953 268.918 121.953C268.085 121.953 267.349 122.083 266.711 122.344C266.073 122.604 265.533 122.969 265.09 123.438C264.647 123.906 264.296 124.466 264.035 125.117C263.788 125.755 263.625 126.458 263.547 127.227L262.531 127.812C262.531 126.536 262.655 125.339 262.902 124.219C263.163 123.099 263.56 122.109 264.094 121.25C264.628 120.378 265.305 119.701 266.125 119.219C266.958 118.724 267.948 118.477 269.094 118.477C269.354 118.477 269.654 118.509 269.992 118.574C270.331 118.626 270.565 118.685 270.695 118.75ZM279.738 140H276.125V116.641C276.125 115.117 276.398 113.835 276.945 112.793C277.505 111.738 278.306 110.944 279.348 110.41C280.389 109.863 281.626 109.59 283.059 109.59C283.475 109.59 283.892 109.616 284.309 109.668C284.738 109.72 285.155 109.798 285.559 109.902L285.363 112.852C285.09 112.786 284.777 112.741 284.426 112.715C284.087 112.689 283.749 112.676 283.41 112.676C282.642 112.676 281.978 112.832 281.418 113.145C280.871 113.444 280.454 113.887 280.168 114.473C279.882 115.059 279.738 115.781 279.738 116.641V140ZM284.23 118.867V121.641H272.785V118.867H284.23ZM287.297 129.668V129.219C287.297 127.695 287.518 126.283 287.961 124.98C288.404 123.665 289.042 122.526 289.875 121.562C290.708 120.586 291.717 119.831 292.902 119.297C294.087 118.75 295.415 118.477 296.887 118.477C298.371 118.477 299.706 118.75 300.891 119.297C302.089 119.831 303.104 120.586 303.938 121.562C304.784 122.526 305.428 123.665 305.871 124.98C306.314 126.283 306.535 127.695 306.535 129.219V129.668C306.535 131.191 306.314 132.604 305.871 133.906C305.428 135.208 304.784 136.348 303.938 137.324C303.104 138.288 302.095 139.043 300.91 139.59C299.738 140.124 298.41 140.391 296.926 140.391C295.441 140.391 294.107 140.124 292.922 139.59C291.737 139.043 290.721 138.288 289.875 137.324C289.042 136.348 288.404 135.208 287.961 133.906C287.518 132.604 287.297 131.191 287.297 129.668ZM290.91 129.219V129.668C290.91 130.723 291.034 131.719 291.281 132.656C291.529 133.581 291.9 134.401 292.395 135.117C292.902 135.833 293.534 136.4 294.289 136.816C295.044 137.22 295.923 137.422 296.926 137.422C297.915 137.422 298.781 137.22 299.523 136.816C300.279 136.4 300.904 135.833 301.398 135.117C301.893 134.401 302.264 133.581 302.512 132.656C302.772 131.719 302.902 130.723 302.902 129.668V129.219C302.902 128.177 302.772 127.194 302.512 126.27C302.264 125.332 301.887 124.505 301.379 123.789C300.884 123.06 300.259 122.487 299.504 122.07C298.762 121.654 297.889 121.445 296.887 121.445C295.897 121.445 295.025 121.654 294.27 122.07C293.527 122.487 292.902 123.06 292.395 123.789C291.9 124.505 291.529 125.332 291.281 126.27C291.034 127.194 290.91 128.177 290.91 129.219ZM314.68 122.188V140H311.066V118.867H314.582L314.68 122.188ZM321.281 118.75L321.262 122.109C320.962 122.044 320.676 122.005 320.402 121.992C320.142 121.966 319.842 121.953 319.504 121.953C318.671 121.953 317.935 122.083 317.297 122.344C316.659 122.604 316.118 122.969 315.676 123.438C315.233 123.906 314.882 124.466 314.621 125.117C314.374 125.755 314.211 126.458 314.133 127.227L313.117 127.812C313.117 126.536 313.241 125.339 313.488 124.219C313.749 123.099 314.146 122.109 314.68 121.25C315.214 120.378 315.891 119.701 316.711 119.219C317.544 118.724 318.534 118.477 319.68 118.477C319.94 118.477 320.24 118.509 320.578 118.574C320.917 118.626 321.151 118.685 321.281 118.75ZM328.215 123.066V140H324.582V118.867H328.02L328.215 123.066ZM327.473 128.633L325.793 128.574C325.806 127.129 325.995 125.794 326.359 124.57C326.724 123.333 327.264 122.259 327.98 121.348C328.697 120.436 329.589 119.733 330.656 119.238C331.724 118.73 332.961 118.477 334.367 118.477C335.357 118.477 336.268 118.62 337.102 118.906C337.935 119.18 338.658 119.616 339.27 120.215C339.882 120.814 340.357 121.582 340.695 122.52C341.034 123.457 341.203 124.59 341.203 125.918V140H337.59V126.094C337.59 124.987 337.401 124.102 337.023 123.438C336.659 122.773 336.138 122.292 335.461 121.992C334.784 121.68 333.99 121.523 333.078 121.523C332.01 121.523 331.118 121.712 330.402 122.09C329.686 122.467 329.113 122.988 328.684 123.652C328.254 124.316 327.941 125.078 327.746 125.938C327.564 126.784 327.473 127.682 327.473 128.633ZM341.164 126.641L338.742 127.383C338.755 126.224 338.944 125.111 339.309 124.043C339.686 122.975 340.227 122.025 340.93 121.191C341.646 120.358 342.525 119.701 343.566 119.219C344.608 118.724 345.799 118.477 347.141 118.477C348.273 118.477 349.276 118.626 350.148 118.926C351.034 119.225 351.776 119.688 352.375 120.312C352.987 120.924 353.449 121.712 353.762 122.676C354.074 123.639 354.23 124.785 354.23 126.113V140H350.598V126.074C350.598 124.889 350.409 123.971 350.031 123.32C349.667 122.656 349.146 122.194 348.469 121.934C347.805 121.66 347.01 121.523 346.086 121.523C345.292 121.523 344.589 121.66 343.977 121.934C343.365 122.207 342.85 122.585 342.434 123.066C342.017 123.535 341.698 124.076 341.477 124.688C341.268 125.299 341.164 125.951 341.164 126.641ZM372.16 136.387V125.508C372.16 124.674 371.991 123.952 371.652 123.34C371.327 122.715 370.832 122.233 370.168 121.895C369.504 121.556 368.684 121.387 367.707 121.387C366.796 121.387 365.995 121.543 365.305 121.855C364.628 122.168 364.094 122.578 363.703 123.086C363.326 123.594 363.137 124.141 363.137 124.727H359.523C359.523 123.971 359.719 123.223 360.109 122.48C360.5 121.738 361.06 121.068 361.789 120.469C362.531 119.857 363.417 119.375 364.445 119.023C365.487 118.659 366.646 118.477 367.922 118.477C369.458 118.477 370.812 118.737 371.984 119.258C373.169 119.779 374.094 120.566 374.758 121.621C375.435 122.663 375.773 123.971 375.773 125.547V135.391C375.773 136.094 375.832 136.842 375.949 137.637C376.079 138.431 376.268 139.115 376.516 139.688V140H372.746C372.564 139.583 372.421 139.03 372.316 138.34C372.212 137.637 372.16 136.986 372.16 136.387ZM372.785 127.188L372.824 129.727H369.172C368.143 129.727 367.225 129.811 366.418 129.98C365.611 130.137 364.934 130.378 364.387 130.703C363.84 131.029 363.423 131.439 363.137 131.934C362.85 132.415 362.707 132.982 362.707 133.633C362.707 134.297 362.857 134.902 363.156 135.449C363.456 135.996 363.905 136.432 364.504 136.758C365.116 137.07 365.865 137.227 366.75 137.227C367.857 137.227 368.833 136.992 369.68 136.523C370.526 136.055 371.197 135.482 371.691 134.805C372.199 134.128 372.473 133.47 372.512 132.832L374.055 134.57C373.964 135.117 373.716 135.723 373.312 136.387C372.909 137.051 372.368 137.689 371.691 138.301C371.027 138.9 370.233 139.401 369.309 139.805C368.397 140.195 367.368 140.391 366.223 140.391C364.79 140.391 363.534 140.111 362.453 139.551C361.385 138.991 360.552 138.242 359.953 137.305C359.367 136.354 359.074 135.293 359.074 134.121C359.074 132.988 359.296 131.992 359.738 131.133C360.181 130.26 360.819 129.538 361.652 128.965C362.486 128.379 363.488 127.936 364.66 127.637C365.832 127.337 367.141 127.188 368.586 127.188H372.785ZM385.07 123.379V140H381.457V118.867H384.875L385.07 123.379ZM384.211 128.633L382.707 128.574C382.72 127.129 382.935 125.794 383.352 124.57C383.768 123.333 384.354 122.259 385.109 121.348C385.865 120.436 386.763 119.733 387.805 119.238C388.859 118.73 390.025 118.477 391.301 118.477C392.342 118.477 393.28 118.62 394.113 118.906C394.947 119.18 395.656 119.622 396.242 120.234C396.841 120.846 397.297 121.641 397.609 122.617C397.922 123.581 398.078 124.759 398.078 126.152V140H394.445V126.113C394.445 125.007 394.283 124.121 393.957 123.457C393.632 122.78 393.156 122.292 392.531 121.992C391.906 121.68 391.138 121.523 390.227 121.523C389.328 121.523 388.508 121.712 387.766 122.09C387.036 122.467 386.405 122.988 385.871 123.652C385.35 124.316 384.94 125.078 384.641 125.938C384.354 126.784 384.211 127.682 384.211 128.633ZM412.023 137.422C412.883 137.422 413.677 137.246 414.406 136.895C415.135 136.543 415.734 136.061 416.203 135.449C416.672 134.824 416.939 134.115 417.004 133.32H420.441C420.376 134.57 419.953 135.736 419.172 136.816C418.404 137.884 417.395 138.75 416.145 139.414C414.895 140.065 413.521 140.391 412.023 140.391C410.435 140.391 409.048 140.111 407.863 139.551C406.691 138.991 405.715 138.223 404.934 137.246C404.165 136.27 403.586 135.15 403.195 133.887C402.818 132.611 402.629 131.263 402.629 129.844V129.023C402.629 127.604 402.818 126.263 403.195 125C403.586 123.724 404.165 122.598 404.934 121.621C405.715 120.645 406.691 119.876 407.863 119.316C409.048 118.757 410.435 118.477 412.023 118.477C413.677 118.477 415.122 118.815 416.359 119.492C417.596 120.156 418.566 121.068 419.27 122.227C419.986 123.372 420.376 124.674 420.441 126.133H417.004C416.939 125.26 416.691 124.473 416.262 123.77C415.845 123.066 415.272 122.507 414.543 122.09C413.827 121.66 412.987 121.445 412.023 121.445C410.917 121.445 409.986 121.667 409.23 122.109C408.488 122.539 407.896 123.125 407.453 123.867C407.023 124.596 406.711 125.41 406.516 126.309C406.333 127.194 406.242 128.099 406.242 129.023V129.844C406.242 130.768 406.333 131.68 406.516 132.578C406.698 133.477 407.004 134.29 407.434 135.02C407.876 135.749 408.469 136.335 409.211 136.777C409.966 137.207 410.904 137.422 412.023 137.422ZM433.273 140.391C431.802 140.391 430.467 140.143 429.27 139.648C428.085 139.141 427.062 138.431 426.203 137.52C425.357 136.608 424.706 135.527 424.25 134.277C423.794 133.027 423.566 131.66 423.566 130.176V129.355C423.566 127.637 423.82 126.107 424.328 124.766C424.836 123.411 425.526 122.266 426.398 121.328C427.271 120.391 428.26 119.681 429.367 119.199C430.474 118.717 431.62 118.477 432.805 118.477C434.315 118.477 435.617 118.737 436.711 119.258C437.818 119.779 438.723 120.508 439.426 121.445C440.129 122.37 440.65 123.464 440.988 124.727C441.327 125.977 441.496 127.344 441.496 128.828V130.449H425.715V127.5H437.883V127.227C437.831 126.289 437.635 125.378 437.297 124.492C436.971 123.607 436.451 122.878 435.734 122.305C435.018 121.732 434.042 121.445 432.805 121.445C431.984 121.445 431.229 121.621 430.539 121.973C429.849 122.311 429.257 122.819 428.762 123.496C428.267 124.173 427.883 125 427.609 125.977C427.336 126.953 427.199 128.079 427.199 129.355V130.176C427.199 131.178 427.336 132.122 427.609 133.008C427.896 133.88 428.306 134.648 428.84 135.312C429.387 135.977 430.044 136.497 430.812 136.875C431.594 137.253 432.479 137.441 433.469 137.441C434.745 137.441 435.826 137.181 436.711 136.66C437.596 136.139 438.371 135.443 439.035 134.57L441.223 136.309C440.767 136.999 440.188 137.656 439.484 138.281C438.781 138.906 437.915 139.414 436.887 139.805C435.871 140.195 434.667 140.391 433.273 140.391ZM78.4688 186.957H82.2188C82.0234 188.754 81.5091 190.362 80.6758 191.781C79.8424 193.201 78.6641 194.327 77.1406 195.16C75.6172 195.98 73.7161 196.391 71.4375 196.391C69.7708 196.391 68.2539 196.078 66.8867 195.453C65.5326 194.828 64.3672 193.943 63.3906 192.797C62.4141 191.638 61.6589 190.251 61.125 188.637C60.6042 187.009 60.3438 185.199 60.3438 183.207V180.375C60.3438 178.383 60.6042 176.579 61.125 174.965C61.6589 173.337 62.4206 171.944 63.4102 170.785C64.4128 169.626 65.6172 168.734 67.0234 168.109C68.4297 167.484 70.0117 167.172 71.7695 167.172C73.918 167.172 75.7344 167.576 77.2188 168.383C78.7031 169.19 79.8555 170.31 80.6758 171.742C81.5091 173.161 82.0234 174.809 82.2188 176.684H78.4688C78.2865 175.355 77.9479 174.216 77.4531 173.266C76.9583 172.302 76.2552 171.56 75.3438 171.039C74.4323 170.518 73.2409 170.258 71.7695 170.258C70.5065 170.258 69.3932 170.499 68.4297 170.98C67.4792 171.462 66.6784 172.146 66.0273 173.031C65.3893 173.917 64.9076 174.978 64.582 176.215C64.2565 177.452 64.0938 178.826 64.0938 180.336V183.207C64.0938 184.6 64.237 185.909 64.5234 187.133C64.8229 188.357 65.2721 189.431 65.8711 190.355C66.4701 191.28 67.2318 192.009 68.1562 192.543C69.0807 193.064 70.1745 193.324 71.4375 193.324C73.0391 193.324 74.3151 193.07 75.2656 192.562C76.2161 192.055 76.9323 191.326 77.4141 190.375C77.9089 189.424 78.2604 188.285 78.4688 186.957ZM85.8516 185.668V185.219C85.8516 183.695 86.0729 182.283 86.5156 180.98C86.9583 179.665 87.5964 178.526 88.4297 177.562C89.263 176.586 90.2721 175.831 91.457 175.297C92.6419 174.75 93.9701 174.477 95.4414 174.477C96.9258 174.477 98.2604 174.75 99.4453 175.297C100.643 175.831 101.659 176.586 102.492 177.562C103.339 178.526 103.983 179.665 104.426 180.98C104.868 182.283 105.09 183.695 105.09 185.219V185.668C105.09 187.191 104.868 188.604 104.426 189.906C103.983 191.208 103.339 192.348 102.492 193.324C101.659 194.288 100.65 195.043 99.4648 195.59C98.293 196.124 96.9648 196.391 95.4805 196.391C93.9961 196.391 92.6615 196.124 91.4766 195.59C90.2917 195.043 89.276 194.288 88.4297 193.324C87.5964 192.348 86.9583 191.208 86.5156 189.906C86.0729 188.604 85.8516 187.191 85.8516 185.668ZM89.4648 185.219V185.668C89.4648 186.723 89.5885 187.719 89.8359 188.656C90.0833 189.581 90.4544 190.401 90.9492 191.117C91.457 191.833 92.0885 192.4 92.8438 192.816C93.599 193.22 94.4779 193.422 95.4805 193.422C96.4701 193.422 97.3359 193.22 98.0781 192.816C98.8333 192.4 99.4583 191.833 99.9531 191.117C100.448 190.401 100.819 189.581 101.066 188.656C101.327 187.719 101.457 186.723 101.457 185.668V185.219C101.457 184.177 101.327 183.194 101.066 182.27C100.819 181.332 100.441 180.505 99.9336 179.789C99.4388 179.06 98.8138 178.487 98.0586 178.07C97.3164 177.654 96.444 177.445 95.4414 177.445C94.4518 177.445 93.5794 177.654 92.8242 178.07C92.082 178.487 91.457 179.06 90.9492 179.789C90.4544 180.505 90.0833 181.332 89.8359 182.27C89.5885 183.194 89.4648 184.177 89.4648 185.219ZM113.215 179.066V196H109.582V174.867H113.02L113.215 179.066ZM112.473 184.633L110.793 184.574C110.806 183.129 110.995 181.794 111.359 180.57C111.724 179.333 112.264 178.259 112.98 177.348C113.697 176.436 114.589 175.733 115.656 175.238C116.724 174.73 117.961 174.477 119.367 174.477C120.357 174.477 121.268 174.62 122.102 174.906C122.935 175.18 123.658 175.616 124.27 176.215C124.882 176.814 125.357 177.582 125.695 178.52C126.034 179.457 126.203 180.59 126.203 181.918V196H122.59V182.094C122.59 180.987 122.401 180.102 122.023 179.438C121.659 178.773 121.138 178.292 120.461 177.992C119.784 177.68 118.99 177.523 118.078 177.523C117.01 177.523 116.118 177.712 115.402 178.09C114.686 178.467 114.113 178.988 113.684 179.652C113.254 180.316 112.941 181.078 112.746 181.938C112.564 182.784 112.473 183.682 112.473 184.633ZM126.164 182.641L123.742 183.383C123.755 182.224 123.944 181.111 124.309 180.043C124.686 178.975 125.227 178.025 125.93 177.191C126.646 176.358 127.525 175.701 128.566 175.219C129.608 174.724 130.799 174.477 132.141 174.477C133.273 174.477 134.276 174.626 135.148 174.926C136.034 175.225 136.776 175.688 137.375 176.312C137.987 176.924 138.449 177.712 138.762 178.676C139.074 179.639 139.23 180.785 139.23 182.113V196H135.598V182.074C135.598 180.889 135.409 179.971 135.031 179.32C134.667 178.656 134.146 178.194 133.469 177.934C132.805 177.66 132.01 177.523 131.086 177.523C130.292 177.523 129.589 177.66 128.977 177.934C128.365 178.207 127.85 178.585 127.434 179.066C127.017 179.535 126.698 180.076 126.477 180.688C126.268 181.299 126.164 181.951 126.164 182.641ZM148.312 178.93V204.125H144.68V174.867H148L148.312 178.93ZM162.551 185.258V185.668C162.551 187.204 162.368 188.63 162.004 189.945C161.639 191.247 161.105 192.38 160.402 193.344C159.712 194.307 158.859 195.056 157.844 195.59C156.828 196.124 155.663 196.391 154.348 196.391C153.007 196.391 151.822 196.169 150.793 195.727C149.764 195.284 148.892 194.639 148.176 193.793C147.46 192.947 146.887 191.931 146.457 190.746C146.04 189.561 145.754 188.227 145.598 186.742V184.555C145.754 182.992 146.047 181.592 146.477 180.355C146.906 179.118 147.473 178.064 148.176 177.191C148.892 176.306 149.758 175.635 150.773 175.18C151.789 174.711 152.961 174.477 154.289 174.477C155.617 174.477 156.796 174.737 157.824 175.258C158.853 175.766 159.719 176.495 160.422 177.445C161.125 178.396 161.652 179.535 162.004 180.863C162.368 182.178 162.551 183.643 162.551 185.258ZM158.918 185.668V185.258C158.918 184.203 158.807 183.214 158.586 182.289C158.365 181.352 158.02 180.531 157.551 179.828C157.095 179.112 156.509 178.552 155.793 178.148C155.077 177.732 154.224 177.523 153.234 177.523C152.323 177.523 151.529 177.68 150.852 177.992C150.188 178.305 149.621 178.728 149.152 179.262C148.684 179.783 148.299 180.382 148 181.059C147.714 181.723 147.499 182.413 147.355 183.129V188.188C147.616 189.099 147.98 189.958 148.449 190.766C148.918 191.56 149.543 192.204 150.324 192.699C151.105 193.181 152.089 193.422 153.273 193.422C154.25 193.422 155.09 193.22 155.793 192.816C156.509 192.4 157.095 191.833 157.551 191.117C158.02 190.401 158.365 189.581 158.586 188.656C158.807 187.719 158.918 186.723 158.918 185.668ZM179.621 192.387V181.508C179.621 180.674 179.452 179.952 179.113 179.34C178.788 178.715 178.293 178.233 177.629 177.895C176.965 177.556 176.145 177.387 175.168 177.387C174.257 177.387 173.456 177.543 172.766 177.855C172.089 178.168 171.555 178.578 171.164 179.086C170.786 179.594 170.598 180.141 170.598 180.727H166.984C166.984 179.971 167.18 179.223 167.57 178.48C167.961 177.738 168.521 177.068 169.25 176.469C169.992 175.857 170.878 175.375 171.906 175.023C172.948 174.659 174.107 174.477 175.383 174.477C176.919 174.477 178.273 174.737 179.445 175.258C180.63 175.779 181.555 176.566 182.219 177.621C182.896 178.663 183.234 179.971 183.234 181.547V191.391C183.234 192.094 183.293 192.842 183.41 193.637C183.54 194.431 183.729 195.115 183.977 195.688V196H180.207C180.025 195.583 179.882 195.03 179.777 194.34C179.673 193.637 179.621 192.986 179.621 192.387ZM180.246 183.188L180.285 185.727H176.633C175.604 185.727 174.686 185.811 173.879 185.98C173.072 186.137 172.395 186.378 171.848 186.703C171.301 187.029 170.884 187.439 170.598 187.934C170.311 188.415 170.168 188.982 170.168 189.633C170.168 190.297 170.318 190.902 170.617 191.449C170.917 191.996 171.366 192.432 171.965 192.758C172.577 193.07 173.326 193.227 174.211 193.227C175.318 193.227 176.294 192.992 177.141 192.523C177.987 192.055 178.658 191.482 179.152 190.805C179.66 190.128 179.934 189.47 179.973 188.832L181.516 190.57C181.424 191.117 181.177 191.723 180.773 192.387C180.37 193.051 179.829 193.689 179.152 194.301C178.488 194.9 177.694 195.401 176.77 195.805C175.858 196.195 174.829 196.391 173.684 196.391C172.251 196.391 170.995 196.111 169.914 195.551C168.846 194.991 168.013 194.242 167.414 193.305C166.828 192.354 166.535 191.293 166.535 190.121C166.535 188.988 166.757 187.992 167.199 187.133C167.642 186.26 168.28 185.538 169.113 184.965C169.947 184.379 170.949 183.936 172.121 183.637C173.293 183.337 174.602 183.188 176.047 183.188H180.246ZM192.531 178.188V196H188.918V174.867H192.434L192.531 178.188ZM199.133 174.75L199.113 178.109C198.814 178.044 198.527 178.005 198.254 177.992C197.993 177.966 197.694 177.953 197.355 177.953C196.522 177.953 195.786 178.083 195.148 178.344C194.51 178.604 193.97 178.969 193.527 179.438C193.085 179.906 192.733 180.466 192.473 181.117C192.225 181.755 192.062 182.458 191.984 183.227L190.969 183.812C190.969 182.536 191.092 181.339 191.34 180.219C191.6 179.099 191.997 178.109 192.531 177.25C193.065 176.378 193.742 175.701 194.562 175.219C195.396 174.724 196.385 174.477 197.531 174.477C197.792 174.477 198.091 174.509 198.43 174.574C198.768 174.626 199.003 174.685 199.133 174.75ZM206.398 174.867V196H202.766V174.867H206.398ZM202.492 169.262C202.492 168.676 202.668 168.181 203.02 167.777C203.384 167.374 203.918 167.172 204.621 167.172C205.311 167.172 205.839 167.374 206.203 167.777C206.581 168.181 206.77 168.676 206.77 169.262C206.77 169.822 206.581 170.303 206.203 170.707C205.839 171.098 205.311 171.293 204.621 171.293C203.918 171.293 203.384 171.098 203.02 170.707C202.668 170.303 202.492 169.822 202.492 169.262ZM224.504 190.395C224.504 189.874 224.387 189.392 224.152 188.949C223.931 188.493 223.469 188.083 222.766 187.719C222.076 187.341 221.034 187.016 219.641 186.742C218.469 186.495 217.408 186.202 216.457 185.863C215.52 185.525 214.719 185.115 214.055 184.633C213.404 184.151 212.902 183.585 212.551 182.934C212.199 182.283 212.023 181.521 212.023 180.648C212.023 179.815 212.206 179.027 212.57 178.285C212.948 177.543 213.475 176.885 214.152 176.312C214.842 175.74 215.669 175.29 216.633 174.965C217.596 174.639 218.671 174.477 219.855 174.477C221.548 174.477 222.993 174.776 224.191 175.375C225.389 175.974 226.307 176.775 226.945 177.777C227.583 178.767 227.902 179.867 227.902 181.078H224.289C224.289 180.492 224.113 179.926 223.762 179.379C223.423 178.819 222.922 178.357 222.258 177.992C221.607 177.628 220.806 177.445 219.855 177.445C218.853 177.445 218.039 177.602 217.414 177.914C216.802 178.214 216.353 178.598 216.066 179.066C215.793 179.535 215.656 180.03 215.656 180.551C215.656 180.941 215.721 181.293 215.852 181.605C215.995 181.905 216.242 182.185 216.594 182.445C216.945 182.693 217.44 182.927 218.078 183.148C218.716 183.37 219.53 183.591 220.52 183.812C222.251 184.203 223.677 184.672 224.797 185.219C225.917 185.766 226.75 186.436 227.297 187.23C227.844 188.025 228.117 188.988 228.117 190.121C228.117 191.046 227.922 191.892 227.531 192.66C227.154 193.428 226.6 194.092 225.871 194.652C225.155 195.199 224.296 195.629 223.293 195.941C222.303 196.241 221.19 196.391 219.953 196.391C218.091 196.391 216.516 196.059 215.227 195.395C213.938 194.73 212.961 193.871 212.297 192.816C211.633 191.762 211.301 190.648 211.301 189.477H214.934C214.986 190.466 215.272 191.254 215.793 191.84C216.314 192.413 216.952 192.823 217.707 193.07C218.462 193.305 219.211 193.422 219.953 193.422C220.943 193.422 221.77 193.292 222.434 193.031C223.111 192.771 223.625 192.413 223.977 191.957C224.328 191.501 224.504 190.98 224.504 190.395ZM231.906 185.668V185.219C231.906 183.695 232.128 182.283 232.57 180.98C233.013 179.665 233.651 178.526 234.484 177.562C235.318 176.586 236.327 175.831 237.512 175.297C238.697 174.75 240.025 174.477 241.496 174.477C242.98 174.477 244.315 174.75 245.5 175.297C246.698 175.831 247.714 176.586 248.547 177.562C249.393 178.526 250.038 179.665 250.48 180.98C250.923 182.283 251.145 183.695 251.145 185.219V185.668C251.145 187.191 250.923 188.604 250.48 189.906C250.038 191.208 249.393 192.348 248.547 193.324C247.714 194.288 246.704 195.043 245.52 195.59C244.348 196.124 243.02 196.391 241.535 196.391C240.051 196.391 238.716 196.124 237.531 195.59C236.346 195.043 235.331 194.288 234.484 193.324C233.651 192.348 233.013 191.208 232.57 189.906C232.128 188.604 231.906 187.191 231.906 185.668ZM235.52 185.219V185.668C235.52 186.723 235.643 187.719 235.891 188.656C236.138 189.581 236.509 190.401 237.004 191.117C237.512 191.833 238.143 192.4 238.898 192.816C239.654 193.22 240.533 193.422 241.535 193.422C242.525 193.422 243.391 193.22 244.133 192.816C244.888 192.4 245.513 191.833 246.008 191.117C246.503 190.401 246.874 189.581 247.121 188.656C247.382 187.719 247.512 186.723 247.512 185.668V185.219C247.512 184.177 247.382 183.194 247.121 182.27C246.874 181.332 246.496 180.505 245.988 179.789C245.493 179.06 244.868 178.487 244.113 178.07C243.371 177.654 242.499 177.445 241.496 177.445C240.507 177.445 239.634 177.654 238.879 178.07C238.137 178.487 237.512 179.06 237.004 179.789C236.509 180.505 236.138 181.332 235.891 182.27C235.643 183.194 235.52 184.177 235.52 185.219ZM259.289 179.379V196H255.676V174.867H259.094L259.289 179.379ZM258.43 184.633L256.926 184.574C256.939 183.129 257.154 181.794 257.57 180.57C257.987 179.333 258.573 178.259 259.328 177.348C260.083 176.436 260.982 175.733 262.023 175.238C263.078 174.73 264.243 174.477 265.52 174.477C266.561 174.477 267.499 174.62 268.332 174.906C269.165 175.18 269.875 175.622 270.461 176.234C271.06 176.846 271.516 177.641 271.828 178.617C272.141 179.581 272.297 180.759 272.297 182.152V196H268.664V182.113C268.664 181.007 268.501 180.121 268.176 179.457C267.85 178.78 267.375 178.292 266.75 177.992C266.125 177.68 265.357 177.523 264.445 177.523C263.547 177.523 262.727 177.712 261.984 178.09C261.255 178.467 260.624 178.988 260.09 179.652C259.569 180.316 259.159 181.078 258.859 181.938C258.573 182.784 258.43 183.682 258.43 184.633ZM305.422 186.957H309.172C308.977 188.754 308.462 190.362 307.629 191.781C306.796 193.201 305.617 194.327 304.094 195.16C302.57 195.98 300.669 196.391 298.391 196.391C296.724 196.391 295.207 196.078 293.84 195.453C292.486 194.828 291.32 193.943 290.344 192.797C289.367 191.638 288.612 190.251 288.078 188.637C287.557 187.009 287.297 185.199 287.297 183.207V180.375C287.297 178.383 287.557 176.579 288.078 174.965C288.612 173.337 289.374 171.944 290.363 170.785C291.366 169.626 292.57 168.734 293.977 168.109C295.383 167.484 296.965 167.172 298.723 167.172C300.871 167.172 302.688 167.576 304.172 168.383C305.656 169.19 306.809 170.31 307.629 171.742C308.462 173.161 308.977 174.809 309.172 176.684H305.422C305.24 175.355 304.901 174.216 304.406 173.266C303.911 172.302 303.208 171.56 302.297 171.039C301.385 170.518 300.194 170.258 298.723 170.258C297.46 170.258 296.346 170.499 295.383 170.98C294.432 171.462 293.632 172.146 292.98 173.031C292.342 173.917 291.861 174.978 291.535 176.215C291.21 177.452 291.047 178.826 291.047 180.336V183.207C291.047 184.6 291.19 185.909 291.477 187.133C291.776 188.357 292.225 189.431 292.824 190.355C293.423 191.28 294.185 192.009 295.109 192.543C296.034 193.064 297.128 193.324 298.391 193.324C299.992 193.324 301.268 193.07 302.219 192.562C303.169 192.055 303.885 191.326 304.367 190.375C304.862 189.424 305.214 188.285 305.422 186.957ZM317.375 166V196H313.762V166H317.375ZM316.516 184.633L315.012 184.574C315.025 183.129 315.24 181.794 315.656 180.57C316.073 179.333 316.659 178.259 317.414 177.348C318.169 176.436 319.068 175.733 320.109 175.238C321.164 174.73 322.329 174.477 323.605 174.477C324.647 174.477 325.585 174.62 326.418 174.906C327.251 175.18 327.961 175.622 328.547 176.234C329.146 176.846 329.602 177.641 329.914 178.617C330.227 179.581 330.383 180.759 330.383 182.152V196H326.75V182.113C326.75 181.007 326.587 180.121 326.262 179.457C325.936 178.78 325.461 178.292 324.836 177.992C324.211 177.68 323.443 177.523 322.531 177.523C321.633 177.523 320.812 177.712 320.07 178.09C319.341 178.467 318.71 178.988 318.176 179.652C317.655 180.316 317.245 181.078 316.945 181.938C316.659 182.784 316.516 183.682 316.516 184.633ZM348.254 192.387V181.508C348.254 180.674 348.085 179.952 347.746 179.34C347.421 178.715 346.926 178.233 346.262 177.895C345.598 177.556 344.777 177.387 343.801 177.387C342.889 177.387 342.089 177.543 341.398 177.855C340.721 178.168 340.188 178.578 339.797 179.086C339.419 179.594 339.23 180.141 339.23 180.727H335.617C335.617 179.971 335.812 179.223 336.203 178.48C336.594 177.738 337.154 177.068 337.883 176.469C338.625 175.857 339.51 175.375 340.539 175.023C341.581 174.659 342.74 174.477 344.016 174.477C345.552 174.477 346.906 174.737 348.078 175.258C349.263 175.779 350.188 176.566 350.852 177.621C351.529 178.663 351.867 179.971 351.867 181.547V191.391C351.867 192.094 351.926 192.842 352.043 193.637C352.173 194.431 352.362 195.115 352.609 195.688V196H348.84C348.658 195.583 348.514 195.03 348.41 194.34C348.306 193.637 348.254 192.986 348.254 192.387ZM348.879 183.188L348.918 185.727H345.266C344.237 185.727 343.319 185.811 342.512 185.98C341.704 186.137 341.027 186.378 340.48 186.703C339.934 187.029 339.517 187.439 339.23 187.934C338.944 188.415 338.801 188.982 338.801 189.633C338.801 190.297 338.951 190.902 339.25 191.449C339.549 191.996 339.999 192.432 340.598 192.758C341.21 193.07 341.958 193.227 342.844 193.227C343.951 193.227 344.927 192.992 345.773 192.523C346.62 192.055 347.29 191.482 347.785 190.805C348.293 190.128 348.566 189.47 348.605 188.832L350.148 190.57C350.057 191.117 349.81 191.723 349.406 192.387C349.003 193.051 348.462 193.689 347.785 194.301C347.121 194.9 346.327 195.401 345.402 195.805C344.491 196.195 343.462 196.391 342.316 196.391C340.884 196.391 339.628 196.111 338.547 195.551C337.479 194.991 336.646 194.242 336.047 193.305C335.461 192.354 335.168 191.293 335.168 190.121C335.168 188.988 335.389 187.992 335.832 187.133C336.275 186.26 336.913 185.538 337.746 184.965C338.579 184.379 339.582 183.936 340.754 183.637C341.926 183.337 343.234 183.188 344.68 183.188H348.879ZM361.164 178.188V196H357.551V174.867H361.066L361.164 178.188ZM367.766 174.75L367.746 178.109C367.447 178.044 367.16 178.005 366.887 177.992C366.626 177.966 366.327 177.953 365.988 177.953C365.155 177.953 364.419 178.083 363.781 178.344C363.143 178.604 362.603 178.969 362.16 179.438C361.717 179.906 361.366 180.466 361.105 181.117C360.858 181.755 360.695 182.458 360.617 183.227L359.602 183.812C359.602 182.536 359.725 181.339 359.973 180.219C360.233 179.099 360.63 178.109 361.164 177.25C361.698 176.378 362.375 175.701 363.195 175.219C364.029 174.724 365.018 174.477 366.164 174.477C366.424 174.477 366.724 174.509 367.062 174.574C367.401 174.626 367.635 174.685 367.766 174.75ZM380.93 174.867V177.641H369.504V174.867H380.93ZM373.371 169.73H376.984V190.766C376.984 191.482 377.095 192.022 377.316 192.387C377.538 192.751 377.824 192.992 378.176 193.109C378.527 193.227 378.905 193.285 379.309 193.285C379.608 193.285 379.921 193.259 380.246 193.207C380.585 193.142 380.839 193.09 381.008 193.051L381.027 196C380.741 196.091 380.363 196.176 379.895 196.254C379.439 196.345 378.885 196.391 378.234 196.391C377.349 196.391 376.535 196.215 375.793 195.863C375.051 195.512 374.458 194.926 374.016 194.105C373.586 193.272 373.371 192.152 373.371 190.746V169.73ZM394.133 185.668V185.219C394.133 183.695 394.354 182.283 394.797 180.98C395.24 179.665 395.878 178.526 396.711 177.562C397.544 176.586 398.553 175.831 399.738 175.297C400.923 174.75 402.251 174.477 403.723 174.477C405.207 174.477 406.542 174.75 407.727 175.297C408.924 175.831 409.94 176.586 410.773 177.562C411.62 178.526 412.264 179.665 412.707 180.98C413.15 182.283 413.371 183.695 413.371 185.219V185.668C413.371 187.191 413.15 188.604 412.707 189.906C412.264 191.208 411.62 192.348 410.773 193.324C409.94 194.288 408.931 195.043 407.746 195.59C406.574 196.124 405.246 196.391 403.762 196.391C402.277 196.391 400.943 196.124 399.758 195.59C398.573 195.043 397.557 194.288 396.711 193.324C395.878 192.348 395.24 191.208 394.797 189.906C394.354 188.604 394.133 187.191 394.133 185.668ZM397.746 185.219V185.668C397.746 186.723 397.87 187.719 398.117 188.656C398.365 189.581 398.736 190.401 399.23 191.117C399.738 191.833 400.37 192.4 401.125 192.816C401.88 193.22 402.759 193.422 403.762 193.422C404.751 193.422 405.617 193.22 406.359 192.816C407.115 192.4 407.74 191.833 408.234 191.117C408.729 190.401 409.1 189.581 409.348 188.656C409.608 187.719 409.738 186.723 409.738 185.668V185.219C409.738 184.177 409.608 183.194 409.348 182.27C409.1 181.332 408.723 180.505 408.215 179.789C407.72 179.06 407.095 178.487 406.34 178.07C405.598 177.654 404.725 177.445 403.723 177.445C402.733 177.445 401.861 177.654 401.105 178.07C400.363 178.487 399.738 179.06 399.23 179.789C398.736 180.505 398.365 181.332 398.117 182.27C397.87 183.194 397.746 184.177 397.746 185.219ZM423.293 196H419.68V172.641C419.68 171.117 419.953 169.835 420.5 168.793C421.06 167.738 421.861 166.944 422.902 166.41C423.944 165.863 425.181 165.59 426.613 165.59C427.03 165.59 427.447 165.616 427.863 165.668C428.293 165.72 428.71 165.798 429.113 165.902L428.918 168.852C428.645 168.786 428.332 168.741 427.98 168.715C427.642 168.689 427.303 168.676 426.965 168.676C426.197 168.676 425.533 168.832 424.973 169.145C424.426 169.444 424.009 169.887 423.723 170.473C423.436 171.059 423.293 171.781 423.293 172.641V196ZM427.785 174.867V177.641H416.34V174.867H427.785ZM452.414 182.699H445.207L445.168 179.672H451.711C452.792 179.672 453.736 179.49 454.543 179.125C455.35 178.76 455.975 178.24 456.418 177.562C456.874 176.872 457.102 176.052 457.102 175.102C457.102 174.06 456.9 173.214 456.496 172.562C456.105 171.898 455.5 171.417 454.68 171.117C453.872 170.805 452.844 170.648 451.594 170.648H446.047V196H442.277V167.562H451.594C453.052 167.562 454.354 167.712 455.5 168.012C456.646 168.298 457.616 168.754 458.41 169.379C459.217 169.991 459.829 170.772 460.246 171.723C460.663 172.673 460.871 173.812 460.871 175.141C460.871 176.312 460.572 177.374 459.973 178.324C459.374 179.262 458.54 180.03 457.473 180.629C456.418 181.228 455.181 181.612 453.762 181.781L452.414 182.699ZM452.238 196H443.723L445.852 192.934H452.238C453.436 192.934 454.452 192.725 455.285 192.309C456.132 191.892 456.776 191.306 457.219 190.551C457.661 189.783 457.883 188.878 457.883 187.836C457.883 186.781 457.694 185.87 457.316 185.102C456.939 184.333 456.346 183.741 455.539 183.324C454.732 182.908 453.69 182.699 452.414 182.699H447.043L447.082 179.672H454.426L455.227 180.766C456.594 180.883 457.753 181.273 458.703 181.938C459.654 182.589 460.376 183.422 460.871 184.438C461.379 185.453 461.633 186.573 461.633 187.797C461.633 189.568 461.242 191.065 460.461 192.289C459.693 193.5 458.605 194.424 457.199 195.062C455.793 195.688 454.139 196 452.238 196ZM474.895 196H468.957L468.996 192.934H474.895C476.926 192.934 478.618 192.51 479.973 191.664C481.327 190.805 482.342 189.607 483.02 188.07C483.71 186.521 484.055 184.711 484.055 182.641V180.902C484.055 179.275 483.859 177.829 483.469 176.566C483.078 175.29 482.505 174.216 481.75 173.344C480.995 172.458 480.07 171.788 478.977 171.332C477.896 170.876 476.652 170.648 475.246 170.648H468.84V167.562H475.246C477.108 167.562 478.807 167.875 480.344 168.5C481.88 169.112 483.202 170.004 484.309 171.176C485.428 172.335 486.288 173.741 486.887 175.395C487.486 177.035 487.785 178.884 487.785 180.941V182.641C487.785 184.698 487.486 186.553 486.887 188.207C486.288 189.848 485.422 191.247 484.289 192.406C483.169 193.565 481.815 194.457 480.227 195.082C478.651 195.694 476.874 196 474.895 196ZM470.969 167.562V196H467.199V167.562H470.969ZM511.516 192.934V196H496.457V192.934H511.516ZM497.219 167.562V196H493.449V167.562H497.219ZM509.523 179.789V182.855H496.457V179.789H509.523ZM511.32 167.562V170.648H496.457V167.562H511.32ZM518.078 174.867L522.707 182.562L527.395 174.867H531.633L524.719 185.297L531.848 196H527.668L522.785 188.07L517.902 196H513.703L520.812 185.297L513.918 174.867H518.078Z" fill="#2F2E35"/>
<path d="M206 311.6C206 307.182 209.582 303.6 214 303.6H278C282.418 303.6 286 307.182 286 311.6V786.6H206V311.6Z" fill="#4334F1"/>
<path d="M492 518C492 513.582 495.582 510 500 510H564C568.418 510 572 513.582 572 518V787H492V518Z" fill="#00CF90"/>
<path d="M349 413.7C349 409.281 352.582 405.7 357 405.7H421C425.418 405.7 429 409.281 429 413.7V786.7H349V413.7Z" fill="#F255F4"/>
<path d="M635 639C635 634.582 638.582 631 643 631H707C711.418 631 715 634.582 715 639V787H635V639Z" fill="#ECD6FF"/>
<path d="M211.18 816.305L207.242 827H206.242L210.539 815.625H211.234L211.18 816.305ZM214.758 827L210.812 816.305L210.758 815.625H211.453L215.758 827H214.758ZM214.055 822.984V823.812H208.016V822.984H214.055ZM218.156 820.352V827H217.227V818.547H218.117L218.156 820.352ZM217.945 822.25L217.531 822.016C217.562 821.516 217.664 821.047 217.836 820.609C218.008 820.172 218.24 819.786 218.531 819.453C218.828 819.12 219.174 818.859 219.57 818.672C219.971 818.484 220.414 818.391 220.898 818.391C221.32 818.391 221.698 818.448 222.031 818.562C222.365 818.677 222.648 818.859 222.883 819.109C223.117 819.359 223.294 819.68 223.414 820.07C223.539 820.461 223.602 820.938 223.602 821.5V827H222.664V821.492C222.664 820.909 222.583 820.453 222.422 820.125C222.26 819.792 222.031 819.555 221.734 819.414C221.438 819.273 221.086 819.203 220.68 819.203C220.232 819.203 219.839 819.302 219.5 819.5C219.167 819.693 218.885 819.945 218.656 820.258C218.432 820.565 218.26 820.896 218.141 821.25C218.021 821.599 217.956 821.932 217.945 822.25ZM227.062 818.547V827H226.133V818.547H227.062ZM225.969 816.102C225.969 815.924 226.023 815.776 226.133 815.656C226.247 815.531 226.404 815.469 226.602 815.469C226.799 815.469 226.956 815.531 227.07 815.656C227.19 815.776 227.25 815.924 227.25 816.102C227.25 816.273 227.19 816.422 227.07 816.547C226.956 816.667 226.799 816.727 226.602 816.727C226.404 816.727 226.247 816.667 226.133 816.547C226.023 816.422 225.969 816.273 225.969 816.102ZM234.68 824.844C234.68 824.615 234.622 824.388 234.508 824.164C234.393 823.94 234.172 823.734 233.844 823.547C233.521 823.359 233.044 823.201 232.414 823.07C231.945 822.966 231.526 822.849 231.156 822.719C230.792 822.589 230.484 822.432 230.234 822.25C229.984 822.068 229.794 821.849 229.664 821.594C229.534 821.339 229.469 821.036 229.469 820.688C229.469 820.375 229.536 820.081 229.672 819.805C229.812 819.523 230.01 819.279 230.266 819.07C230.526 818.857 230.839 818.69 231.203 818.57C231.573 818.451 231.987 818.391 232.445 818.391C233.096 818.391 233.654 818.503 234.117 818.727C234.586 818.945 234.943 819.245 235.188 819.625C235.438 820.005 235.562 820.435 235.562 820.914H234.633C234.633 820.622 234.547 820.346 234.375 820.086C234.208 819.826 233.961 819.612 233.633 819.445C233.31 819.279 232.914 819.195 232.445 819.195C231.961 819.195 231.568 819.268 231.266 819.414C230.964 819.56 230.742 819.745 230.602 819.969C230.466 820.193 230.398 820.424 230.398 820.664C230.398 820.852 230.427 821.023 230.484 821.18C230.547 821.331 230.656 821.471 230.812 821.602C230.974 821.732 231.203 821.854 231.5 821.969C231.797 822.083 232.182 822.195 232.656 822.305C233.339 822.456 233.896 822.641 234.328 822.859C234.766 823.073 235.089 823.339 235.297 823.656C235.505 823.969 235.609 824.349 235.609 824.797C235.609 825.146 235.536 825.466 235.391 825.758C235.245 826.044 235.034 826.292 234.758 826.5C234.487 826.708 234.159 826.87 233.773 826.984C233.393 827.099 232.966 827.156 232.492 827.156C231.779 827.156 231.174 827.039 230.68 826.805C230.19 826.565 229.818 826.253 229.562 825.867C229.312 825.477 229.188 825.062 229.188 824.625H230.117C230.148 825.062 230.286 825.409 230.531 825.664C230.776 825.914 231.076 826.091 231.43 826.195C231.789 826.299 232.143 826.352 232.492 826.352C232.971 826.352 233.372 826.281 233.695 826.141C234.018 826 234.263 825.815 234.43 825.586C234.596 825.357 234.68 825.109 234.68 824.844ZM243.141 825.047V818.547H244.078V827H243.18L243.141 825.047ZM243.312 823.484L243.797 823.469C243.797 824 243.734 824.49 243.609 824.938C243.484 825.385 243.289 825.776 243.023 826.109C242.758 826.443 242.414 826.701 241.992 826.883C241.57 827.065 241.062 827.156 240.469 827.156C240.057 827.156 239.68 827.099 239.336 826.984C238.997 826.865 238.706 826.677 238.461 826.422C238.216 826.167 238.026 825.836 237.891 825.43C237.76 825.023 237.695 824.531 237.695 823.953V818.547H238.625V823.969C238.625 824.422 238.674 824.799 238.773 825.102C238.878 825.404 239.018 825.646 239.195 825.828C239.378 826.01 239.586 826.141 239.82 826.219C240.055 826.297 240.307 826.336 240.578 826.336C241.266 826.336 241.807 826.203 242.203 825.938C242.604 825.672 242.888 825.323 243.055 824.891C243.227 824.453 243.312 823.984 243.312 823.484ZM247.453 819.945V827H246.523V818.547H247.43L247.453 819.945ZM250.445 818.484L250.422 819.344C250.318 819.328 250.216 819.315 250.117 819.305C250.018 819.294 249.911 819.289 249.797 819.289C249.391 819.289 249.034 819.365 248.727 819.516C248.424 819.661 248.169 819.867 247.961 820.133C247.753 820.393 247.594 820.701 247.484 821.055C247.375 821.404 247.312 821.779 247.297 822.18L246.953 822.312C246.953 821.76 247.01 821.247 247.125 820.773C247.24 820.299 247.414 819.885 247.648 819.531C247.888 819.172 248.188 818.893 248.547 818.695C248.911 818.492 249.339 818.391 249.828 818.391C249.948 818.391 250.065 818.401 250.18 818.422C250.299 818.438 250.388 818.458 250.445 818.484Z" fill="#3C3636"/>
<path d="M354.18 816.305L350.242 827H349.242L353.539 815.625H354.234L354.18 816.305ZM357.758 827L353.812 816.305L353.758 815.625H354.453L358.758 827H357.758ZM357.055 822.984V823.812H351.016V822.984H357.055ZM361.266 815V827H360.336V815H361.266ZM368.242 815.625H369.211L373.414 825.641L377.625 815.625H378.586L373.781 827H373.047L368.242 815.625ZM367.945 815.625H368.797L368.898 822.031V827H367.945V815.625ZM378.047 815.625H378.898V827H377.938V822.031L378.047 815.625ZM381.055 822.906V822.648C381.055 822.034 381.143 821.466 381.32 820.945C381.497 820.424 381.75 819.974 382.078 819.594C382.411 819.214 382.81 818.919 383.273 818.711C383.737 818.497 384.253 818.391 384.82 818.391C385.393 818.391 385.911 818.497 386.375 818.711C386.839 818.919 387.237 819.214 387.57 819.594C387.904 819.974 388.159 820.424 388.336 820.945C388.513 821.466 388.602 822.034 388.602 822.648V822.906C388.602 823.521 388.513 824.089 388.336 824.609C388.159 825.125 387.904 825.573 387.57 825.953C387.242 826.333 386.846 826.63 386.383 826.844C385.919 827.052 385.404 827.156 384.836 827.156C384.263 827.156 383.745 827.052 383.281 826.844C382.818 826.63 382.419 826.333 382.086 825.953C381.753 825.573 381.497 825.125 381.32 824.609C381.143 824.089 381.055 823.521 381.055 822.906ZM381.984 822.648V822.906C381.984 823.37 382.047 823.81 382.172 824.227C382.297 824.638 382.479 825.005 382.719 825.328C382.958 825.646 383.255 825.896 383.609 826.078C383.964 826.26 384.372 826.352 384.836 826.352C385.294 826.352 385.698 826.26 386.047 826.078C386.401 825.896 386.698 825.646 386.938 825.328C387.177 825.005 387.357 824.638 387.477 824.227C387.602 823.81 387.664 823.37 387.664 822.906V822.648C387.664 822.19 387.602 821.755 387.477 821.344C387.357 820.932 387.174 820.565 386.93 820.242C386.69 819.919 386.393 819.664 386.039 819.477C385.685 819.289 385.279 819.195 384.82 819.195C384.362 819.195 383.956 819.289 383.602 819.477C383.253 819.664 382.956 819.919 382.711 820.242C382.471 820.565 382.289 820.932 382.164 821.344C382.044 821.755 381.984 822.19 381.984 822.648ZM391.422 820.297V827H390.484V818.547H391.383L391.422 820.297ZM391.25 822.25L390.797 822.016C390.828 821.516 390.922 821.047 391.078 820.609C391.24 820.172 391.464 819.786 391.75 819.453C392.036 819.12 392.38 818.859 392.781 818.672C393.182 818.484 393.638 818.391 394.148 818.391C394.56 818.391 394.932 818.448 395.266 818.562C395.604 818.672 395.891 818.846 396.125 819.086C396.365 819.32 396.549 819.628 396.68 820.008C396.81 820.388 396.875 820.844 396.875 821.375V827H395.945V821.406C395.945 820.844 395.857 820.404 395.68 820.086C395.508 819.768 395.266 819.542 394.953 819.406C394.646 819.271 394.289 819.203 393.883 819.203C393.404 819.203 392.997 819.302 392.664 819.5C392.336 819.693 392.068 819.945 391.859 820.258C391.656 820.565 391.505 820.896 391.406 821.25C391.307 821.599 391.255 821.932 391.25 822.25ZM396.867 821.516L396.242 821.531C396.268 821.12 396.362 820.727 396.523 820.352C396.69 819.977 396.917 819.643 397.203 819.352C397.49 819.055 397.831 818.82 398.227 818.648C398.628 818.477 399.078 818.391 399.578 818.391C400.016 818.391 400.406 818.451 400.75 818.57C401.094 818.685 401.383 818.87 401.617 819.125C401.857 819.375 402.039 819.695 402.164 820.086C402.289 820.477 402.352 820.945 402.352 821.492V827H401.414V821.484C401.414 820.885 401.326 820.422 401.148 820.094C400.977 819.76 400.737 819.529 400.43 819.398C400.122 819.268 399.763 819.203 399.352 819.203C398.945 819.208 398.589 819.284 398.281 819.43C397.974 819.57 397.716 819.758 397.508 819.992C397.305 820.221 397.148 820.469 397.039 820.734C396.935 821 396.878 821.26 396.867 821.516ZM405.766 818.547V827H404.836V818.547H405.766ZM404.672 816.102C404.672 815.924 404.727 815.776 404.836 815.656C404.951 815.531 405.107 815.469 405.305 815.469C405.503 815.469 405.659 815.531 405.773 815.656C405.893 815.776 405.953 815.924 405.953 816.102C405.953 816.273 405.893 816.422 405.773 816.547C405.659 816.667 405.503 816.727 405.305 816.727C405.107 816.727 404.951 816.667 404.836 816.547C404.727 816.422 404.672 816.273 404.672 816.102ZM409.25 820.352V827H408.32V818.547H409.211L409.25 820.352ZM409.039 822.25L408.625 822.016C408.656 821.516 408.758 821.047 408.93 820.609C409.102 820.172 409.333 819.786 409.625 819.453C409.922 819.12 410.268 818.859 410.664 818.672C411.065 818.484 411.508 818.391 411.992 818.391C412.414 818.391 412.792 818.448 413.125 818.562C413.458 818.677 413.742 818.859 413.977 819.109C414.211 819.359 414.388 819.68 414.508 820.07C414.633 820.461 414.695 820.938 414.695 821.5V827H413.758V821.492C413.758 820.909 413.677 820.453 413.516 820.125C413.354 819.792 413.125 819.555 412.828 819.414C412.531 819.273 412.18 819.203 411.773 819.203C411.326 819.203 410.932 819.302 410.594 819.5C410.26 819.693 409.979 819.945 409.75 820.258C409.526 820.565 409.354 820.896 409.234 821.25C409.115 821.599 409.049 821.932 409.039 822.25Z" fill="#3C3636"/>
<path d="M494.617 815.625V827H493.656V815.625H494.617ZM498.375 820.297V827H497.438V818.547H498.336L498.375 820.297ZM498.203 822.25L497.75 822.016C497.781 821.516 497.875 821.047 498.031 820.609C498.193 820.172 498.417 819.786 498.703 819.453C498.99 819.12 499.333 818.859 499.734 818.672C500.135 818.484 500.591 818.391 501.102 818.391C501.513 818.391 501.885 818.448 502.219 818.562C502.557 818.672 502.844 818.846 503.078 819.086C503.318 819.32 503.503 819.628 503.633 820.008C503.763 820.388 503.828 820.844 503.828 821.375V827H502.898V821.406C502.898 820.844 502.81 820.404 502.633 820.086C502.461 819.768 502.219 819.542 501.906 819.406C501.599 819.271 501.242 819.203 500.836 819.203C500.357 819.203 499.951 819.302 499.617 819.5C499.289 819.693 499.021 819.945 498.812 820.258C498.609 820.565 498.458 820.896 498.359 821.25C498.26 821.599 498.208 821.932 498.203 822.25ZM503.82 821.516L503.195 821.531C503.221 821.12 503.315 820.727 503.477 820.352C503.643 819.977 503.87 819.643 504.156 819.352C504.443 819.055 504.784 818.82 505.18 818.648C505.581 818.477 506.031 818.391 506.531 818.391C506.969 818.391 507.359 818.451 507.703 818.57C508.047 818.685 508.336 818.87 508.57 819.125C508.81 819.375 508.992 819.695 509.117 820.086C509.242 820.477 509.305 820.945 509.305 821.492V827H508.367V821.484C508.367 820.885 508.279 820.422 508.102 820.094C507.93 819.76 507.69 819.529 507.383 819.398C507.076 819.268 506.716 819.203 506.305 819.203C505.898 819.208 505.542 819.284 505.234 819.43C504.927 819.57 504.669 819.758 504.461 819.992C504.258 820.221 504.102 820.469 503.992 820.734C503.888 821 503.831 821.26 503.82 821.516ZM512.609 819.945V827H511.68V818.547H512.586L512.609 819.945ZM515.602 818.484L515.578 819.344C515.474 819.328 515.372 819.315 515.273 819.305C515.174 819.294 515.068 819.289 514.953 819.289C514.547 819.289 514.19 819.365 513.883 819.516C513.581 819.661 513.326 819.867 513.117 820.133C512.909 820.393 512.75 820.701 512.641 821.055C512.531 821.404 512.469 821.779 512.453 822.18L512.109 822.312C512.109 821.76 512.167 821.247 512.281 820.773C512.396 820.299 512.57 819.885 512.805 819.531C513.044 819.172 513.344 818.893 513.703 818.695C514.068 818.492 514.495 818.391 514.984 818.391C515.104 818.391 515.221 818.401 515.336 818.422C515.456 818.438 515.544 818.458 515.602 818.484ZM521.898 825.484V821.125C521.898 820.724 521.815 820.378 521.648 820.086C521.482 819.794 521.237 819.57 520.914 819.414C520.591 819.258 520.193 819.18 519.719 819.18C519.281 819.18 518.891 819.258 518.547 819.414C518.208 819.565 517.94 819.771 517.742 820.031C517.549 820.286 517.453 820.57 517.453 820.883L516.516 820.875C516.516 820.557 516.594 820.25 516.75 819.953C516.906 819.656 517.128 819.391 517.414 819.156C517.701 818.922 518.042 818.737 518.438 818.602C518.839 818.461 519.279 818.391 519.758 818.391C520.362 818.391 520.893 818.492 521.352 818.695C521.815 818.898 522.177 819.203 522.438 819.609C522.698 820.016 522.828 820.526 522.828 821.141V825.227C522.828 825.518 522.849 825.82 522.891 826.133C522.938 826.445 523.003 826.703 523.086 826.906V827H522.094C522.031 826.812 521.982 826.578 521.945 826.297C521.914 826.01 521.898 825.74 521.898 825.484ZM522.117 822.078L522.133 822.797H520.297C519.818 822.797 519.388 822.841 519.008 822.93C518.633 823.013 518.315 823.138 518.055 823.305C517.794 823.466 517.594 823.661 517.453 823.891C517.318 824.12 517.25 824.38 517.25 824.672C517.25 824.974 517.326 825.25 517.477 825.5C517.633 825.75 517.852 825.951 518.133 826.102C518.419 826.247 518.758 826.32 519.148 826.32C519.669 826.32 520.128 826.224 520.523 826.031C520.924 825.839 521.255 825.586 521.516 825.273C521.776 824.961 521.951 824.62 522.039 824.25L522.445 824.789C522.378 825.049 522.253 825.318 522.07 825.594C521.893 825.865 521.661 826.12 521.375 826.359C521.089 826.594 520.75 826.786 520.359 826.938C519.974 827.083 519.536 827.156 519.047 827.156C518.495 827.156 518.013 827.052 517.602 826.844C517.195 826.635 516.878 826.352 516.648 825.992C516.424 825.628 516.312 825.216 516.312 824.758C516.312 824.341 516.401 823.969 516.578 823.641C516.755 823.307 517.01 823.026 517.344 822.797C517.682 822.562 518.089 822.385 518.562 822.266C519.042 822.141 519.578 822.078 520.172 822.078H522.117ZM526.266 820.352V827H525.336V818.547H526.227L526.266 820.352ZM526.055 822.25L525.641 822.016C525.672 821.516 525.773 821.047 525.945 820.609C526.117 820.172 526.349 819.786 526.641 819.453C526.938 819.12 527.284 818.859 527.68 818.672C528.081 818.484 528.523 818.391 529.008 818.391C529.43 818.391 529.807 818.448 530.141 818.562C530.474 818.677 530.758 818.859 530.992 819.109C531.227 819.359 531.404 819.68 531.523 820.07C531.648 820.461 531.711 820.938 531.711 821.5V827H530.773V821.492C530.773 820.909 530.693 820.453 530.531 820.125C530.37 819.792 530.141 819.555 529.844 819.414C529.547 819.273 529.195 819.203 528.789 819.203C528.341 819.203 527.948 819.302 527.609 819.5C527.276 819.693 526.995 819.945 526.766 820.258C526.542 820.565 526.37 820.896 526.25 821.25C526.13 821.599 526.065 821.932 526.055 822.25ZM539.219 815.625V827H538.258V815.625H539.219ZM546.25 815.625L541.344 820.836L538.875 823.266L538.781 822.195L540.766 820.133L545.047 815.625H546.25ZM545.453 827L540.664 821.156L541.242 820.383L546.617 827H545.453ZM549.078 815V827H548.148V815H549.078ZM548.867 822.25L548.453 822.016C548.484 821.516 548.586 821.047 548.758 820.609C548.93 820.172 549.161 819.786 549.453 819.453C549.75 819.12 550.096 818.859 550.492 818.672C550.893 818.484 551.336 818.391 551.82 818.391C552.242 818.391 552.62 818.448 552.953 818.562C553.286 818.677 553.57 818.859 553.805 819.109C554.039 819.359 554.216 819.68 554.336 820.07C554.461 820.461 554.523 820.938 554.523 821.5V827H553.586V821.492C553.586 820.909 553.505 820.453 553.344 820.125C553.182 819.792 552.953 819.555 552.656 819.414C552.359 819.273 552.008 819.203 551.602 819.203C551.154 819.203 550.76 819.302 550.422 819.5C550.089 819.693 549.807 819.945 549.578 820.258C549.354 820.565 549.182 820.896 549.062 821.25C548.943 821.599 548.878 821.932 548.867 822.25ZM562.07 825.484V821.125C562.07 820.724 561.987 820.378 561.82 820.086C561.654 819.794 561.409 819.57 561.086 819.414C560.763 819.258 560.365 819.18 559.891 819.18C559.453 819.18 559.062 819.258 558.719 819.414C558.38 819.565 558.112 819.771 557.914 820.031C557.721 820.286 557.625 820.57 557.625 820.883L556.688 820.875C556.688 820.557 556.766 820.25 556.922 819.953C557.078 819.656 557.299 819.391 557.586 819.156C557.872 818.922 558.214 818.737 558.609 818.602C559.01 818.461 559.451 818.391 559.93 818.391C560.534 818.391 561.065 818.492 561.523 818.695C561.987 818.898 562.349 819.203 562.609 819.609C562.87 820.016 563 820.526 563 821.141V825.227C563 825.518 563.021 825.82 563.062 826.133C563.109 826.445 563.174 826.703 563.258 826.906V827H562.266C562.203 826.812 562.154 826.578 562.117 826.297C562.086 826.01 562.07 825.74 562.07 825.484ZM562.289 822.078L562.305 822.797H560.469C559.99 822.797 559.56 822.841 559.18 822.93C558.805 823.013 558.487 823.138 558.227 823.305C557.966 823.466 557.766 823.661 557.625 823.891C557.49 824.12 557.422 824.38 557.422 824.672C557.422 824.974 557.497 825.25 557.648 825.5C557.805 825.75 558.023 825.951 558.305 826.102C558.591 826.247 558.93 826.32 559.32 826.32C559.841 826.32 560.299 826.224 560.695 826.031C561.096 825.839 561.427 825.586 561.688 825.273C561.948 824.961 562.122 824.62 562.211 824.25L562.617 824.789C562.549 825.049 562.424 825.318 562.242 825.594C562.065 825.865 561.833 826.12 561.547 826.359C561.26 826.594 560.922 826.786 560.531 826.938C560.146 827.083 559.708 827.156 559.219 827.156C558.667 827.156 558.185 827.052 557.773 826.844C557.367 826.635 557.049 826.352 556.82 825.992C556.596 825.628 556.484 825.216 556.484 824.758C556.484 824.341 556.573 823.969 556.75 823.641C556.927 823.307 557.182 823.026 557.516 822.797C557.854 822.562 558.26 822.385 558.734 822.266C559.214 822.141 559.75 822.078 560.344 822.078H562.289ZM566.438 820.352V827H565.508V818.547H566.398L566.438 820.352ZM566.227 822.25L565.812 822.016C565.844 821.516 565.945 821.047 566.117 820.609C566.289 820.172 566.521 819.786 566.812 819.453C567.109 819.12 567.456 818.859 567.852 818.672C568.253 818.484 568.695 818.391 569.18 818.391C569.602 818.391 569.979 818.448 570.312 818.562C570.646 818.677 570.93 818.859 571.164 819.109C571.398 819.359 571.576 819.68 571.695 820.07C571.82 820.461 571.883 820.938 571.883 821.5V827H570.945V821.492C570.945 820.909 570.865 820.453 570.703 820.125C570.542 819.792 570.312 819.555 570.016 819.414C569.719 819.273 569.367 819.203 568.961 819.203C568.513 819.203 568.12 819.302 567.781 819.5C567.448 819.693 567.167 819.945 566.938 820.258C566.714 820.565 566.542 820.896 566.422 821.25C566.302 821.599 566.237 821.932 566.227 822.25Z" fill="#3C3636"/>
<path d="M637.406 815.625V827H636.445V815.625H637.406ZM644.438 815.625L639.531 820.836L637.062 823.266L636.969 822.195L638.953 820.133L643.234 815.625H644.438ZM643.641 827L638.852 821.156L639.43 820.383L644.805 827H643.641ZM651.477 825.484V821.125C651.477 820.724 651.393 820.378 651.227 820.086C651.06 819.794 650.815 819.57 650.492 819.414C650.169 819.258 649.771 819.18 649.297 819.18C648.859 819.18 648.469 819.258 648.125 819.414C647.786 819.565 647.518 819.771 647.32 820.031C647.128 820.286 647.031 820.57 647.031 820.883L646.094 820.875C646.094 820.557 646.172 820.25 646.328 819.953C646.484 819.656 646.706 819.391 646.992 819.156C647.279 818.922 647.62 818.737 648.016 818.602C648.417 818.461 648.857 818.391 649.336 818.391C649.94 818.391 650.471 818.492 650.93 818.695C651.393 818.898 651.755 819.203 652.016 819.609C652.276 820.016 652.406 820.526 652.406 821.141V825.227C652.406 825.518 652.427 825.82 652.469 826.133C652.516 826.445 652.581 826.703 652.664 826.906V827H651.672C651.609 826.812 651.56 826.578 651.523 826.297C651.492 826.01 651.477 825.74 651.477 825.484ZM651.695 822.078L651.711 822.797H649.875C649.396 822.797 648.966 822.841 648.586 822.93C648.211 823.013 647.893 823.138 647.633 823.305C647.372 823.466 647.172 823.661 647.031 823.891C646.896 824.12 646.828 824.38 646.828 824.672C646.828 824.974 646.904 825.25 647.055 825.5C647.211 825.75 647.43 825.951 647.711 826.102C647.997 826.247 648.336 826.32 648.727 826.32C649.247 826.32 649.706 826.224 650.102 826.031C650.503 825.839 650.833 825.586 651.094 825.273C651.354 824.961 651.529 824.62 651.617 824.25L652.023 824.789C651.956 825.049 651.831 825.318 651.648 825.594C651.471 825.865 651.24 826.12 650.953 826.359C650.667 826.594 650.328 826.786 649.938 826.938C649.552 827.083 649.115 827.156 648.625 827.156C648.073 827.156 647.591 827.052 647.18 826.844C646.773 826.635 646.456 826.352 646.227 825.992C646.003 825.628 645.891 825.216 645.891 824.758C645.891 824.341 645.979 823.969 646.156 823.641C646.333 823.307 646.589 823.026 646.922 822.797C647.26 822.562 647.667 822.385 648.141 822.266C648.62 822.141 649.156 822.078 649.75 822.078H651.695ZM655.797 820.297V827H654.859V818.547H655.758L655.797 820.297ZM655.625 822.25L655.172 822.016C655.203 821.516 655.297 821.047 655.453 820.609C655.615 820.172 655.839 819.786 656.125 819.453C656.411 819.12 656.755 818.859 657.156 818.672C657.557 818.484 658.013 818.391 658.523 818.391C658.935 818.391 659.307 818.448 659.641 818.562C659.979 818.672 660.266 818.846 660.5 819.086C660.74 819.32 660.924 819.628 661.055 820.008C661.185 820.388 661.25 820.844 661.25 821.375V827H660.32V821.406C660.32 820.844 660.232 820.404 660.055 820.086C659.883 819.768 659.641 819.542 659.328 819.406C659.021 819.271 658.664 819.203 658.258 819.203C657.779 819.203 657.372 819.302 657.039 819.5C656.711 819.693 656.443 819.945 656.234 820.258C656.031 820.565 655.88 820.896 655.781 821.25C655.682 821.599 655.63 821.932 655.625 822.25ZM661.242 821.516L660.617 821.531C660.643 821.12 660.737 820.727 660.898 820.352C661.065 819.977 661.292 819.643 661.578 819.352C661.865 819.055 662.206 818.82 662.602 818.648C663.003 818.477 663.453 818.391 663.953 818.391C664.391 818.391 664.781 818.451 665.125 818.57C665.469 818.685 665.758 818.87 665.992 819.125C666.232 819.375 666.414 819.695 666.539 820.086C666.664 820.477 666.727 820.945 666.727 821.492V827H665.789V821.484C665.789 820.885 665.701 820.422 665.523 820.094C665.352 819.76 665.112 819.529 664.805 819.398C664.497 819.268 664.138 819.203 663.727 819.203C663.32 819.208 662.964 819.284 662.656 819.43C662.349 819.57 662.091 819.758 661.883 819.992C661.68 820.221 661.523 820.469 661.414 820.734C661.31 821 661.253 821.26 661.242 821.516ZM670.031 819.945V827H669.102V818.547H670.008L670.031 819.945ZM673.023 818.484L673 819.344C672.896 819.328 672.794 819.315 672.695 819.305C672.596 819.294 672.49 819.289 672.375 819.289C671.969 819.289 671.612 819.365 671.305 819.516C671.003 819.661 670.747 819.867 670.539 820.133C670.331 820.393 670.172 820.701 670.062 821.055C669.953 821.404 669.891 821.779 669.875 822.18L669.531 822.312C669.531 821.76 669.589 821.247 669.703 820.773C669.818 820.299 669.992 819.885 670.227 819.531C670.466 819.172 670.766 818.893 671.125 818.695C671.49 818.492 671.917 818.391 672.406 818.391C672.526 818.391 672.643 818.401 672.758 818.422C672.878 818.438 672.966 818.458 673.023 818.484ZM679.906 825.047V818.547H680.844V827H679.945L679.906 825.047ZM680.078 823.484L680.562 823.469C680.562 824 680.5 824.49 680.375 824.938C680.25 825.385 680.055 825.776 679.789 826.109C679.523 826.443 679.18 826.701 678.758 826.883C678.336 827.065 677.828 827.156 677.234 827.156C676.823 827.156 676.445 827.099 676.102 826.984C675.763 826.865 675.471 826.677 675.227 826.422C674.982 826.167 674.792 825.836 674.656 825.43C674.526 825.023 674.461 824.531 674.461 823.953V818.547H675.391V823.969C675.391 824.422 675.44 824.799 675.539 825.102C675.643 825.404 675.784 825.646 675.961 825.828C676.143 826.01 676.352 826.141 676.586 826.219C676.82 826.297 677.073 826.336 677.344 826.336C678.031 826.336 678.573 826.203 678.969 825.938C679.37 825.672 679.654 825.323 679.82 824.891C679.992 824.453 680.078 823.984 680.078 823.484ZM684.328 815V827H683.398V815H684.328Z" fill="#3C3636"/>
<defs>
<filter id="filter0_d_123_127" x="0" y="0" width="808" height="889" filterUnits="userSpaceOnUse" color-interpolation-filters="sRGB">
<feFlood flood-opacity="0" result="BackgroundImageFix"/>
<feColorMatrix in="SourceAlpha" type="matrix" values="0 0 0 0 0 0 0 0 0 0 0 0 0 0 0 0 0 0 127 0" result="hardAlpha"/>
<feOffset dy="4"/>
<feGaussianBlur stdDeviation="3"/>
<feComposite in2="hardAlpha" operator="out"/>
<feColorMatrix type="matrix" values="0 0 0 0 0 0 0 0 0 0 0 0 0 0 0 0 0 0 0.35 0"/>
<feBlend mode="normal" in2="BackgroundImageFix" result="effect1_dropShadow_123_127"/>
<feBlend mode="normal" in="SourceGraphic" in2="effect1_dropShadow_123_127" result="shape"/>
</filter>
</defs>
</svg>
