<svg width="808" height="642" viewBox="0 0 808 642" fill="none" xmlns="http://www.w3.org/2000/svg">
<g filter="url(#filter0_d_123_239)">
<rect x="6" y="2" width="796" height="630" rx="30.9" fill="white"/>
</g>
<path d="M77.0625 59.2656L69.5312 80H66.4531L75.125 57.25H77.1094L77.0625 59.2656ZM83.375 80L75.8281 59.2656L75.7812 57.25H77.7656L86.4688 80H83.375ZM82.9844 71.5781V74.0469H70.2031V71.5781H82.9844ZM91.9688 66.7031V80H89.0781V63.0938H91.8125L91.9688 66.7031ZM91.2812 70.9062L90.0781 70.8594C90.0885 69.7031 90.2604 68.6354 90.5938 67.6562C90.9271 66.6667 91.3958 65.8073 92 65.0781C92.6042 64.349 93.3229 63.7865 94.1562 63.3906C95 62.9844 95.9323 62.7812 96.9531 62.7812C97.7865 62.7812 98.5365 62.8958 99.2031 63.125C99.8698 63.3438 100.438 63.6979 100.906 64.1875C101.385 64.6771 101.75 65.3125 102 66.0938C102.25 66.8646 102.375 67.8073 102.375 68.9219V80H99.4688V68.8906C99.4688 68.0052 99.3385 67.2969 99.0781 66.7656C98.8177 66.224 98.4375 65.8333 97.9375 65.5938C97.4375 65.3438 96.8229 65.2188 96.0938 65.2188C95.375 65.2188 94.7188 65.3698 94.125 65.6719C93.5417 65.974 93.0365 66.3906 92.6094 66.9219C92.1927 67.4531 91.8646 68.0625 91.625 68.75C91.3958 69.4271 91.2812 70.1458 91.2812 70.9062ZM116.734 77.1094V68.4062C116.734 67.7396 116.599 67.1615 116.328 66.6719C116.068 66.1719 115.672 65.7865 115.141 65.5156C114.609 65.2448 113.953 65.1094 113.172 65.1094C112.443 65.1094 111.802 65.2344 111.25 65.4844C110.708 65.7344 110.281 66.0625 109.969 66.4688C109.667 66.875 109.516 67.3125 109.516 67.7812H106.625C106.625 67.1771 106.781 66.5781 107.094 65.9844C107.406 65.3906 107.854 64.8542 108.438 64.375C109.031 63.8854 109.74 63.5 110.562 63.2188C111.396 62.9271 112.323 62.7812 113.344 62.7812C114.573 62.7812 115.656 62.9896 116.594 63.4062C117.542 63.8229 118.281 64.4531 118.812 65.2969C119.354 66.1302 119.625 67.1771 119.625 68.4375V76.3125C119.625 76.875 119.672 77.474 119.766 78.1094C119.87 78.7448 120.021 79.2917 120.219 79.75V80H117.203C117.057 79.6667 116.943 79.224 116.859 78.6719C116.776 78.1094 116.734 77.5885 116.734 77.1094ZM117.234 69.75L117.266 71.7812H114.344C113.521 71.7812 112.786 71.849 112.141 71.9844C111.495 72.1094 110.953 72.3021 110.516 72.5625C110.078 72.8229 109.745 73.151 109.516 73.5469C109.286 73.9323 109.172 74.3854 109.172 74.9062C109.172 75.4375 109.292 75.9219 109.531 76.3594C109.771 76.7969 110.13 77.1458 110.609 77.4062C111.099 77.6562 111.698 77.7812 112.406 77.7812C113.292 77.7812 114.073 77.5938 114.75 77.2188C115.427 76.8438 115.964 76.3854 116.359 75.8438C116.766 75.3021 116.984 74.776 117.016 74.2656L118.25 75.6562C118.177 76.0938 117.979 76.5781 117.656 77.1094C117.333 77.6406 116.901 78.151 116.359 78.6406C115.828 79.1198 115.193 79.5208 114.453 79.8438C113.724 80.1562 112.901 80.3125 111.984 80.3125C110.839 80.3125 109.833 80.0885 108.969 79.6406C108.115 79.1927 107.448 78.5938 106.969 77.8438C106.5 77.0833 106.266 76.2344 106.266 75.2969C106.266 74.3906 106.443 73.5938 106.797 72.9062C107.151 72.2083 107.661 71.6302 108.328 71.1719C108.995 70.7031 109.797 70.349 110.734 70.1094C111.672 69.8698 112.719 69.75 113.875 69.75H117.234ZM127.312 56V80H124.406V56H127.312ZM136.703 78.25L141.406 63.0938H144.5L137.719 82.6094C137.562 83.026 137.354 83.474 137.094 83.9531C136.844 84.4427 136.521 84.9062 136.125 85.3438C135.729 85.7812 135.25 86.1354 134.688 86.4062C134.135 86.6875 133.474 86.8281 132.703 86.8281C132.474 86.8281 132.182 86.7969 131.828 86.7344C131.474 86.6719 131.224 86.6198 131.078 86.5781L131.062 84.2344C131.146 84.2448 131.276 84.2552 131.453 84.2656C131.641 84.2865 131.771 84.2969 131.844 84.2969C132.5 84.2969 133.057 84.2083 133.516 84.0312C133.974 83.8646 134.359 83.5781 134.672 83.1719C134.995 82.776 135.271 82.2292 135.5 81.5312L136.703 78.25ZM133.25 63.0938L137.641 76.2188L138.391 79.2656L136.312 80.3281L130.094 63.0938H133.25ZM154.188 63.0938V65.3125H145.047V63.0938H154.188ZM148.141 58.9844H151.031V75.8125C151.031 76.3854 151.12 76.8177 151.297 77.1094C151.474 77.401 151.703 77.5938 151.984 77.6875C152.266 77.7812 152.568 77.8281 152.891 77.8281C153.13 77.8281 153.38 77.8073 153.641 77.7656C153.911 77.7135 154.115 77.6719 154.25 77.6406L154.266 80C154.036 80.0729 153.734 80.1406 153.359 80.2031C152.995 80.276 152.552 80.3125 152.031 80.3125C151.323 80.3125 150.672 80.1719 150.078 79.8906C149.484 79.6094 149.01 79.1406 148.656 78.4844C148.312 77.8177 148.141 76.9219 148.141 75.7969V58.9844ZM160.719 63.0938V80H157.812V63.0938H160.719ZM157.594 58.6094C157.594 58.1406 157.734 57.7448 158.016 57.4219C158.307 57.099 158.734 56.9375 159.297 56.9375C159.849 56.9375 160.271 57.099 160.562 57.4219C160.865 57.7448 161.016 58.1406 161.016 58.6094C161.016 59.0573 160.865 59.4427 160.562 59.7656C160.271 60.0781 159.849 60.2344 159.297 60.2344C158.734 60.2344 158.307 60.0781 158.016 59.7656C157.734 59.4427 157.594 59.0573 157.594 58.6094ZM172.125 77.9375C172.812 77.9375 173.448 77.7969 174.031 77.5156C174.615 77.2344 175.094 76.849 175.469 76.3594C175.844 75.8594 176.057 75.2917 176.109 74.6562H178.859C178.807 75.6562 178.469 76.5885 177.844 77.4531C177.229 78.3073 176.422 79 175.422 79.5312C174.422 80.0521 173.323 80.3125 172.125 80.3125C170.854 80.3125 169.745 80.0885 168.797 79.6406C167.859 79.1927 167.078 78.5781 166.453 77.7969C165.839 77.0156 165.375 76.1198 165.062 75.1094C164.76 74.0885 164.609 73.0104 164.609 71.875V71.2188C164.609 70.0833 164.76 69.0104 165.062 68C165.375 66.9792 165.839 66.0781 166.453 65.2969C167.078 64.5156 167.859 63.901 168.797 63.4531C169.745 63.0052 170.854 62.7812 172.125 62.7812C173.448 62.7812 174.604 63.0521 175.594 63.5938C176.583 64.125 177.359 64.8542 177.922 65.7812C178.495 66.6979 178.807 67.7396 178.859 68.9062H176.109C176.057 68.2083 175.859 67.5781 175.516 67.0156C175.182 66.4531 174.724 66.0052 174.141 65.6719C173.568 65.3281 172.896 65.1562 172.125 65.1562C171.24 65.1562 170.495 65.3333 169.891 65.6875C169.297 66.0312 168.823 66.5 168.469 67.0938C168.125 67.6771 167.875 68.3281 167.719 69.0469C167.573 69.7552 167.5 70.4792 167.5 71.2188V71.875C167.5 72.6146 167.573 73.3438 167.719 74.0625C167.865 74.7812 168.109 75.4323 168.453 76.0156C168.807 76.599 169.281 77.0677 169.875 77.4219C170.479 77.7656 171.229 77.9375 172.125 77.9375ZM191.953 75.5156C191.953 75.099 191.859 74.7135 191.672 74.3594C191.495 73.9948 191.125 73.6667 190.562 73.375C190.01 73.0729 189.177 72.8125 188.062 72.5938C187.125 72.3958 186.276 72.1615 185.516 71.8906C184.766 71.6198 184.125 71.2917 183.594 70.9062C183.073 70.5208 182.672 70.0677 182.391 69.5469C182.109 69.026 181.969 68.4167 181.969 67.7188C181.969 67.0521 182.115 66.4219 182.406 65.8281C182.708 65.2344 183.13 64.7083 183.672 64.25C184.224 63.7917 184.885 63.4323 185.656 63.1719C186.427 62.9115 187.286 62.7812 188.234 62.7812C189.589 62.7812 190.745 63.0208 191.703 63.5C192.661 63.9792 193.396 64.6198 193.906 65.4219C194.417 66.2135 194.672 67.0938 194.672 68.0625H191.781C191.781 67.5938 191.641 67.1406 191.359 66.7031C191.089 66.2552 190.688 65.8854 190.156 65.5938C189.635 65.3021 188.995 65.1562 188.234 65.1562C187.432 65.1562 186.781 65.2812 186.281 65.5312C185.792 65.7708 185.432 66.0781 185.203 66.4531C184.984 66.8281 184.875 67.224 184.875 67.6406C184.875 67.9531 184.927 68.2344 185.031 68.4844C185.146 68.724 185.344 68.9479 185.625 69.1562C185.906 69.3542 186.302 69.5417 186.812 69.7188C187.323 69.8958 187.974 70.0729 188.766 70.25C190.151 70.5625 191.292 70.9375 192.188 71.375C193.083 71.8125 193.75 72.349 194.188 72.9844C194.625 73.6198 194.844 74.3906 194.844 75.2969C194.844 76.0365 194.688 76.7135 194.375 77.3281C194.073 77.9427 193.63 78.474 193.047 78.9219C192.474 79.3594 191.786 79.7031 190.984 79.9531C190.193 80.1927 189.302 80.3125 188.312 80.3125C186.823 80.3125 185.562 80.0469 184.531 79.5156C183.5 78.9844 182.719 78.2969 182.188 77.4531C181.656 76.6094 181.391 75.7188 181.391 74.7812H184.297C184.339 75.5729 184.568 76.2031 184.984 76.6719C185.401 77.1302 185.911 77.4583 186.516 77.6562C187.12 77.8438 187.719 77.9375 188.312 77.9375C189.104 77.9375 189.766 77.8333 190.297 77.625C190.839 77.4167 191.25 77.1302 191.531 76.7656C191.812 76.401 191.953 75.9844 191.953 75.5156Z" fill="#8C8585"/>
<path d="M84.457 132.812C84.457 132.148 84.3529 131.562 84.1445 131.055C83.9492 130.534 83.5977 130.065 83.0898 129.648C82.5951 129.232 81.9049 128.835 81.0195 128.457C80.1471 128.079 79.0404 127.695 77.6992 127.305C76.293 126.888 75.0234 126.426 73.8906 125.918C72.7578 125.397 71.7878 124.805 70.9805 124.141C70.1732 123.477 69.5547 122.715 69.125 121.855C68.6953 120.996 68.4805 120.013 68.4805 118.906C68.4805 117.799 68.7083 116.777 69.1641 115.84C69.6198 114.902 70.2708 114.089 71.1172 113.398C71.9766 112.695 72.9987 112.148 74.1836 111.758C75.3685 111.367 76.6901 111.172 78.1484 111.172C80.2839 111.172 82.0938 111.582 83.5781 112.402C85.0755 113.21 86.2148 114.271 86.9961 115.586C87.7773 116.888 88.168 118.281 88.168 119.766H84.418C84.418 118.698 84.1901 117.754 83.7344 116.934C83.2786 116.1 82.5885 115.449 81.6641 114.98C80.7396 114.499 79.5677 114.258 78.1484 114.258C76.8073 114.258 75.7005 114.46 74.8281 114.863C73.9557 115.267 73.3047 115.814 72.875 116.504C72.4583 117.194 72.25 117.982 72.25 118.867C72.25 119.466 72.3737 120.013 72.6211 120.508C72.8815 120.99 73.2786 121.439 73.8125 121.855C74.3594 122.272 75.0495 122.656 75.8828 123.008C76.7292 123.359 77.7383 123.698 78.9102 124.023C80.5247 124.479 81.918 124.987 83.0898 125.547C84.2617 126.107 85.2253 126.738 85.9805 127.441C86.7487 128.132 87.3151 128.919 87.6797 129.805C88.0573 130.677 88.2461 131.667 88.2461 132.773C88.2461 133.932 88.0117 134.98 87.543 135.918C87.0742 136.855 86.4036 137.656 85.5312 138.32C84.6589 138.984 83.6107 139.499 82.3867 139.863C81.1758 140.215 79.8216 140.391 78.3242 140.391C77.0091 140.391 75.7135 140.208 74.4375 139.844C73.1745 139.479 72.0221 138.932 70.9805 138.203C69.9518 137.474 69.125 136.576 68.5 135.508C67.888 134.427 67.582 133.177 67.582 131.758H71.332C71.332 132.734 71.5208 133.574 71.8984 134.277C72.276 134.967 72.7904 135.54 73.4414 135.996C74.1055 136.452 74.8542 136.79 75.6875 137.012C76.5339 137.22 77.4128 137.324 78.3242 137.324C79.6393 137.324 80.7526 137.142 81.6641 136.777C82.5755 136.413 83.2656 135.892 83.7344 135.215C84.2161 134.538 84.457 133.737 84.457 132.812ZM101.273 140.391C99.8021 140.391 98.4674 140.143 97.2695 139.648C96.0846 139.141 95.0625 138.431 94.2031 137.52C93.3568 136.608 92.7057 135.527 92.25 134.277C91.7943 133.027 91.5664 131.66 91.5664 130.176V129.355C91.5664 127.637 91.8203 126.107 92.3281 124.766C92.8359 123.411 93.526 122.266 94.3984 121.328C95.2708 120.391 96.2604 119.681 97.3672 119.199C98.474 118.717 99.6198 118.477 100.805 118.477C102.315 118.477 103.617 118.737 104.711 119.258C105.818 119.779 106.723 120.508 107.426 121.445C108.129 122.37 108.65 123.464 108.988 124.727C109.327 125.977 109.496 127.344 109.496 128.828V130.449H93.7148V127.5H105.883V127.227C105.831 126.289 105.635 125.378 105.297 124.492C104.971 123.607 104.451 122.878 103.734 122.305C103.018 121.732 102.042 121.445 100.805 121.445C99.9844 121.445 99.2292 121.621 98.5391 121.973C97.849 122.311 97.2565 122.819 96.7617 123.496C96.2669 124.173 95.8828 125 95.6094 125.977C95.3359 126.953 95.1992 128.079 95.1992 129.355V130.176C95.1992 131.178 95.3359 132.122 95.6094 133.008C95.8958 133.88 96.306 134.648 96.8398 135.312C97.3867 135.977 98.0443 136.497 98.8125 136.875C99.5938 137.253 100.479 137.441 101.469 137.441C102.745 137.441 103.826 137.181 104.711 136.66C105.596 136.139 106.371 135.443 107.035 134.57L109.223 136.309C108.767 136.999 108.188 137.656 107.484 138.281C106.781 138.906 105.915 139.414 104.887 139.805C103.871 140.195 102.667 140.391 101.273 140.391ZM117.328 123.379V140H113.715V118.867H117.133L117.328 123.379ZM116.469 128.633L114.965 128.574C114.978 127.129 115.193 125.794 115.609 124.57C116.026 123.333 116.612 122.259 117.367 121.348C118.122 120.436 119.021 119.733 120.062 119.238C121.117 118.73 122.283 118.477 123.559 118.477C124.6 118.477 125.538 118.62 126.371 118.906C127.204 119.18 127.914 119.622 128.5 120.234C129.099 120.846 129.555 121.641 129.867 122.617C130.18 123.581 130.336 124.759 130.336 126.152V140H126.703V126.113C126.703 125.007 126.54 124.121 126.215 123.457C125.889 122.78 125.414 122.292 124.789 121.992C124.164 121.68 123.396 121.523 122.484 121.523C121.586 121.523 120.766 121.712 120.023 122.09C119.294 122.467 118.663 122.988 118.129 123.652C117.608 124.316 117.198 125.078 116.898 125.938C116.612 126.784 116.469 127.682 116.469 128.633ZM144.672 118.867V121.641H133.246V118.867H144.672ZM137.113 113.73H140.727V134.766C140.727 135.482 140.837 136.022 141.059 136.387C141.28 136.751 141.566 136.992 141.918 137.109C142.27 137.227 142.647 137.285 143.051 137.285C143.35 137.285 143.663 137.259 143.988 137.207C144.327 137.142 144.581 137.09 144.75 137.051L144.77 140C144.483 140.091 144.105 140.176 143.637 140.254C143.181 140.345 142.628 140.391 141.977 140.391C141.091 140.391 140.277 140.215 139.535 139.863C138.793 139.512 138.201 138.926 137.758 138.105C137.328 137.272 137.113 136.152 137.113 134.746V113.73ZM152.836 118.867V140H149.203V118.867H152.836ZM148.93 113.262C148.93 112.676 149.105 112.181 149.457 111.777C149.822 111.374 150.355 111.172 151.059 111.172C151.749 111.172 152.276 111.374 152.641 111.777C153.018 112.181 153.207 112.676 153.207 113.262C153.207 113.822 153.018 114.303 152.641 114.707C152.276 115.098 151.749 115.293 151.059 115.293C150.355 115.293 149.822 115.098 149.457 114.707C149.105 114.303 148.93 113.822 148.93 113.262ZM162.23 123.066V140H158.598V118.867H162.035L162.23 123.066ZM161.488 128.633L159.809 128.574C159.822 127.129 160.01 125.794 160.375 124.57C160.74 123.333 161.28 122.259 161.996 121.348C162.712 120.436 163.604 119.733 164.672 119.238C165.74 118.73 166.977 118.477 168.383 118.477C169.372 118.477 170.284 118.62 171.117 118.906C171.951 119.18 172.673 119.616 173.285 120.215C173.897 120.814 174.372 121.582 174.711 122.52C175.049 123.457 175.219 124.59 175.219 125.918V140H171.605V126.094C171.605 124.987 171.417 124.102 171.039 123.438C170.674 122.773 170.154 122.292 169.477 121.992C168.799 121.68 168.005 121.523 167.094 121.523C166.026 121.523 165.134 121.712 164.418 122.09C163.702 122.467 163.129 122.988 162.699 123.652C162.27 124.316 161.957 125.078 161.762 125.938C161.579 126.784 161.488 127.682 161.488 128.633ZM175.18 126.641L172.758 127.383C172.771 126.224 172.96 125.111 173.324 124.043C173.702 122.975 174.242 122.025 174.945 121.191C175.661 120.358 176.54 119.701 177.582 119.219C178.624 118.724 179.815 118.477 181.156 118.477C182.289 118.477 183.292 118.626 184.164 118.926C185.049 119.225 185.792 119.688 186.391 120.312C187.003 120.924 187.465 121.712 187.777 122.676C188.09 123.639 188.246 124.785 188.246 126.113V140H184.613V126.074C184.613 124.889 184.424 123.971 184.047 123.32C183.682 122.656 183.161 122.194 182.484 121.934C181.82 121.66 181.026 121.523 180.102 121.523C179.307 121.523 178.604 121.66 177.992 121.934C177.38 122.207 176.866 122.585 176.449 123.066C176.033 123.535 175.714 124.076 175.492 124.688C175.284 125.299 175.18 125.951 175.18 126.641ZM202.484 140.391C201.013 140.391 199.678 140.143 198.48 139.648C197.296 139.141 196.273 138.431 195.414 137.52C194.568 136.608 193.917 135.527 193.461 134.277C193.005 133.027 192.777 131.66 192.777 130.176V129.355C192.777 127.637 193.031 126.107 193.539 124.766C194.047 123.411 194.737 122.266 195.609 121.328C196.482 120.391 197.471 119.681 198.578 119.199C199.685 118.717 200.831 118.477 202.016 118.477C203.526 118.477 204.828 118.737 205.922 119.258C207.029 119.779 207.934 120.508 208.637 121.445C209.34 122.37 209.861 123.464 210.199 124.727C210.538 125.977 210.707 127.344 210.707 128.828V130.449H194.926V127.5H207.094V127.227C207.042 126.289 206.846 125.378 206.508 124.492C206.182 123.607 205.661 122.878 204.945 122.305C204.229 121.732 203.253 121.445 202.016 121.445C201.195 121.445 200.44 121.621 199.75 121.973C199.06 122.311 198.467 122.819 197.973 123.496C197.478 124.173 197.094 125 196.82 125.977C196.547 126.953 196.41 128.079 196.41 129.355V130.176C196.41 131.178 196.547 132.122 196.82 133.008C197.107 133.88 197.517 134.648 198.051 135.312C198.598 135.977 199.255 136.497 200.023 136.875C200.805 137.253 201.69 137.441 202.68 137.441C203.956 137.441 205.036 137.181 205.922 136.66C206.807 136.139 207.582 135.443 208.246 134.57L210.434 136.309C209.978 136.999 209.398 137.656 208.695 138.281C207.992 138.906 207.126 139.414 206.098 139.805C205.082 140.195 203.878 140.391 202.484 140.391ZM218.539 123.379V140H214.926V118.867H218.344L218.539 123.379ZM217.68 128.633L216.176 128.574C216.189 127.129 216.404 125.794 216.82 124.57C217.237 123.333 217.823 122.259 218.578 121.348C219.333 120.436 220.232 119.733 221.273 119.238C222.328 118.73 223.493 118.477 224.77 118.477C225.811 118.477 226.749 118.62 227.582 118.906C228.415 119.18 229.125 119.622 229.711 120.234C230.31 120.846 230.766 121.641 231.078 122.617C231.391 123.581 231.547 124.759 231.547 126.152V140H227.914V126.113C227.914 125.007 227.751 124.121 227.426 123.457C227.1 122.78 226.625 122.292 226 121.992C225.375 121.68 224.607 121.523 223.695 121.523C222.797 121.523 221.977 121.712 221.234 122.09C220.505 122.467 219.874 122.988 219.34 123.652C218.819 124.316 218.409 125.078 218.109 125.938C217.823 126.784 217.68 127.682 217.68 128.633ZM245.883 118.867V121.641H234.457V118.867H245.883ZM238.324 113.73H241.938V134.766C241.938 135.482 242.048 136.022 242.27 136.387C242.491 136.751 242.777 136.992 243.129 137.109C243.48 137.227 243.858 137.285 244.262 137.285C244.561 137.285 244.874 137.259 245.199 137.207C245.538 137.142 245.792 137.09 245.961 137.051L245.98 140C245.694 140.091 245.316 140.176 244.848 140.254C244.392 140.345 243.839 140.391 243.188 140.391C242.302 140.391 241.488 140.215 240.746 139.863C240.004 139.512 239.411 138.926 238.969 138.105C238.539 137.272 238.324 136.152 238.324 134.746V113.73Z" fill="#2F2E35"/>
<path d="M138 429H721" stroke="#A9A5A5"/>
<path d="M138 325H721" stroke="#A9A5A5"/>
<path d="M116.912 535.37V537.762C116.912 538.804 116.814 539.712 116.619 540.487C116.424 541.255 116.137 541.893 115.76 542.401C115.389 542.902 114.933 543.277 114.393 543.524C113.859 543.771 113.247 543.895 112.557 543.895C112.01 543.895 111.508 543.817 111.053 543.661C110.597 543.504 110.19 543.267 109.832 542.948C109.48 542.622 109.181 542.215 108.934 541.727C108.686 541.239 108.497 540.666 108.367 540.008C108.237 539.344 108.172 538.596 108.172 537.762V535.37C108.172 534.321 108.27 533.417 108.465 532.655C108.667 531.893 108.953 531.262 109.324 530.76C109.702 530.259 110.161 529.888 110.701 529.647C111.242 529.4 111.854 529.276 112.537 529.276C113.084 529.276 113.585 529.357 114.041 529.52C114.503 529.676 114.91 529.911 115.262 530.223C115.62 530.536 115.919 530.936 116.16 531.424C116.408 531.906 116.593 532.476 116.717 533.133C116.847 533.791 116.912 534.536 116.912 535.37ZM115.75 537.899V535.223C115.75 534.579 115.704 533.993 115.613 533.465C115.529 532.938 115.402 532.476 115.232 532.079C115.063 531.681 114.848 531.349 114.588 531.083C114.334 530.816 114.035 530.617 113.689 530.487C113.351 530.35 112.967 530.282 112.537 530.282C112.01 530.282 111.544 530.389 111.141 530.604C110.743 530.812 110.411 531.125 110.145 531.542C109.878 531.952 109.676 532.466 109.539 533.084C109.409 533.703 109.344 534.416 109.344 535.223V537.899C109.344 538.537 109.386 539.12 109.471 539.647C109.555 540.168 109.686 540.63 109.861 541.034C110.037 541.437 110.252 541.779 110.506 542.059C110.766 542.333 111.066 542.541 111.404 542.684C111.749 542.821 112.133 542.889 112.557 542.889C113.097 542.889 113.566 542.782 113.963 542.567C114.36 542.346 114.692 542.023 114.959 541.6C115.226 541.17 115.424 540.646 115.555 540.028C115.685 539.403 115.75 538.693 115.75 537.899Z" fill="#3C3636"/>
<path d="M88.0566 429.668L87.1387 429.405L87.832 422.481H94.9414V423.575H88.8281L88.3301 428.36C88.5775 428.184 88.9355 428.012 89.4043 427.842C89.8796 427.667 90.4134 427.579 91.0059 427.579C91.6374 427.579 92.2103 427.686 92.7246 427.901C93.2454 428.109 93.6914 428.415 94.0625 428.819C94.4336 429.216 94.7201 429.698 94.9219 430.264C95.1237 430.824 95.2246 431.459 95.2246 432.168C95.2246 432.852 95.14 433.48 94.9707 434.053C94.8014 434.626 94.5443 435.127 94.1992 435.557C93.8542 435.98 93.4147 436.309 92.8809 436.543C92.347 436.778 91.7122 436.895 90.9766 436.895C90.4102 436.895 89.8763 436.817 89.375 436.661C88.8802 436.498 88.4375 436.254 88.0469 435.928C87.6562 435.603 87.3372 435.193 87.0898 434.698C86.849 434.203 86.6992 433.624 86.6406 432.959H87.7637C87.8418 433.597 88.0143 434.135 88.2812 434.571C88.5482 435.007 88.9062 435.336 89.3555 435.557C89.8112 435.778 90.3516 435.889 90.9766 435.889C91.4844 435.889 91.9271 435.808 92.3047 435.645C92.6888 435.482 93.0078 435.245 93.2617 434.932C93.5221 434.613 93.7174 434.226 93.8477 433.77C93.9844 433.308 94.0527 432.78 94.0527 432.188C94.0527 431.68 93.9811 431.215 93.8379 430.792C93.6947 430.362 93.4831 429.987 93.2031 429.668C92.9297 429.343 92.5911 429.092 92.1875 428.917C91.7839 428.741 91.3216 428.653 90.8008 428.653C90.1237 428.653 89.5833 428.744 89.1797 428.926C88.7826 429.109 88.4082 429.356 88.0566 429.668ZM106.006 428.37V430.762C106.006 431.804 105.908 432.712 105.713 433.487C105.518 434.255 105.231 434.893 104.854 435.401C104.482 435.902 104.027 436.277 103.486 436.524C102.952 436.771 102.34 436.895 101.65 436.895C101.104 436.895 100.602 436.817 100.146 436.661C99.6908 436.504 99.2839 436.267 98.9258 435.948C98.5742 435.622 98.2747 435.215 98.0273 434.727C97.7799 434.239 97.5911 433.666 97.4609 433.008C97.3307 432.344 97.2656 431.596 97.2656 430.762V428.37C97.2656 427.321 97.3633 426.417 97.5586 425.655C97.7604 424.893 98.0469 424.262 98.418 423.76C98.7956 423.259 99.2546 422.888 99.7949 422.647C100.335 422.4 100.947 422.276 101.631 422.276C102.178 422.276 102.679 422.357 103.135 422.52C103.597 422.676 104.004 422.911 104.355 423.223C104.714 423.536 105.013 423.936 105.254 424.424C105.501 424.906 105.687 425.476 105.811 426.133C105.941 426.791 106.006 427.536 106.006 428.37ZM104.844 430.899V428.223C104.844 427.579 104.798 426.993 104.707 426.465C104.622 425.938 104.495 425.476 104.326 425.079C104.157 424.681 103.942 424.349 103.682 424.083C103.428 423.816 103.128 423.617 102.783 423.487C102.445 423.35 102.061 423.282 101.631 423.282C101.104 423.282 100.638 423.389 100.234 423.604C99.8372 423.812 99.5052 424.125 99.2383 424.542C98.9714 424.952 98.7695 425.466 98.6328 426.084C98.5026 426.703 98.4375 427.416 98.4375 428.223V430.899C98.4375 431.537 98.4798 432.12 98.5645 432.647C98.6491 433.168 98.7793 433.63 98.9551 434.034C99.1309 434.437 99.3457 434.779 99.5996 435.059C99.86 435.333 100.16 435.541 100.498 435.684C100.843 435.821 101.227 435.889 101.65 435.889C102.191 435.889 102.66 435.782 103.057 435.567C103.454 435.346 103.786 435.023 104.053 434.6C104.32 434.17 104.518 433.646 104.648 433.028C104.779 432.403 104.844 431.693 104.844 430.899ZM117.1 428.37V430.762C117.1 431.804 117.002 432.712 116.807 433.487C116.611 434.255 116.325 434.893 115.947 435.401C115.576 435.902 115.12 436.277 114.58 436.524C114.046 436.771 113.434 436.895 112.744 436.895C112.197 436.895 111.696 436.817 111.24 436.661C110.785 436.504 110.378 436.267 110.02 435.948C109.668 435.622 109.368 435.215 109.121 434.727C108.874 434.239 108.685 433.666 108.555 433.008C108.424 432.344 108.359 431.596 108.359 430.762V428.37C108.359 427.321 108.457 426.417 108.652 425.655C108.854 424.893 109.141 424.262 109.512 423.76C109.889 423.259 110.348 422.888 110.889 422.647C111.429 422.4 112.041 422.276 112.725 422.276C113.271 422.276 113.773 422.357 114.229 422.52C114.691 422.676 115.098 422.911 115.449 423.223C115.807 423.536 116.107 423.936 116.348 424.424C116.595 424.906 116.781 425.476 116.904 426.133C117.035 426.791 117.1 427.536 117.1 428.37ZM115.938 430.899V428.223C115.938 427.579 115.892 426.993 115.801 426.465C115.716 425.938 115.589 425.476 115.42 425.079C115.251 424.681 115.036 424.349 114.775 424.083C114.521 423.816 114.222 423.617 113.877 423.487C113.538 423.35 113.154 423.282 112.725 423.282C112.197 423.282 111.732 423.389 111.328 423.604C110.931 423.812 110.599 424.125 110.332 424.542C110.065 424.952 109.863 425.466 109.727 426.084C109.596 426.703 109.531 427.416 109.531 428.223V430.899C109.531 431.537 109.574 432.12 109.658 432.647C109.743 433.168 109.873 433.63 110.049 434.034C110.225 434.437 110.439 434.779 110.693 435.059C110.954 435.333 111.253 435.541 111.592 435.684C111.937 435.821 112.321 435.889 112.744 435.889C113.285 435.889 113.753 435.782 114.15 435.567C114.548 435.346 114.88 435.023 115.146 434.6C115.413 434.17 115.612 433.646 115.742 433.028C115.872 432.403 115.938 431.693 115.938 430.899Z" fill="#3C3636"/>
<path d="M91.7773 317.422V331.7H90.6152V318.897L86.748 320.333V319.229L91.582 317.422H91.7773ZM97.5195 330.987C97.5195 330.759 97.5911 330.567 97.7344 330.411C97.8841 330.248 98.0859 330.167 98.3398 330.167C98.6003 330.167 98.8053 330.245 98.9551 330.401C99.1048 330.557 99.1797 330.752 99.1797 330.987C99.1797 331.208 99.1048 331.397 98.9551 331.553C98.8053 331.709 98.6003 331.788 98.3398 331.788C98.0859 331.788 97.8841 331.709 97.7344 331.553C97.5911 331.397 97.5195 331.208 97.5195 330.987ZM110.791 323.37V325.762C110.791 326.804 110.693 327.712 110.498 328.487C110.303 329.255 110.016 329.893 109.639 330.401C109.268 330.902 108.812 331.277 108.271 331.524C107.738 331.771 107.126 331.895 106.436 331.895C105.889 331.895 105.387 331.817 104.932 331.661C104.476 331.504 104.069 331.267 103.711 330.948C103.359 330.622 103.06 330.215 102.812 329.727C102.565 329.239 102.376 328.666 102.246 328.008C102.116 327.344 102.051 326.596 102.051 325.762V323.37C102.051 322.321 102.148 321.417 102.344 320.655C102.546 319.893 102.832 319.262 103.203 318.76C103.581 318.259 104.04 317.888 104.58 317.647C105.12 317.4 105.732 317.276 106.416 317.276C106.963 317.276 107.464 317.357 107.92 317.52C108.382 317.676 108.789 317.911 109.141 318.223C109.499 318.536 109.798 318.936 110.039 319.424C110.286 319.906 110.472 320.476 110.596 321.133C110.726 321.791 110.791 322.536 110.791 323.37ZM109.629 325.899V323.223C109.629 322.579 109.583 321.993 109.492 321.465C109.408 320.938 109.281 320.476 109.111 320.079C108.942 319.681 108.727 319.349 108.467 319.083C108.213 318.816 107.913 318.617 107.568 318.487C107.23 318.35 106.846 318.282 106.416 318.282C105.889 318.282 105.423 318.389 105.02 318.604C104.622 318.812 104.29 319.125 104.023 319.542C103.757 319.952 103.555 320.466 103.418 321.084C103.288 321.703 103.223 322.416 103.223 323.223V325.899C103.223 326.537 103.265 327.12 103.35 327.647C103.434 328.168 103.564 328.63 103.74 329.034C103.916 329.437 104.131 329.779 104.385 330.059C104.645 330.333 104.945 330.541 105.283 330.684C105.628 330.821 106.012 330.889 106.436 330.889C106.976 330.889 107.445 330.782 107.842 330.567C108.239 330.346 108.571 330.023 108.838 329.6C109.105 329.17 109.303 328.646 109.434 328.028C109.564 327.403 109.629 326.693 109.629 325.899ZM114.668 316.7V331.7H113.506V316.7H114.668ZM121.299 321.133L116.357 326.036L114.258 328.067L114.082 326.924L115.771 325.098L119.824 321.133H121.299ZM120.283 331.7L115.869 326.211L116.514 325.206L121.689 331.7H120.283Z" fill="#3C3636"/>
<path d="M193 223L140 537L171 519H288L478 498L675 508L722 369V246L642 449L610 401L577 256L535 344L493 168L311 480L278 292L233 490L193 223Z" fill="#ECD6FF"/>
<path d="M681 427L722 348.5L723 537H139L192 433L233 467L274 454L315 467L406 355L489 427L533 438L571 368L599 444L640 482L681 427Z" fill="#00CF90"/>
<path d="M347.312 571.367H344.07V570.547H347.312C347.99 570.547 348.539 570.438 348.961 570.219C349.388 569.995 349.698 569.693 349.891 569.312C350.089 568.932 350.188 568.505 350.188 568.031C350.188 567.568 350.089 567.141 349.891 566.75C349.698 566.359 349.388 566.047 348.961 565.812C348.539 565.573 347.99 565.453 347.312 565.453H344.406V576H343.445V564.625H347.312C348.146 564.625 348.846 564.768 349.414 565.055C349.987 565.341 350.419 565.74 350.711 566.25C351.003 566.76 351.148 567.349 351.148 568.016C351.148 568.714 351.003 569.315 350.711 569.82C350.419 570.32 349.99 570.703 349.422 570.969C348.854 571.234 348.151 571.367 347.312 571.367ZM352.461 571.906V571.648C352.461 571.034 352.549 570.466 352.727 569.945C352.904 569.424 353.156 568.974 353.484 568.594C353.818 568.214 354.216 567.919 354.68 567.711C355.143 567.497 355.659 567.391 356.227 567.391C356.799 567.391 357.318 567.497 357.781 567.711C358.245 567.919 358.643 568.214 358.977 568.594C359.31 568.974 359.565 569.424 359.742 569.945C359.919 570.466 360.008 571.034 360.008 571.648V571.906C360.008 572.521 359.919 573.089 359.742 573.609C359.565 574.125 359.31 574.573 358.977 574.953C358.648 575.333 358.253 575.63 357.789 575.844C357.326 576.052 356.81 576.156 356.242 576.156C355.669 576.156 355.151 576.052 354.688 575.844C354.224 575.63 353.826 575.333 353.492 574.953C353.159 574.573 352.904 574.125 352.727 573.609C352.549 573.089 352.461 572.521 352.461 571.906ZM353.391 571.648V571.906C353.391 572.37 353.453 572.81 353.578 573.227C353.703 573.638 353.885 574.005 354.125 574.328C354.365 574.646 354.661 574.896 355.016 575.078C355.37 575.26 355.779 575.352 356.242 575.352C356.701 575.352 357.104 575.26 357.453 575.078C357.807 574.896 358.104 574.646 358.344 574.328C358.583 574.005 358.763 573.638 358.883 573.227C359.008 572.81 359.07 572.37 359.07 571.906V571.648C359.07 571.19 359.008 570.755 358.883 570.344C358.763 569.932 358.581 569.565 358.336 569.242C358.096 568.919 357.799 568.664 357.445 568.477C357.091 568.289 356.685 568.195 356.227 568.195C355.768 568.195 355.362 568.289 355.008 568.477C354.659 568.664 354.362 568.919 354.117 569.242C353.878 569.565 353.695 569.932 353.57 570.344C353.451 570.755 353.391 571.19 353.391 571.648ZM367.008 573.844C367.008 573.615 366.951 573.388 366.836 573.164C366.721 572.94 366.5 572.734 366.172 572.547C365.849 572.359 365.372 572.201 364.742 572.07C364.273 571.966 363.854 571.849 363.484 571.719C363.12 571.589 362.812 571.432 362.562 571.25C362.312 571.068 362.122 570.849 361.992 570.594C361.862 570.339 361.797 570.036 361.797 569.688C361.797 569.375 361.865 569.081 362 568.805C362.141 568.523 362.339 568.279 362.594 568.07C362.854 567.857 363.167 567.69 363.531 567.57C363.901 567.451 364.315 567.391 364.773 567.391C365.424 567.391 365.982 567.503 366.445 567.727C366.914 567.945 367.271 568.245 367.516 568.625C367.766 569.005 367.891 569.435 367.891 569.914H366.961C366.961 569.622 366.875 569.346 366.703 569.086C366.536 568.826 366.289 568.612 365.961 568.445C365.638 568.279 365.242 568.195 364.773 568.195C364.289 568.195 363.896 568.268 363.594 568.414C363.292 568.56 363.07 568.745 362.93 568.969C362.794 569.193 362.727 569.424 362.727 569.664C362.727 569.852 362.755 570.023 362.812 570.18C362.875 570.331 362.984 570.471 363.141 570.602C363.302 570.732 363.531 570.854 363.828 570.969C364.125 571.083 364.51 571.195 364.984 571.305C365.667 571.456 366.224 571.641 366.656 571.859C367.094 572.073 367.417 572.339 367.625 572.656C367.833 572.969 367.938 573.349 367.938 573.797C367.938 574.146 367.865 574.466 367.719 574.758C367.573 575.044 367.362 575.292 367.086 575.5C366.815 575.708 366.487 575.87 366.102 575.984C365.721 576.099 365.294 576.156 364.82 576.156C364.107 576.156 363.503 576.039 363.008 575.805C362.518 575.565 362.146 575.253 361.891 574.867C361.641 574.477 361.516 574.062 361.516 573.625H362.445C362.477 574.062 362.615 574.409 362.859 574.664C363.104 574.914 363.404 575.091 363.758 575.195C364.117 575.299 364.471 575.352 364.82 575.352C365.299 575.352 365.701 575.281 366.023 575.141C366.346 575 366.591 574.815 366.758 574.586C366.924 574.357 367.008 574.109 367.008 573.844ZM371.094 567.547V576H370.164V567.547H371.094ZM370 565.102C370 564.924 370.055 564.776 370.164 564.656C370.279 564.531 370.435 564.469 370.633 564.469C370.831 564.469 370.987 564.531 371.102 564.656C371.221 564.776 371.281 564.924 371.281 565.102C371.281 565.273 371.221 565.422 371.102 565.547C370.987 565.667 370.831 565.727 370.633 565.727C370.435 565.727 370.279 565.667 370.164 565.547C370.055 565.422 370 565.273 370 565.102ZM376.844 567.547V568.312H372.609V567.547H376.844ZM374.164 565.375H375.094V573.945C375.094 574.336 375.146 574.63 375.25 574.828C375.354 575.026 375.49 575.159 375.656 575.227C375.823 575.294 376.003 575.328 376.195 575.328C376.336 575.328 376.471 575.32 376.602 575.305C376.732 575.284 376.849 575.263 376.953 575.242L376.992 576.031C376.878 576.068 376.729 576.096 376.547 576.117C376.365 576.143 376.182 576.156 376 576.156C375.641 576.156 375.323 576.091 375.047 575.961C374.771 575.826 374.555 575.596 374.398 575.273C374.242 574.945 374.164 574.5 374.164 573.938V565.375ZM379.844 567.547V576H378.914V567.547H379.844ZM378.75 565.102C378.75 564.924 378.805 564.776 378.914 564.656C379.029 564.531 379.185 564.469 379.383 564.469C379.581 564.469 379.737 564.531 379.852 564.656C379.971 564.776 380.031 564.924 380.031 565.102C380.031 565.273 379.971 565.422 379.852 565.547C379.737 565.667 379.581 565.727 379.383 565.727C379.185 565.727 379.029 565.667 378.914 565.547C378.805 565.422 378.75 565.273 378.75 565.102ZM384.891 575.102L387.602 567.547H388.562L385.398 576H384.719L384.891 575.102ZM382.438 567.547L385.18 575.125L385.328 576H384.641L381.469 567.547H382.438ZM393.258 576.156C392.706 576.156 392.198 576.055 391.734 575.852C391.276 575.648 390.875 575.362 390.531 574.992C390.193 574.622 389.93 574.185 389.742 573.68C389.56 573.169 389.469 572.612 389.469 572.008V571.672C389.469 571.021 389.565 570.432 389.758 569.906C389.951 569.38 390.216 568.93 390.555 568.555C390.893 568.18 391.279 567.893 391.711 567.695C392.148 567.492 392.607 567.391 393.086 567.391C393.622 567.391 394.099 567.487 394.516 567.68C394.932 567.867 395.281 568.135 395.562 568.484C395.849 568.828 396.065 569.237 396.211 569.711C396.357 570.18 396.43 570.698 396.43 571.266V571.836H390.031V571.039H395.5V570.93C395.49 570.456 395.393 570.013 395.211 569.602C395.034 569.185 394.768 568.846 394.414 568.586C394.06 568.326 393.617 568.195 393.086 568.195C392.69 568.195 392.326 568.279 391.992 568.445C391.664 568.612 391.38 568.852 391.141 569.164C390.906 569.471 390.724 569.839 390.594 570.266C390.469 570.688 390.406 571.156 390.406 571.672V572.008C390.406 572.477 390.474 572.914 390.609 573.32C390.75 573.721 390.948 574.076 391.203 574.383C391.464 574.69 391.771 574.93 392.125 575.102C392.479 575.273 392.87 575.359 393.297 575.359C393.797 575.359 394.24 575.268 394.625 575.086C395.01 574.898 395.357 574.604 395.664 574.203L396.25 574.656C396.068 574.927 395.839 575.177 395.562 575.406C395.292 575.635 394.966 575.818 394.586 575.953C394.206 576.089 393.763 576.156 393.258 576.156Z" fill="#3C3636"/>
<rect x="324" y="565.4" width="10" height="10" rx="2" fill="#00CF90"/>
<path d="M497.914 564.625V576H496.945L490.406 566.281V576H489.445V564.625H490.406L496.961 574.344V564.625H497.914ZM503.867 576.156C503.315 576.156 502.807 576.055 502.344 575.852C501.885 575.648 501.484 575.362 501.141 574.992C500.802 574.622 500.539 574.185 500.352 573.68C500.169 573.169 500.078 572.612 500.078 572.008V571.672C500.078 571.021 500.174 570.432 500.367 569.906C500.56 569.38 500.826 568.93 501.164 568.555C501.503 568.18 501.888 567.893 502.32 567.695C502.758 567.492 503.216 567.391 503.695 567.391C504.232 567.391 504.708 567.487 505.125 567.68C505.542 567.867 505.891 568.135 506.172 568.484C506.458 568.828 506.674 569.237 506.82 569.711C506.966 570.18 507.039 570.698 507.039 571.266V571.836H500.641V571.039H506.109V570.93C506.099 570.456 506.003 570.013 505.82 569.602C505.643 569.185 505.378 568.846 505.023 568.586C504.669 568.326 504.227 568.195 503.695 568.195C503.299 568.195 502.935 568.279 502.602 568.445C502.273 568.612 501.99 568.852 501.75 569.164C501.516 569.471 501.333 569.839 501.203 570.266C501.078 570.688 501.016 571.156 501.016 571.672V572.008C501.016 572.477 501.083 572.914 501.219 573.32C501.359 573.721 501.557 574.076 501.812 574.383C502.073 574.69 502.38 574.93 502.734 575.102C503.089 575.273 503.479 575.359 503.906 575.359C504.406 575.359 504.849 575.268 505.234 575.086C505.62 574.898 505.966 574.604 506.273 574.203L506.859 574.656C506.677 574.927 506.448 575.177 506.172 575.406C505.901 575.635 505.576 575.818 505.195 575.953C504.815 576.089 504.372 576.156 503.867 576.156ZM514.297 574.047V567.547H515.234V576H514.336L514.297 574.047ZM514.469 572.484L514.953 572.469C514.953 573 514.891 573.49 514.766 573.938C514.641 574.385 514.445 574.776 514.18 575.109C513.914 575.443 513.57 575.701 513.148 575.883C512.727 576.065 512.219 576.156 511.625 576.156C511.214 576.156 510.836 576.099 510.492 575.984C510.154 575.865 509.862 575.677 509.617 575.422C509.372 575.167 509.182 574.836 509.047 574.43C508.917 574.023 508.852 573.531 508.852 572.953V567.547H509.781V572.969C509.781 573.422 509.831 573.799 509.93 574.102C510.034 574.404 510.174 574.646 510.352 574.828C510.534 575.01 510.742 575.141 510.977 575.219C511.211 575.297 511.464 575.336 511.734 575.336C512.422 575.336 512.964 575.203 513.359 574.938C513.76 574.672 514.044 574.323 514.211 573.891C514.383 573.453 514.469 572.984 514.469 572.484ZM520.875 567.547V568.312H516.641V567.547H520.875ZM518.195 565.375H519.125V573.945C519.125 574.336 519.177 574.63 519.281 574.828C519.385 575.026 519.521 575.159 519.688 575.227C519.854 575.294 520.034 575.328 520.227 575.328C520.367 575.328 520.503 575.32 520.633 575.305C520.763 575.284 520.88 575.263 520.984 575.242L521.023 576.031C520.909 576.068 520.76 576.096 520.578 576.117C520.396 576.143 520.214 576.156 520.031 576.156C519.672 576.156 519.354 576.091 519.078 575.961C518.802 575.826 518.586 575.596 518.43 575.273C518.273 574.945 518.195 574.5 518.195 573.938V565.375ZM523.766 568.945V576H522.836V567.547H523.742L523.766 568.945ZM526.758 567.484L526.734 568.344C526.63 568.328 526.529 568.315 526.43 568.305C526.331 568.294 526.224 568.289 526.109 568.289C525.703 568.289 525.346 568.365 525.039 568.516C524.737 568.661 524.482 568.867 524.273 569.133C524.065 569.393 523.906 569.701 523.797 570.055C523.688 570.404 523.625 570.779 523.609 571.18L523.266 571.312C523.266 570.76 523.323 570.247 523.438 569.773C523.552 569.299 523.727 568.885 523.961 568.531C524.201 568.172 524.5 567.893 524.859 567.695C525.224 567.492 525.651 567.391 526.141 567.391C526.26 567.391 526.378 567.401 526.492 567.422C526.612 567.438 526.701 567.458 526.758 567.484ZM533.055 574.484V570.125C533.055 569.724 532.971 569.378 532.805 569.086C532.638 568.794 532.393 568.57 532.07 568.414C531.747 568.258 531.349 568.18 530.875 568.18C530.438 568.18 530.047 568.258 529.703 568.414C529.365 568.565 529.096 568.771 528.898 569.031C528.706 569.286 528.609 569.57 528.609 569.883L527.672 569.875C527.672 569.557 527.75 569.25 527.906 568.953C528.062 568.656 528.284 568.391 528.57 568.156C528.857 567.922 529.198 567.737 529.594 567.602C529.995 567.461 530.435 567.391 530.914 567.391C531.518 567.391 532.049 567.492 532.508 567.695C532.971 567.898 533.333 568.203 533.594 568.609C533.854 569.016 533.984 569.526 533.984 570.141V574.227C533.984 574.518 534.005 574.82 534.047 575.133C534.094 575.445 534.159 575.703 534.242 575.906V576H533.25C533.188 575.812 533.138 575.578 533.102 575.297C533.07 575.01 533.055 574.74 533.055 574.484ZM533.273 571.078L533.289 571.797H531.453C530.974 571.797 530.544 571.841 530.164 571.93C529.789 572.013 529.471 572.138 529.211 572.305C528.951 572.466 528.75 572.661 528.609 572.891C528.474 573.12 528.406 573.38 528.406 573.672C528.406 573.974 528.482 574.25 528.633 574.5C528.789 574.75 529.008 574.951 529.289 575.102C529.576 575.247 529.914 575.32 530.305 575.32C530.826 575.32 531.284 575.224 531.68 575.031C532.081 574.839 532.411 574.586 532.672 574.273C532.932 573.961 533.107 573.62 533.195 573.25L533.602 573.789C533.534 574.049 533.409 574.318 533.227 574.594C533.049 574.865 532.818 575.12 532.531 575.359C532.245 575.594 531.906 575.786 531.516 575.938C531.13 576.083 530.693 576.156 530.203 576.156C529.651 576.156 529.169 576.052 528.758 575.844C528.352 575.635 528.034 575.352 527.805 574.992C527.581 574.628 527.469 574.216 527.469 573.758C527.469 573.341 527.557 572.969 527.734 572.641C527.911 572.307 528.167 572.026 528.5 571.797C528.839 571.562 529.245 571.385 529.719 571.266C530.198 571.141 530.734 571.078 531.328 571.078H533.273ZM537.531 564V576H536.602V564H537.531Z" fill="#3C3636"/>
<rect x="470" y="565.4" width="10" height="10" rx="2" fill="#ECD6FF"/>
<defs>
<filter id="filter0_d_123_239" x="0" y="0" width="808" height="642" filterUnits="userSpaceOnUse" color-interpolation-filters="sRGB">
<feFlood flood-opacity="0" result="BackgroundImageFix"/>
<feColorMatrix in="SourceAlpha" type="matrix" values="0 0 0 0 0 0 0 0 0 0 0 0 0 0 0 0 0 0 127 0" result="hardAlpha"/>
<feOffset dy="4"/>
<feGaussianBlur stdDeviation="3"/>
<feComposite in2="hardAlpha" operator="out"/>
<feColorMatrix type="matrix" values="0 0 0 0 0 0 0 0 0 0 0 0 0 0 0 0 0 0 0.35 0"/>
<feBlend mode="normal" in2="BackgroundImageFix" result="effect1_dropShadow_123_239"/>
<feBlend mode="normal" in="SourceGraphic" in2="effect1_dropShadow_123_239" result="shape"/>
</filter>
</defs>
</svg>
